<?xml version="1.0" encoding="UTF-8"?>
<svg id="Calque_2" data-name="Calque 2" xmlns="http://www.w3.org/2000/svg" width="42" height="42" viewBox="-1 -1 41.92 42">
  <defs>
    <style>
      .cls-fond-bleu {
        fill: #223654;
        stroke: #4A98D9;
        stroke-width: 2px;
      }
      .cls-centre-blanc {
        fill: #ffffff;
        stroke-width: 0px;
      }
      .cls-cadre-invisible {
        fill: none;
        stroke-width: 0px;
      }
    </style>
  </defs>
  <g id="40x40-_invisible" data-name="40x40 - invisible">
    <rect class="cls-cadre-invisible" y=".04" width="39.92" height="39.92"/>
  </g>
  <g id="Calque_8" data-name="Calque 8">
    <path class="cls-fond-bleu" d="M19.96,40c-.31,0-.6-.14-.79-.38-.11-.15-2.84-3.63-5.59-8.77-1.62-3.03-2.92-6-3.85-8.83-1.17-3.57-1.77-6.94-1.77-10.02C7.96,5.38,13.35,0,19.96,0s12,5.38,12,12c0,3.07-.6,6.44-1.77,10.02-.93,2.83-2.23,5.81-3.85,8.83-2.76,5.14-5.48,8.62-5.59,8.77-.19.24-.48.38-.79.38h0Z"/>
    <circle class="cls-centre-blanc" cx="19.96" cy="12" r="6"/>
  </g>
</svg>