<?xml version="1.0" encoding="utf-8"?><!DOCTYPE svg PUBLIC "-//W3C//DTD SVG 1.1//EN" "http://www.w3.org/Graphics/SVG/1.1/DTD/svg11.dtd"><svg viewBox="0 0 975.1 3308" xmlns="http://www.w3.org/2000/svg" xmlns:xlink="http://www.w3.org/1999/xlink"><view id="QUEBEC_blanc" viewBox="0 0 465.55 93"/><svg viewBox="-1 -1 465.55 93" width="465.55" height="93" id="QUEBEC_blanc-" xmlns="http://www.w3.org/2000/svg"><defs><style>.aacls-1,.aacls-2{fill:#fff}.aacls-2{fill-rule:evenodd}</style></defs><g id="aaCalque_2" data-name="Calque 2"><g id="aaSignature"><path class="aacls-1" d="M125.22 62.89V24.11h-.29c-1.38 1.27-6.48 1.37-8.64 1.37h-3.75v.31c4.33 2.66 3.74 6.59 3.74 11.48v16.41c0 8.21-8.06 14-14.56 14-8.56 0-12.11-6.08-12.11-15.89V24.11h-.3c-1.38 1.27-6.51 1.37-8.67 1.37h-3.7v.32c4.33 2.66 3.74 6.58 3.74 11.47v16.36c0 15 6.49 22.08 18.1 22.08 6.89 0 14-2.44 17.51-8.28v7.08H129v-.32c-4.37-2.45-3.78-6.4-3.78-11.3zM144.88 42.15c1.18-6.66 6.1-10.89 12.7-10.89 7.09 0 11.61 3.49 12.7 10.89zm35.74 6.18c.39-13.68-8.77-24-22.16-24-14.66 0-24.6 10.64-24.6 25.4s11.51 26.21 28.25 26.21a33.26 33.26 0 0013.58-2.64l4.93-10h-.3a24.65 24.65 0 01-16.15 5.7c-11.12 0-19.49-7.59-19.68-20.65zM188.42 1.58c2.36 0 7.17-.15 8.63-1.58h.29v67.17a30.3 30.3 0 008.12 1.27c10.75 0 16.92-7.53 16.92-18 0-10.28-4.8-18.23-14.67-18.23a15.91 15.91 0 00-8.22 2.33l5.28-9a19.53 19.53 0 016.95-1.17c11.15 0 20.63 9.68 20.63 24.2 0 16.63-11.25 27.39-29 27.39-6.65 0-13-1.18-17.85-1.92v-.33c3.25-1.49 3-5 3-8.51V16.33c0-4.91.59-11.77-3.64-14.43v-.32zM249.83 42.15c1.18-6.66 6.1-10.89 12.7-10.89 7.09 0 11.61 3.49 12.7 10.89zm35.73 6.18c.4-13.68-8.76-24-22.15-24-14.66 0-24.6 10.64-24.6 25.4s11.51 26.21 28.24 26.21a33.27 33.27 0 0013.59-2.64l4.92-10h-.29a24.65 24.65 0 01-16.15 5.7c-11.12 0-19.49-7.59-19.69-20.65zM329.59 36.49h-.3c-2.85-3.52-7.58-5.23-12-5.23-9.55 0-16.43 7.25-16.43 17.37 0 12.25 9.54 20.35 20.47 20.35a24.18 24.18 0 0014.37-5.22h.3l-5.12 10.06a34.32 34.32 0 01-13 2.11c-15.15 0-27-10.68-27-24.53 0-18.32 13.22-27.08 28.09-27.08a45.37 45.37 0 0110.63 1.26z"/><path class="aacls-2" d="M168.33 15.53V4.87c-6.45 2.89-12.44 8.3-16.44 13.56v4.15c9.58-6.45 16.44-6.75 16.44-7.05z"/><path class="aacls-1" d="M36.43 68.6c-14.87 0-25.21-16.77-25.21-31V36c.18-13.8 9.12-26.75 24.71-26.75 16.4 0 24.86 15.52 25 30.23V41c.01 15.66-9.73 27.6-24.5 27.6zm50.95 16.3c-11 1.79-21.53-1.66-32.74-14.49 10.83-5.44 17.53-19 17.53-31.55v-1.57C72 15.77 55.8 1.56 36.53 1.56S.15 16.35 0 38v1.5c0 21.1 15.66 36.77 34.85 36.77a34.32 34.32 0 008.08-1.07C55.5 87 66.71 92 76.39 90.83c4.59-.55 9.45-2.38 12.36-6.16zM375.65 27.17c-3 .95-3-1.75-3-1.75 2.68.47 2.94-1.78 2.94-1.78h-5.35v-2.52h2.54s-.43-3.36-2.92-3.36c-2.29 0-2.61 2.54-2.19 3.59-1.15.2-2.83-1.79-2.83-4.13a4.45 4.45 0 014.45-4.57c3.37 0 5.89 3.89 5.89 8.47h1a15.1 15.1 0 00-.24-4.22c-.72-3.17-2.3-5-2.33-7.19-.06-3.73 2.19-4.33 4-7.59 1.8 3.26 4.05 3.86 4 7.59 0 2.15-1.61 4-2.34 7.19a14.89 14.89 0 00-.23 4.22h1c0-4.58 2.53-8.47 5.9-8.47a4.45 4.45 0 014.45 4.57c0 2.34-1.68 4.33-2.83 4.13.42-1.05.1-3.59-2.2-3.59-2.48 0-2.91 3.36-2.91 3.36H385v2.52h-5.34s.26 2.25 2.94 1.78c0 0 0 2.7-3.05 1.75 0 0-.12 2.41-1.93 3.28-1.85-.87-1.97-3.28-1.97-3.28zm25.92-25.58h-48V31h48zM437.63 27.17c-3 .95-3.05-1.75-3.05-1.75 2.67.47 2.94-1.78 2.94-1.78h-5.34v-2.52h2.53s-.43-3.36-2.92-3.36c-2.29 0-2.61 2.54-2.19 3.59-1.15.2-2.83-1.79-2.83-4.13a4.45 4.45 0 014.45-4.57c3.37 0 5.9 3.89 5.9 8.47h1a14.89 14.89 0 00-.23-4.22c-.73-3.17-2.3-5-2.34-7.19-.06-3.73 2.19-4.33 4-7.59 1.79 3.26 4.05 3.86 4 7.59 0 2.15-1.6 4-2.32 7.19a15.31 15.31 0 00-.25 4.22h1c0-4.58 2.52-8.47 5.89-8.47a4.45 4.45 0 014.45 4.57c0 2.34-1.68 4.33-2.83 4.13.42-1.05.1-3.59-2.19-3.59-2.49 0-2.92 3.36-2.92 3.36h2.53v2.52h-5.31s.26 2.25 2.94 1.78c0 0 0 2.7-3.05 1.75 0 0-.12 2.41-1.93 3.28-1.81-.87-1.93-3.28-1.93-3.28zm25.92-25.58h-48V31h48zM375.65 70.63c-3 1-3-1.75-3-1.75 2.68.48 2.94-1.78 2.94-1.78h-5.35v-2.52h2.54s-.43-3.36-2.92-3.36c-2.29 0-2.61 2.54-2.19 3.6-1.15.19-2.83-1.8-2.83-4.14a4.45 4.45 0 014.45-4.57c3.37 0 5.89 3.89 5.89 8.47h1a15.1 15.1 0 00-.24-4.22c-.72-3.16-2.3-5-2.33-7.18-.06-3.74 2.19-4.34 4-7.6 1.8 3.26 4.05 3.86 4 7.6 0 2.14-1.61 4-2.34 7.18a14.89 14.89 0 00-.23 4.22h1c0-4.58 2.53-8.47 5.9-8.47a4.45 4.45 0 014.45 4.57c0 2.34-1.68 4.33-2.83 4.14.42-1.06.1-3.6-2.2-3.6-2.48 0-2.91 3.36-2.91 3.36H385v2.52h-5.34s.26 2.26 2.94 1.78c0 0 0 2.7-3.05 1.75 0 0-.12 2.41-1.93 3.28-1.85-.91-1.97-3.28-1.97-3.28zm25.92-25.57h-48v29.4h48zM437.63 70.63c-3 1-3.05-1.75-3.05-1.75 2.67.48 2.94-1.78 2.94-1.78h-5.34v-2.52h2.53s-.43-3.36-2.92-3.36c-2.29 0-2.61 2.54-2.19 3.6-1.15.19-2.83-1.8-2.83-4.14a4.45 4.45 0 014.45-4.57c3.37 0 5.9 3.89 5.9 8.47h1a14.89 14.89 0 00-.23-4.22c-.73-3.16-2.3-5-2.34-7.18-.06-3.74 2.19-4.34 4-7.6 1.79 3.26 4.05 3.86 4 7.6 0 2.14-1.6 4-2.32 7.18a15.31 15.31 0 00-.25 4.22h1c0-4.58 2.52-8.47 5.89-8.47a4.45 4.45 0 014.45 4.57c0 2.34-1.68 4.33-2.83 4.14.42-1.06.1-3.6-2.19-3.6-2.49 0-2.92 3.36-2.92 3.36h2.53v2.52h-5.31s.26 2.26 2.94 1.78c0 0 0 2.7-3.05 1.75 0 0-.12 2.41-1.93 3.28-1.81-.91-1.93-3.28-1.93-3.28zm25.92-25.57h-48v29.4h48z"/></g></g></svg><view id="ico-alarme" viewBox="0 93 26 26"/><svg width="26" height="26" fill="none" viewBox="-1 -1 26 26" id="ico-alarme-" y="93" xmlns="http://www.w3.org/2000/svg"><path d="M21.732 18.8a5.955 5.955 0 01-2.4-4.8v-4c0-3.351-2.259-6.184-5.333-7.056V2c0-1.103-.897-2-2-2s-2 .897-2 2v.944c-3.074.873-5.333 3.705-5.333 7.055v4a5.957 5.957 0 01-2.4 4.801.667.667 0 00.4 1.2h6.067a3.338 3.338 0 003.265 4 3.338 3.338 0 003.266-4h6.067a.667.667 0 00.4-1.2zM11.332 2a.667.667 0 011.334 0v.697a7.344 7.344 0 00-1.334 0V2zM14 20.666c0 1.102-.897 2-2 2a2.002 2.002 0 01-1.885-2.667h3.77c.075.213.115.439.115.667zm-9.677-2c.34-.412.636-.862.879-1.335a7.246 7.246 0 00.798-3.332v-4c0-3.307 2.692-6 6-6s6 2.693 6 6v4a7.263 7.263 0 001.677 4.667H4.32h.001z" fill="#223654"/></svg><view id="ico-ampoule" viewBox="0 119 22 22"/><svg width="22" height="22" viewBox="-1 -1 22 22" id="ico-ampoule-" y="119" xmlns="http://www.w3.org/2000/svg"><path d="M10.5 20h-1a.5.5 0 010-1h1a.5.5 0 010 1zM10 0C6.692 0 4 2.692 4 6c0 2.114 1.014 3.828 1.057 3.9.266.444.645 1.228.826 1.712l.798 2.127c.121.322.353.613.641.834a1.493 1.493 0 00.061 1.927A1.502 1.502 0 008.5 19h3a1.502 1.502 0 001.117-2.5 1.494 1.494 0 00.061-1.927c.288-.221.52-.511.641-.834l.797-2.127c.182-.484.56-1.268.826-1.712C14.985 9.828 16 8.114 16 6c0-3.308-2.692-6-6-6zm1.5 18h-3a.5.5 0 010-1h3a.5.5 0 010 1zm.5-2.5a.5.5 0 01-.5.5h-3a.5.5 0 010-1h3a.5.5 0 01.5.5zm2.085-6.115a13.72 13.72 0 00-.905 1.876l-.797 2.127c-.12.32-.541.612-.883.612h-3c-.342 0-.763-.292-.883-.612l-.798-2.127a13.777 13.777 0 00-.905-1.876C5.905 9.37 5 7.84 5 6c0-2.757 2.243-5 5-5s5 2.243 5 5c0 1.829-.906 3.371-.915 3.385z" fill="#223654"/></svg><view id="ico-annuler" viewBox="0 141 22 22"/><svg width="22" height="22" viewBox="-1 -1 22 22" id="ico-annuler-" y="141" xmlns="http://www.w3.org/2000/svg"><path d="M17.51 4.49C15.905 2.885 13.77 2 11.5 2s-4.405.884-6.01 2.49S3 8.23 3 10.5v1.293L.854 9.647a.5.5 0 00-.707.707l3 3a.498.498 0 00.708 0l3-3a.5.5 0 00-.707-.707l-2.146 2.146V10.5c0-4.136 3.364-7.5 7.5-7.5s7.5 3.364 7.5 7.5-3.364 7.5-7.5 7.5a.5.5 0 000 1c2.27 0 4.405-.884 6.01-2.49s2.49-3.74 2.49-6.01c0-2.27-.884-4.405-2.49-6.01z" fill="#223654"/></svg><view id="ico-archiver" viewBox="0 163 22 22"/><svg width="22" height="22" viewBox="-1 -1 22 22" id="ico-archiver-" y="163" xmlns="http://www.w3.org/2000/svg"><path d="M19.428 5.384l-2.492-4.272C16.566.478 15.734 0 15 0H5c-.734 0-1.566.478-1.936 1.112L.572 5.384C.251 5.934 0 6.863 0 7.5v3c0 .652.418 1.208 1 1.414V18.5c0 .827.673 1.5 1.5 1.5h15c.827 0 1.5-.673 1.5-1.5v-6.586c.582-.206 1-.762 1-1.414v-3c0-.637-.251-1.566-.572-2.116zm-15.5-3.768C4.116 1.294 4.627 1 5 1h10c.373 0 .884.293 1.072.616l2.492 4.272c.021.036.042.076.063.118A1.334 1.334 0 0018.5 6h-17c-.043 0-.085.002-.127.006.021-.042.042-.081.063-.118l2.492-4.272zM17.5 19h-15a.5.5 0 01-.5-.5V12h16v6.5a.5.5 0 01-.5.5zm1.5-8.5a.5.5 0 01-.5.5h-17a.5.5 0 01-.5-.5v-3a.5.5 0 01.5-.5h17a.5.5 0 01.5.5v3z" fill="#223654"/><path d="M12.5 16h-5c-.827 0-1.5-.673-1.5-1.5S6.673 13 7.5 13h5c.827 0 1.5.673 1.5 1.5s-.673 1.5-1.5 1.5zm-5-2a.5.5 0 000 1h5a.5.5 0 000-1h-5z" fill="#223654"/></svg><view id="ico-avertissement" viewBox="0 185 26 23"/><svg width="26" height="23" viewBox="-1 -1 26 23" id="ico-avertissement-" y="185" xmlns="http://www.w3.org/2000/svg"><defs><style>.afa{fill:#ad781c}</style></defs><path class="afa" d="M23.368 21H.633a.633.633 0 01-.546-.306.6.6 0 01-.005-.615L11.45.315a.638.638 0 011.1 0l11.368 19.764a.606.606 0 010 .615.632.632 0 01-.55.306zM1.712 19.765h20.574L11.999 1.878z"/><path class="afa" d="M12.001 14.934a.638.638 0 01-.638-.638V7.919a.638.638 0 011.275 0v6.377a.638.638 0 01-.637.638zM12.001 18.449a.638.638 0 01-.638-.637v-1.276a.638.638 0 011.275 0v1.276a.638.638 0 01-.637.637z"/></svg><view id="ico-bibliotheque" viewBox="0 208 26 26"/><svg width="26" height="26" fill="none" viewBox="-1 -1 26 26" id="ico-bibliotheque-" y="208" xmlns="http://www.w3.org/2000/svg"><g clip-path="url(#agclip0_369_2036)" fill="#223654"><path d="M7.197 20.4h-.6V9.6h.6a.6.6 0 000-1.2h-4.8a.6.6 0 000 1.2h.6v10.8h-.6a.6.6 0 000 1.2h4.8a.6.6 0 000-1.2zm-1.8 0h-1.2V9.6h1.2v10.8zM14.397 20.4h-.6V9.6h.6a.6.6 0 000-1.2h-4.8a.6.6 0 000 1.2h.6v10.8h-.6a.6.6 0 000 1.2h4.8a.6.6 0 000-1.2zm-1.8 0h-1.2V9.6h1.2v10.8zM21.597 20.4h-.6V9.6h.6a.6.6 0 000-1.2h-4.8a.6.6 0 000 1.2h.6v10.8h-.6a.6.6 0 000 1.2h4.8a.6.6 0 000-1.2zm-1.8 0h-1.2V9.6h1.2v10.8zM22.797 24h-21.6a.6.6 0 010-1.2h21.6a.6.6 0 010 1.2zM21.597 7.2h-19.2a.598.598 0 01-.318-1.109l9.6-6a.602.602 0 01.636 0l9.6 6a.601.601 0 01-.318 1.109zM4.488 6h15.016l-7.508-4.692L4.488 6z"/></g><defs><clipPath id="agclip0_369_2036"><path fill="#fff" transform="translate(-.003)" d="M0 0h24v24H0z"/></clipPath></defs></svg><view id="ico-bilan" viewBox="0 234 42 42"/><svg viewBox="-1 -1 42 42" width="42" height="42" id="ico-bilan-" y="234" xmlns="http://www.w3.org/2000/svg"><path fill="none" d="M0 0h40v40H0z"/><g fill="#223654"><path d="M7.48 39.38H1.36c-.57 0-1.02-.45-1.02-1.02V24.08c0-.57.45-1.02 1.02-1.02h6.12c.57 0 1.02.45 1.02 1.02v14.28c0 .57-.45 1.02-1.02 1.02zm-5.1-2.04h4.08V25.1H2.38v12.24zM17.68 39.38h-6.12c-.57 0-1.02-.45-1.02-1.02v-20.4c0-.57.45-1.02 1.02-1.02h6.12c.57 0 1.02.45 1.02 1.02v20.4c0 .57-.45 1.02-1.02 1.02zm-5.1-2.04h4.08V18.98h-4.08v18.36zM27.87 39.38h-6.12c-.57 0-1.02-.45-1.02-1.02V20c0-.57.45-1.02 1.02-1.02h6.12c.57 0 1.02.45 1.02 1.02v18.36c0 .57-.45 1.02-1.02 1.02zm-5.1-2.04h4.08V21.02h-4.08v16.32zM38.07 39.38h-6.12c-.57 0-1.02-.45-1.02-1.02V11.85c0-.57.45-1.02 1.02-1.02h6.12c.57 0 1.02.45 1.02 1.02v26.51c0 .57-.45 1.02-1.02 1.02zm-5.1-2.04h4.08V12.87h-4.08v24.48z"/><path d="M36.75.94A.998.998 0 0035.71.7l-6.12 2.04c-.53.18-.82.75-.65 1.28.18.53.75.82 1.28.65L32.24 4l-8.75 8.75c-.43.43-1.24.49-1.73.12l-4.9-3.67c-1.26-.96-3.24-.92-4.47.1l-9.65 7.89c-.43.37-.51 1-.14 1.43.2.24.49.37.8.37.22 0 .45-.08.65-.22l9.65-7.89c.51-.41 1.43-.43 1.96-.04l4.9 3.67c1.31.98 3.24.86 4.41-.31l8.77-8.75-.67 2.02a1 1 0 00.65 1.28c.1.04.22.06.33.06.43 0 .82-.27.96-.69L37.05 2c.12-.37.02-.78-.24-1.04l-.04-.02z"/></g></svg><view id="ico-burger" viewBox="0 276 22 22"/><svg width="22" height="22" viewBox="-1 -1 22 22" id="ico-burger-" y="276" xmlns="http://www.w3.org/2000/svg"><path d="M17.5 6h-15a.5.5 0 010-1h15a.5.5 0 010 1zM17.5 11h-15a.5.5 0 010-1h15a.5.5 0 010 1zM17.5 16h-15a.5.5 0 010-1h15a.5.5 0 010 1z" fill="#19406C"/></svg><view id="ico-calculatrice" viewBox="0 298 42 42.05"/><svg viewBox="-1 -1 42 42.05" width="42" height="42.05" id="ico-calculatrice-" y="298" xmlns="http://www.w3.org/2000/svg"><path fill="none" d="M0 .05h40v40H0z"/><g fill="#223654"><path d="M33.68 39.64H5.94a2.97 2.97 0 01-2.97-2.97V2.97A2.97 2.97 0 015.94 0h27.75a2.97 2.97 0 012.97 2.97v33.69a2.97 2.97 0 01-2.97 2.97zM5.94 1.98c-.55 0-.99.44-.99.99v33.69c0 .55.44.99.99.99h27.75c.55 0 .99-.44.99-.99V2.97c0-.55-.44-.99-.99-.99H5.94z"/><path d="M31.7 13.87H7.92c-.55 0-.99-.44-.99-.99V4.95c0-.55.44-.99.99-.99H31.7c.55 0 .99.44.99.99v7.93c0 .55-.44.99-.99.99zM8.91 11.89h21.8V5.94H8.91v5.95zM31.7 15.85H7.92c-.55 0-.99.44-.99.99v17.84c0 .55.44.99.99.99H31.7c.55 0 .99-.44.99-.99V16.84c0-.55-.44-.99-.99-.99zm-.99 5.95h-3.96v-3.96h3.96v3.96zm-15.85 1.98h3.96v3.96h-3.96v-3.96zm-1.98 3.96H8.92v-3.96h3.96v3.96zm1.98-5.95v-3.96h3.96v3.96h-3.96zm3.96 7.93v3.96h-3.96v-3.96h3.96zm1.98 0h3.96v3.96H20.8v-3.96zm3.96-1.98H20.8v-3.96h3.96v3.96zm-3.96-5.95v-3.96h3.96v3.96H20.8zm-7.93-3.96v3.96H8.91v-3.96h3.96zM8.91 29.72h3.96v3.96H8.91v-3.96zm17.84 3.96v-9.91h3.96v9.91h-3.96z"/></g></svg><view id="ico-calendrier" viewBox="0 341 42.13 42"/><svg viewBox="-1 -1 42.13 42" width="42.13" height="42" id="ico-calendrier-" y="341" xmlns="http://www.w3.org/2000/svg"><path fill="none" d="M.13 0h40v40h-40z"/><g fill="#223654"><path d="M36.78 3.97h-4.97v-.99c0-.56-.44-.99-.99-.99s-.99.44-.99.99v.99H9.94v-.99c0-.56-.44-.99-.99-.99s-.99.44-.99.99v.99H2.98C1.33 3.97 0 5.3 0 6.95v27.83c0 1.65 1.33 2.98 2.98 2.98h33.79c1.65 0 2.98-1.33 2.98-2.98V6.95c0-1.65-1.33-2.98-2.98-2.98zM2.98 5.96h4.97v2.98c0 .56.44.99.99.99s.99-.44.99-.99V5.96h19.88v2.98c0 .56.44.99.99.99s.99-.44.99-.99V5.96h4.97c.56 0 .99.44.99.99v4.97H1.99V6.95c0-.56.44-.99.99-.99zm33.79 29.82H2.98a.98.98 0 01-.99-.99V13.91h35.78v20.87c0 .56-.44.99-.99.99z"/><path d="M14.91 19.88h-1.99c-.56 0-.99-.44-.99-.99s.44-.99.99-.99h1.99c.56 0 .99.44.99.99s-.44.99-.99.99zM20.87 19.88h-1.99c-.56 0-.99-.44-.99-.99s.44-.99.99-.99h1.99c.56 0 .99.44.99.99s-.44.99-.99.99zM26.84 19.88h-1.99c-.56 0-.99-.44-.99-.99s.44-.99.99-.99h1.99c.56 0 .99.44.99.99s-.44.99-.99.99zM32.8 19.88h-1.99c-.56 0-.99-.44-.99-.99s.44-.99.99-.99h1.99c.56 0 .99.44.99.99s-.44.99-.99.99zM8.95 23.85H6.96c-.56 0-.99-.44-.99-.99s.44-.99.99-.99h1.99c.56 0 .99.44.99.99s-.44.99-.99.99zM14.91 23.85h-1.99c-.56 0-.99-.44-.99-.99s.44-.99.99-.99h1.99c.56 0 .99.44.99.99s-.44.99-.99.99zM20.87 23.85h-1.99c-.56 0-.99-.44-.99-.99s.44-.99.99-.99h1.99c.56 0 .99.44.99.99s-.44.99-.99.99zM26.84 23.85h-1.99c-.56 0-.99-.44-.99-.99s.44-.99.99-.99h1.99c.56 0 .99.44.99.99s-.44.99-.99.99zM32.8 23.85h-1.99c-.56 0-.99-.44-.99-.99s.44-.99.99-.99h1.99c.56 0 .99.44.99.99s-.44.99-.99.99zM8.95 27.83H6.96c-.56 0-.99-.44-.99-.99s.44-.99.99-.99h1.99c.56 0 .99.44.99.99s-.44.99-.99.99zM14.91 27.83h-1.99c-.56 0-.99-.44-.99-.99s.44-.99.99-.99h1.99c.56 0 .99.44.99.99s-.44.99-.99.99zM20.87 27.83h-1.99c-.56 0-.99-.44-.99-.99s.44-.99.99-.99h1.99c.56 0 .99.44.99.99s-.44.99-.99.99zM26.84 27.83h-1.99c-.56 0-.99-.44-.99-.99s.44-.99.99-.99h1.99c.56 0 .99.44.99.99s-.44.99-.99.99zM32.8 27.83h-1.99c-.56 0-.99-.44-.99-.99s.44-.99.99-.99h1.99c.56 0 .99.44.99.99s-.44.99-.99.99zM8.95 31.8H6.96c-.56 0-.99-.44-.99-.99s.44-.99.99-.99h1.99c.56 0 .99.44.99.99s-.44.99-.99.99zM14.91 31.8h-1.99c-.56 0-.99-.44-.99-.99s.44-.99.99-.99h1.99c.56 0 .99.44.99.99s-.44.99-.99.99zM20.87 31.8h-1.99c-.56 0-.99-.44-.99-.99s.44-.99.99-.99h1.99c.56 0 .99.44.99.99s-.44.99-.99.99zM26.84 31.8h-1.99c-.56 0-.99-.44-.99-.99s.44-.99.99-.99h1.99c.56 0 .99.44.99.99s-.44.99-.99.99zM32.8 31.8h-1.99c-.56 0-.99-.44-.99-.99s.44-.99.99-.99h1.99c.56 0 .99.44.99.99s-.44.99-.99.99z"/></g></svg><view id="ico-chevron" viewBox="0 383 15 10"/><svg width="15" height="10" viewBox="-1 -1 15 10" id="ico-chevron-" y="383" xmlns="http://www.w3.org/2000/svg"><path data-name="Tracé 700" d="M7.203.667l5.8 5.722-1.4 1.61-5.1-5.03-5.1 5.03-1.4-1.61 5.8-5.722.7-.667z" fill="#223654"/></svg><view id="ico-chevron-cercle" viewBox="0 393 22 22"/><svg width="22" height="22" viewBox="-1 -1 22 22" id="ico-chevron-cercle-" y="393" xmlns="http://www.w3.org/2000/svg"><path d="M16.218 3.782C14.424 1.988 12.038 1 9.5 1s-4.923.988-6.718 2.782S0 7.962 0 10.499s.988 4.923 2.782 6.718 4.18 2.782 6.718 2.782 4.923-.988 6.718-2.782S19 13.037 19 10.499s-.988-4.923-2.782-6.717zM9.5 19C4.813 19 1 15.187 1 10.5S4.813 2 9.5 2c4.687 0 8.5 3.813 8.5 8.5S14.187 19 9.5 19z" fill="#223654"/><path d="M8 16a.5.5 0 01-.354-.853l4.646-4.646-4.646-4.646a.5.5 0 01.707-.707l5 5a.5.5 0 010 .707l-5 5a.498.498 0 01-.354.146z" fill="#223654"/></svg><view id="ico-clipboard" viewBox="0 415 22 22"/><svg width="22" height="22" viewBox="-1 -1 22 22" id="ico-clipboard-" y="415" xmlns="http://www.w3.org/2000/svg"><path d="M16.5 20h-14c-.827 0-1.5-.673-1.5-1.5v-14C1 3.673 1.673 3 2.5 3h1a.5.5 0 010 1h-1a.5.5 0 00-.5.5v14a.5.5 0 00.5.5h14a.5.5 0 00.5-.5v-14a.5.5 0 00-.5-.5h-1a.5.5 0 010-1h1c.827 0 1.5.673 1.5 1.5v14c0 .827-.673 1.5-1.5 1.5z" fill="#095797"/><path d="M13.501 5H5.5a.5.5 0 01-.5-.5c0-1.005.453-1.786 1.276-2.197.275-.138.547-.213.764-.254C7.253.885 8.275 0 9.499 0s2.246.885 2.459 2.049c.218.041.489.116.764.254.816.408 1.268 1.178 1.276 2.17l.001.027a.5.5 0 01-.5.5zM6.06 4h6.88a1.21 1.21 0 00-.638-.79c-.389-.203-.8-.21-.805-.21A.498.498 0 0111 2.5c0-.827-.673-1.5-1.5-1.5S8 1.673 8 2.5a.5.5 0 01-.5.5c-.001 0-.413.007-.802.21A1.208 1.208 0 006.06 4z" fill="#095797"/><path d="M9.5 3c-.132 0-.261-.053-.353-.147S9 2.631 9 2.5a.498.498 0 01.5-.5.498.498 0 01.5.5.5.5 0 01-.5.5z" fill="#095797"/></svg><view id="ico-code" viewBox="0 437 22 22"/><svg id="ico-code-" data-name="Calque 2" viewBox="-1 -1 22 22" width="22" height="22" y="437" xmlns="http://www.w3.org/2000/svg"><defs><style>.aocls-1,.aocls-2{fill:none;stroke-width:0}.aocls-2{fill:#223654}</style></defs><path class="aocls-1" d="M0 0h20v20H0z" id="aoCalque_2-2" data-name="Calque 2"/><g id="aoCalque_1-2" data-name="Calque 1"><path class="aocls-2" d="M4.94 15a.48.48 0 01-.36-.16L.53 10.39c-.2-.22-.2-.57 0-.78l4.06-4.44c.2-.22.52-.22.72 0 .2.22.2.57 0 .79l-3.7 4.05 3.7 4.05c.2.22.2.57 0 .79a.48.48 0 01-.36.16zM15.08 15a.48.48 0 01-.36-.16c-.2-.22-.2-.57 0-.79l3.7-4.05-3.7-4.05c-.2-.22-.2-.57 0-.79.2-.22.52-.22.72 0L19.5 9.6c.2.22.2.57 0 .79l-4.06 4.44a.48.48 0 01-.36.16zM7.48 15a.56.56 0 01-.27-.08c-.24-.16-.31-.51-.16-.77l5.07-8.89c.15-.26.46-.34.7-.18.24.16.31.51.16.77l-5.07 8.89c-.1.17-.26.26-.43.26z"/></g></svg><view id="ico-code-fichier" viewBox="0 459 22 22"/><svg width="22" height="22" viewBox="-1 -1 22 22" id="ico-code-fichier-" y="459" xmlns="http://www.w3.org/2000/svg"><path d="M17.854 5.646l-4.5-4.5A.5.5 0 0013 1H3.5C2.673 1 2 1.673 2 2.5v16c0 .827.673 1.5 1.5 1.5h13c.827 0 1.5-.673 1.5-1.5V6a.504.504 0 00-.146-.354zM16.793 6H13.5a.5.5 0 01-.5-.5V2.207L16.793 6zM16.5 19h-13a.5.5 0 01-.5-.5v-16a.5.5 0 01.5-.5H12v3.5c0 .827.673 1.5 1.5 1.5H17v11.5a.5.5 0 01-.5.5z" fill="#223654"/><path d="M7 17a.502.502 0 01-.354-.146l-2-2a.5.5 0 010-.707l2-2a.5.5 0 01.707.707L5.707 14.5l1.646 1.646a.5.5 0 01-.354.853zM9.5 17a.5.5 0 01-.488-.612l.914-4a.5.5 0 01.975.223l-.914 4A.5.5 0 019.5 17zM13 17a.5.5 0 01-.354-.853l1.646-1.646-1.646-1.646a.5.5 0 01.707-.707l2 2a.5.5 0 010 .707l-2 2a.498.498 0 01-.354.146z" fill="#223654"/></svg><view id="ico-copier" viewBox="0 481 22 22"/><svg width="22" height="22" viewBox="-1 -1 22 22" id="ico-copier-" y="481" xmlns="http://www.w3.org/2000/svg"><path d="M16.5 4H14V1.5c0-.827-.673-1.5-1.5-1.5H5a.504.504 0 00-.354.146l-3.5 3.5A.5.5 0 001 4v10.5c0 .827.673 1.5 1.5 1.5H5v2.5c0 .827.673 1.5 1.5 1.5h10c.827 0 1.5-.673 1.5-1.5v-13c0-.827-.673-1.5-1.5-1.5zM5 1.207V3.5a.5.5 0 01-.5.5H2.207L5 1.207zM2.5 15a.5.5 0 01-.5-.5V5h2.5C5.327 5 6 4.327 6 3.5V1h6.5a.5.5 0 01.5.5V4H9a.504.504 0 00-.354.146l-3.5 3.5A.5.5 0 005 8v7H2.5zM9 5.207V7.5a.5.5 0 01-.5.5H6.207L9 5.207zM17 18.5a.5.5 0 01-.5.5h-10a.5.5 0 01-.5-.5V9h2.5c.827 0 1.5-.673 1.5-1.5V5h6.5a.5.5 0 01.5.5v13z" fill="#223654"/></svg><view id="ico-crayon" viewBox="0 503 22 22"/><svg width="22" height="22" viewBox="-1 -1 22 22" id="ico-crayon-" y="503" xmlns="http://www.w3.org/2000/svg"><path d="M19.104.896C18.542.334 17.795.025 17 .025s-1.542.309-2.104.871l-12.75 12.75a.496.496 0 00-.116.183l-2 5.5a.5.5 0 00.641.64l5.5-2a.51.51 0 00.183-.116l12.75-12.75c.562-.562.871-1.309.871-2.104s-.309-1.542-.871-2.104zM5.725 17.068l-4.389 1.596 1.596-4.389L14 3.207 16.793 6 5.725 17.068zM18.396 4.396l-.896.896-2.793-2.793.896-.896c.373-.373.869-.578 1.396-.578s1.023.205 1.396.578.578.869.578 1.396-.205 1.023-.578 1.396z" fill="#223654"/></svg><view id="ico-crochet" viewBox="0 525 22 22"/><svg width="22" height="22" viewBox="-1 -1 22 22" id="ico-crochet-" y="525" xmlns="http://www.w3.org/2000/svg"><path d="M5.5 17.5a.502.502 0 01-.354-.146l-5-5a.5.5 0 01.707-.707l4.646 4.646L19.145 2.647a.5.5 0 01.707.707l-14 14a.498.498 0 01-.354.146z" fill="#223654"/></svg><view id="ico-doc-supprime" viewBox="0 547 21.35 21.35"/><svg viewBox="-1 -1 21.35 21.35" width="21.35" height="21.35" id="ico-doc-supprime-" y="547" xmlns="http://www.w3.org/2000/svg"><path d="M16.22 16.32l-1.71-1.71 1.71-1.71c.19-.19.19-.49 0-.68s-.49-.19-.68 0l-1.71 1.71-1.71-1.71c-.19-.19-.5-.19-.68 0s-.19.49 0 .68l1.71 1.71-1.71 1.71c-.19.19-.19.49 0 .68s.5.19.68 0l1.71-1.71L15.54 17c.19.19.5.19.68 0s.19-.5 0-.68zM15.01 18.57h.39c.68 0 1.25-.48 1.41-1.11-.49.51-1.11.89-1.8 1.11z" fill="#223654"/><path d="M2.83 17.6a.48.48 0 01-.48-.48V1.65c0-.27.22-.48.48-.48h8.22v3.38c0 .8.65 1.45 1.45 1.45h3.38v4.9c.36.21.69.47.97.78V5.04c0-.13-.05-.25-.14-.34L12.36.34a.476.476 0 00-.34-.14H2.83c-.8 0-1.45.65-1.45 1.45v15.47c0 .8.65 1.45 1.45 1.45h9.63a4.21 4.21 0 01-1.66-.97H2.83zm9.19-16.23l3.67 3.67h-3.18a.48.48 0 01-.48-.48V1.37z" fill="#223654"/><path d="M13.74 19.28c-.45 0-.91-.08-1.42-.24-.71-.23-1.34-.59-1.85-1.08A4.691 4.691 0 019 14.54c0-2.62 2.13-4.74 4.74-4.74.84 0 1.65.23 2.4.67a4.746 4.746 0 012.34 4.07c0 1.18-.47 2.37-1.31 3.26-.54.57-1.24 1-2.01 1.24-.51.16-.97.24-1.42.24zm0-8.49c-2.06 0-3.74 1.68-3.74 3.74 0 1.02.41 1.98 1.16 2.7.4.39.9.67 1.46.85.83.26 1.41.26 2.24 0 .61-.19 1.16-.53 1.59-.98.67-.7 1.04-1.62 1.04-2.57s-.35-1.83-1-2.53c-.24-.26-.53-.5-.85-.69-.6-.35-1.23-.53-1.89-.53z" fill="#223654"/><path fill="none" d="M0 0h19.35v19.35H0z"/></svg><view id="ico-docs-selectionnes" viewBox="0 569 22 22.05"/><svg viewBox="-1 -1 22 22.05" width="22" height="22.05" id="ico-docs-selectionnes-" y="569" xmlns="http://www.w3.org/2000/svg"><path d="M16.59 4.05h-.5v-.5c0-.83-.67-1.5-1.5-1.5h-.5v-.5c0-.83-.67-1.5-1.5-1.5h-7.5a.47.47 0 00-.35.15L1.23 3.7a.51.51 0 00-.15.35v10.5c0 .83.67 1.5 1.5 1.5h.5v.5c0 .83.67 1.5 1.5 1.5h.5v.5c0 .83.67 1.5 1.5 1.5h10c.83 0 1.5-.67 1.5-1.5v-13c0-.83-.67-1.5-1.5-1.5zM5.09 1.26v2.29c0 .28-.22.5-.5.5H2.3l2.79-2.79zm-3 13.29v-9.5h2.5c.83 0 1.5-.67 1.5-1.5v-2.5h6.5c.28 0 .5.22.5.5v13c0 .28-.22.5-.5.5h-10c-.28 0-.5-.22-.5-.5zm2 2v-.5h8.5c.83 0 1.5-.67 1.5-1.5V3.05h.5c.28 0 .5.22.5.5v13c0 .28-.22.5-.5.5h-10c-.28 0-.5-.22-.5-.5zm13 2c0 .28-.22.5-.5.5h-10c-.28 0-.5-.22-.5-.5v-.5h8.5c.83 0 1.5-.67 1.5-1.5V5.05h.5c.28 0 .5.22.5.5v13z" fill="#223654"/><path d="M6.12 12.26a.47.47 0 01-.35-.15l-2-2a.513.513 0 010-.71c.19-.19.51-.19.71 0l1.65 1.65 4.65-4.65c.2-.19.51-.19.71 0s.2.51 0 .71l-5 5c-.1.1-.23.15-.35.15z" fill="#223654"/><path fill="none" d="M0 0h20v20H0z"/></svg><view id="ico-document" viewBox="0 592 42 42.14"/><svg viewBox="-1 -1 42 42.14" width="42" height="42.14" id="ico-document-" y="592" xmlns="http://www.w3.org/2000/svg"><path fill="none" d="M0 .14h40v40H0z"/><path d="M36.65 9.78L27.17.31c-.19-.2-.46-.31-.74-.31h-20C4.69 0 3.28 1.42 3.27 3.16v33.68c0 1.74 1.42 3.15 3.16 3.16H33.8c1.74 0 3.15-1.42 3.15-3.16V10.53c0-.28-.11-.55-.3-.75zm-2.24.75h-6.93c-.58 0-1.05-.48-1.05-1.06V2.54l7.98 7.99zm.44 26.31c0 .55-.45 1-1 1H6.43c-.55.03-1.02-.4-1.05-.95V3.16c-.03-.55.4-1.02.95-1.05H24.32v7.36c0 1.74 1.42 3.15 3.16 3.16h7.37v24.21z" fill="#223654"/><path fill="none" stroke="#223654" stroke-miterlimit="10" stroke-width="2" d="M9.21 17.45h21.82M9.21 21.98h21.82M9.21 26.44h21.82M9.21 31.6h21.82"/></svg><view id="ico-dossier-document" viewBox="0 635 42 42"/><svg viewBox="-1 -1 42 42" width="42" height="42" id="ico-dossier-document-" y="635" xmlns="http://www.w3.org/2000/svg"><path fill="none" d="M0 0h40v40H0z"/><g fill="#223654"><path d="M10.54 12.45c0-.61.49-1.12-.13-1.12H3.45c-1.85 0-3.36 1.51-3.36 3.36v20.13c0 1.85 1.51 3.36 3.36 3.36H30.3c1.66 0 3.49-1.2 4.15-2.73l4.94-11.55c.17-.4.26-.8.26-1.19 0-.48-.13-.93-.39-1.32-.47-.7-1.29-1.11-2.26-1.11h-3.36v-5.6c0-1.85-1.51-3.36-3.36-3.36h-.03c-.61 0-.13.51-.13 1.12s-.49 1.12.13 1.12h.03c.61 0 1.12.51 1.12 1.12v5.6H10.16c-1.66 0-3.49 1.2-4.14 2.73l-3.69 8.6V14.69c0-.61.51-1.12 1.12-1.12h6.97M8.07 23.9c.31-.72 1.31-1.38 2.09-1.38h26.85c.23 0 .37.06.39.1s.03.18-.06.4l-4.95 11.55c-.31.72-1.3 1.38-2.09 1.38H3.45c-.18 0-.35-.04-.5-.11l5.11-11.93z"/><path d="M28.55 21.56l-16.93-.25c-1.08-.02-1.94-.72-1.93-1.59l.24-16.57c0-.85.9-1.54 1.98-1.52l16.93.25c1.08.02 1.94.72 1.93 1.59l-.24 16.57c0 .85-.9 1.54-1.97 1.53zM11.79 3.63c-.36 0-.65.23-.65.52v16.38c0 .28.29.52.65.52h16.9c.36 0 .65-.23.65-.52V4.14c0-.29-.29-.52-.65-.52h-16.9z"/><path d="M23.48 6.98h-9.12c-.36 0-.65-.29-.65-.65s.29-.65.65-.65h9.12c.36 0 .65.29.65.65s-.3.65-.65.65zM26.09 9.58H14.37c-.36 0-.65-.29-.65-.65s.29-.65.65-.65h11.72c.36 0 .65.29.65.65s-.3.65-.65.65zM26.09 12.19H14.37c-.36 0-.65-.29-.65-.65s.29-.65.65-.65h11.72c.36 0 .65.29.65.65s-.3.65-.65.65zM20.88 14.8h-6.51c-.36 0-.65-.3-.65-.65s.29-.65.65-.65h6.51c.36 0 .65.29.65.65s-.3.65-.65.65zM23.48 19.02h-9.12c-.36 0-.65-.3-.65-.65s.29-.65.65-.65h9.12c.36 0 .65.3.65.65s-.3.65-.65.65z"/></g></svg><view id="ico-dossier-utilisateur" viewBox="0 677 42 42"/><svg viewBox="-1 -1 42 42" width="42" height="42" id="ico-dossier-utilisateur-" y="677" xmlns="http://www.w3.org/2000/svg"><path fill="none" d="M0 0h40v40H0z"/><g fill="#223654"><path d="M36.63 35.02H3.15C1.52 35.02.2 33.7.2 32.07V11.39c0-.69.24-1.69.55-2.3L1.83 6.9c.41-.81 1.4-1.42 2.3-1.42h13.78c.91 0 1.89.61 2.3 1.42l1.08 2.19c.08.16.37.33.55.33h14.77c1.63 0 2.95 1.32 2.95 2.95v19.69c0 1.63-1.32 2.95-2.95 2.95zM4.14 7.45c-.18 0-.47.18-.55.33L2.51 9.97c-.18.35-.33 1.04-.33 1.42v20.68c0 .55.43.98.98.98h33.47c.55 0 .98-.43.98-.98v-19.7c0-.55-.43-.98-.98-.98H21.86c-.91 0-1.91-.61-2.3-1.42l-1.08-2.19c-.08-.16-.37-.33-.55-.33H4.15z"/><path d="M25.8 28.07c0-.33-.08-1.79-.69-3.27-.41-1-1-1.83-1.75-2.42-.2-.16-.39-.3-.59-.41.67-.71 1.08-1.65 1.08-2.7 0-2.17-1.77-3.94-3.94-3.94s-3.94 1.77-3.94 3.94c0 1.04.41 1.99 1.08 2.7-.2.12-.41.26-.59.41-.75.59-1.34 1.42-1.75 2.42-.69 1.63-.69 3.27-.69 3.33 0 .55.43.98.98.98h9.85c.55 0 .98-.43.98-.98v-.06h-.04zm-7.88-8.8c0-1.08.89-1.97 1.97-1.97s1.97.89 1.97 1.97-.89 1.97-1.97 1.97-1.97-.89-1.97-1.97zm-1.87 7.88c.08-.45.22-1.02.43-1.59.65-1.58 1.77-2.34 3.41-2.34 2.82 0 3.62 2.5 3.84 3.94h-7.68z"/></g></svg><view id="ico-edifices" viewBox="0 719 42 42"/><svg viewBox="-1 -1 42 42" width="42" height="42" id="ico-edifices-" y="719" xmlns="http://www.w3.org/2000/svg"><path fill="none" d="M0 0h40v40H0z"/><g fill="#223654"><path d="M19.2 19.86h1.98v1.98H19.2v-1.98zM23.16 19.86h1.98v1.98h-1.98v-1.98zM27.11 19.86h1.98v1.98h-1.98v-1.98zM31.06 19.86h1.98v1.98h-1.98v-1.98zM19.2 25.79h1.98v1.98H19.2v-1.98zM23.16 25.79h1.98v1.98h-1.98v-1.98zM27.11 25.79h1.98v1.98h-1.98v-1.98zM31.06 25.79h1.98v1.98h-1.98v-1.98zM19.2 31.72h1.98v1.98H19.2v-1.98zM23.16 31.72h1.98v1.98h-1.98v-1.98zM27.11 31.72h1.98v1.98h-1.98v-1.98zM31.06 31.72h1.98v1.98h-1.98v-1.98z"/><path d="M36 13.94h-.99V9c0-.26-.1-.51-.3-.69l-3.65-3.65V1.1c0-.55-.43-.99-.99-.99s-.99.43-.99.99v3.54l-3.65 3.65c-.18.18-.3.43-.3.69v.99h-3.95V5.03a.98.98 0 00-.99-.99H4.39a.98.98 0 00-.99.99v33.58c0 .55.43.99.99.99H36c.55 0 .99-.43.99-.99V14.93a.98.98 0 00-.99-.99zm-8.89-4.52l2.96-2.96 2.96 2.96v4.52h-1.98v-2.96a.98.98 0 00-.99-.99H27.1v-.57zm1.98 2.55v1.98h-7.9v-1.98h7.9zm-13.83 2.96v22.72H5.38V6.04h13.83v7.9h-2.96a.98.98 0 00-.99.99zm19.76 22.72H17.24V15.91h17.78v21.73z"/><path d="M15.25 8.01h1.98v3.95h-1.98V8.01zM11.3 8.01h1.98v3.95H11.3V8.01zM7.35 8.01h1.98v3.95H7.35V8.01zM7.35 13.94h1.98v3.95H7.35v-3.95zM11.3 13.94h1.98v3.95H11.3v-3.95zM7.35 19.86h1.98v3.95H7.35v-3.95zM11.3 19.86h1.98v3.95H11.3v-3.95zM7.35 25.79h1.98v3.95H7.35v-3.95zM11.3 25.79h1.98v3.95H11.3v-3.95zM7.35 31.72h1.98v3.95H7.35v-3.95zM11.3 31.72h1.98v3.95H11.3v-3.95z"/></g></svg><view id="ico-enregistrer" viewBox="0 761 22 22"/><svg width="22" height="22" viewBox="-1 -1 22 22" id="ico-enregistrer-" y="761" xmlns="http://www.w3.org/2000/svg"><path d="M13.5 6h-2a.5.5 0 01-.5-.5v-3a.5.5 0 01.5-.5h2a.5.5 0 01.5.5v3a.5.5 0 01-.5.5zM12 5h1V3h-1v2z" fill="#223654"/><path d="M19.854 2.646l-2.5-2.5A.5.5 0 0017 0H.5a.5.5 0 00-.5.5v19a.5.5 0 00.5.5h19a.5.5 0 00.5-.5V3a.504.504 0 00-.146-.354zM6 1h9v6H6V1zm10 18H4v-8h12v8zm3 0h-2v-8.5a.5.5 0 00-.5-.5h-13a.5.5 0 00-.5.5V19H1V1h4v6.5a.5.5 0 00.5.5h10a.5.5 0 00.5-.5V1h.793L19 3.207V19z" fill="#223654"/></svg><view id="ico-enveloppe" viewBox="0 783 22 22"/><svg width="22" height="22" viewBox="-1 -1 22 22" id="ico-enveloppe-" y="783" xmlns="http://www.w3.org/2000/svg"><path d="M17.5 6h-16C.673 6 0 6.673 0 7.5v9c0 .827.673 1.5 1.5 1.5h16c.827 0 1.5-.673 1.5-1.5v-9c0-.827-.673-1.5-1.5-1.5zm0 1c.03 0 .058.003.087.008l-7.532 5.021c-.29.193-.819.193-1.109 0L1.414 7.008A.494.494 0 011.501 7h16zm0 10h-16a.5.5 0 01-.5-.5V7.934l7.391 4.927c.311.207.71.311 1.109.311s.798-.104 1.109-.311L18 7.934V16.5a.5.5 0 01-.5.5z" fill="#223654"/></svg><view id="ico-erreur" viewBox="0 805 26 26"/><svg width="26" height="26" viewBox="-1 -1 26 26" id="ico-erreur-" y="805" xmlns="http://www.w3.org/2000/svg"><defs><style>.bba{fill:#cb381f}</style></defs><path class="bba" d="M17.885 16.763l-4.969-4.762 4.969-4.763a.7.7 0 00.051-.928.579.579 0 00-.86-.055L12 11.122 6.924 6.255a.579.579 0 00-.86.055.693.693 0 00.051.928l4.969 4.763-4.969 4.762a.7.7 0 00-.051.928.578.578 0 00.86.055L12 12.879l5.076 4.867a.579.579 0 00.4.166.59.59 0 00.455-.221.694.694 0 00-.046-.928z"/><path class="bba" d="M11.998 23.999a12 12 0 118.486-3.514 11.926 11.926 0 01-8.486 3.514zm0-22.737a10.737 10.737 0 1010.739 10.737A10.749 10.749 0 0011.998 1.263z"/></svg><view id="ico-facturation" viewBox="0 831 42 42"/><svg viewBox="-1 -1 42 42" width="42" height="42" id="ico-facturation-" y="831" xmlns="http://www.w3.org/2000/svg"><path fill="none" d="M0 0h40v40H0z"/><g fill="#223654"><path d="M38.47 35.43H1.19c-.58 0-1.04-.46-1.04-1.04V13.68c0-.58.46-1.04 1.04-1.04h37.28c.58 0 1.04.46 1.04 1.04v20.71c0 .58-.46 1.04-1.04 1.04zM2.23 33.36h35.21V14.72H2.23v18.64z"/><path d="M23.97 23h-7.25v-2.07h7.25c.58 0 1.04-.46 1.04-1.04s-.46-1.04-1.04-1.04h-3.11v-1.04c0-.58-.46-1.04-1.04-1.04s-1.04.46-1.04 1.04v1.04h-3.11c-.58 0-1.04.46-1.04 1.04v4.14c0 .58.46 1.04 1.04 1.04h7.25v2.07h-7.25c-.58 0-1.04.46-1.04 1.04s.46 1.04 1.04 1.04h3.11v1.04c0 .58.46 1.04 1.04 1.04s1.04-.46 1.04-1.04v-1.04h3.11c.58 0 1.04-.46 1.04-1.04v-4.14c0-.58-.46-1.04-1.04-1.04zM36.4 10.58H3.26c-.58 0-1.04-.46-1.04-1.04S2.68 8.5 3.26 8.5h33.13c.58 0 1.04.46 1.04 1.04s-.46 1.04-1.04 1.04zM34.32 6.43H5.33c-.58 0-1.04-.46-1.04-1.04s.46-1.04 1.04-1.04h28.99c.58 0 1.04.46 1.04 1.04s-.46 1.04-1.04 1.04z"/></g></svg><view id="ico-fichiers" viewBox="0 873 26 26"/><svg width="26" height="26" fill="none" viewBox="-1 -1 26 26" id="ico-fichiers-" y="873" xmlns="http://www.w3.org/2000/svg"><path d="M20.07 4.8h-.576v-.6c0-.992-.776-1.8-1.73-1.8h-.576v-.6c0-.992-.776-1.8-1.73-1.8H6.813a.57.57 0 00-.408.175l-4.036 4.2A.612.612 0 002.2 4.8v12.6c0 .992.776 1.8 1.73 1.8h.576v.6c0 .992.776 1.8 1.73 1.8h.576v.6c0 .992.776 1.8 1.73 1.8H20.07c.954 0 1.73-.808 1.73-1.8V6.6c0-.992-.776-1.8-1.73-1.8zM6.813 1.448V4.2c0 .331-.259.6-.577.6H3.592l3.22-3.352zM3.352 17.4V6h2.883c.954 0 1.73-.808 1.73-1.8v-3h7.494c.318 0 .576.269.576.6v15.6c0 .331-.258.6-.576.6H3.929a.589.589 0 01-.576-.6zm2.307 2.4v-.6h9.8c.953 0 1.73-.808 1.73-1.8V3.6h.576c.318 0 .576.269.576.6v15.6c0 .331-.258.6-.576.6H6.235a.589.589 0 01-.576-.6zm14.988 2.4c0 .331-.258.6-.576.6H8.54a.589.589 0 01-.576-.6v-.6h9.8c.953 0 1.73-.808 1.73-1.8V6h.575c.319 0 .577.269.577.6v15.6z" fill="#223654"/></svg><view id="ico-fleche" viewBox="0 899 18 18.16"/><svg id="ico-fleche-" data-name="Calque 2" viewBox="-1 -1 18 18.16" width="18" height="18.16" y="899" xmlns="http://www.w3.org/2000/svg"><defs><style>.becls-1,.becls-2{fill:#223654;stroke-width:0}.becls-2{fill:none}</style></defs><g id="beCalque_1-2" data-name="Calque 1"><path id="befleche-precedent" class="becls-1" d="M8.79.33s.03.01.04.03l5.32 4.99c.39.36.42.97.06 1.36l-.06.06c-.43.39-1.09.39-1.52 0L9.08 3.44v11.7a1.078 1.078 0 01-2.15 0V3.45L3.38 6.78c-.43.39-1.09.39-1.52 0a.964.964 0 01-.06-1.36l.06-.06 5.31-5s.03-.02.04-.03c.42-.44 1.12-.45 1.55-.02l.02.02z"/><path class="becls-2" d="M0 0h16v16.16H0z"/></g></svg><view id="ico-fleche-cercle" viewBox="0 918 22 22"/><svg width="22" height="22" viewBox="-1 -1 22 22" id="ico-fleche-cercle-" y="918" xmlns="http://www.w3.org/2000/svg"><path d="M16.218 3.782C14.424 1.988 12.038 1 9.5 1s-4.923.988-6.718 2.782S0 7.962 0 10.499s.988 4.923 2.782 6.718 4.18 2.782 6.718 2.782 4.923-.988 6.718-2.782S19 13.037 19 10.499s-.988-4.923-2.782-6.717zM9.5 19C4.813 19 1 15.187 1 10.5S4.813 2 9.5 2c4.687 0 8.5 3.813 8.5 8.5S14.187 19 9.5 19z" fill="#223654"/><path d="M15.353 10.147l-4-4a.5.5 0 00-.707.707L13.793 10H3.5a.5.5 0 000 1h10.293l-3.146 3.147a.5.5 0 00.706.706l4-4a.5.5 0 000-.707z" fill="#223654"/></svg><view id="ico-fleche-deux-pointes" viewBox="0 940 18 18"/><svg id="ico-fleche-deux-pointes-" data-name="Calque 2" viewBox="-1 -1 18 18" width="18" height="18" y="940" xmlns="http://www.w3.org/2000/svg"><defs><style>.bgcls-1,.bgcls-2{fill:#223654;stroke-width:0}.bgcls-2{fill:none}</style></defs><g id="bgCalque_1-2" data-name="Calque 1"><path class="bgcls-2" d="M0 0h16v16H0z"/><path id="bgTracé_977" data-name="Tracé 977" class="bgcls-1" d="M11.29 10.29L9 12.58V3.41l2.29 2.29c.4.38 1.03.37 1.41-.02.37-.39.37-1 0-1.39l-3.99-4a.996.996 0 00-1.41 0l-4.01 4c-.38.4-.37 1.03.02 1.41.39.37 1 .37 1.39 0l2.29-2.29v9.17L4.7 10.29c-.4-.38-1.03-.37-1.41.02-.37.39-.37 1 0 1.39l4 4c.39.39 1.02.39 1.41 0l4-4c.38-.4.37-1.03-.02-1.41-.39-.37-1-.37-1.39 0"/></g></svg><view id="ico-gouv-parle" viewBox="0 958 42 42"/><svg viewBox="-1 -1 42 42" width="42" height="42" id="ico-gouv-parle-" y="958" xmlns="http://www.w3.org/2000/svg"><path fill="none" d="M0 0h40v40H0z"/><g fill="#223654"><path d="M20.66 18.04c-.23 0-.42-.15-.48-.35-.06-.21.03-.43.23-.54 1.71-.98 2.42-2.38 2.67-3.04-1.86-1.35-2.92-3.22-2.92-5.17 0-.99.26-1.94.78-2.85.49-.86 1.19-1.63 2.09-2.29 1.8-1.33 4.21-2.07 6.75-2.07s4.93.74 6.75 2.07c.9.66 1.6 1.43 2.09 2.29.51.9.78 1.85.78 2.85s-.26 1.94-.78 2.85c-.49.86-1.19 1.63-2.09 2.29-1.8 1.33-4.21 2.07-6.75 2.07-1.04 0-2.07-.13-3.05-.36-.43.28-1.24.76-2.22 1.22-1.51.71-2.8 1.07-3.83 1.07v-.02zm9.1-15.35c-4.74 0-8.59 2.8-8.59 6.24 0 1.74 1.01 3.42 2.79 4.59.18.12.26.33.2.51-.12.41-.52 1.57-1.6 2.67 1.32-.43 2.74-1.19 3.78-1.88.13-.08.28-.11.42-.07.96.26 1.97.39 3 .39 4.74 0 8.59-2.8 8.59-6.24s-3.86-6.22-8.6-6.22z"/><path d="M11.55 23.41c.95 2.01.5 5.48.5 5.48h-1.5c-.5-14.93-15.43-6.47-7.47 0-1.5-5.97 6.47-4.48 5.48 0H6.07v1.99h5.48c-.99 2.49-4.05 2.56-3.49 2.98 1.99 1.5 3.49.5 3.49.5-.5 1.5.99 3.49 1.5 3.49V10.47c-2.6 2.43-5.48 4.48-1.5 12.94h0zM15.69 28.88h-1.5s-.45-3.46.5-5.48c3.98-8.46 1.11-10.51-1.5-12.94v27.37c.5 0 1.99-1.99 1.5-3.49 0 0 1.5.99 3.49-.5.56-.42-2.49-.5-3.49-2.98h5.48v-1.99h-2.49c-.99-4.48 6.96-5.97 5.48 0 7.96-6.47-6.96-14.93-7.47 0h0z" stroke="#223654" stroke-miterlimit="10" stroke-width=".5"/></g></svg><view id="ico-imprimante" viewBox="0 1000 22 22"/><svg width="22" height="22" viewBox="-1 -1 22 22" id="ico-imprimante-" y="1000" xmlns="http://www.w3.org/2000/svg"><path d="M18.5 4H17V1.5c0-.827-.673-1.5-1.5-1.5h-11C3.673 0 3 .673 3 1.5V4H1.5C.673 4 0 4.673 0 5.5v9c0 .827.673 1.5 1.5 1.5H3v2.5c0 .827.673 1.5 1.5 1.5h11c.827 0 1.5-.673 1.5-1.5V16h1.5c.827 0 1.5-.673 1.5-1.5v-9c0-.827-.673-1.5-1.5-1.5zM4 1.5a.5.5 0 01.5-.5h11a.5.5 0 01.5.5V4H4V1.5zM15.5 19h-11a.5.5 0 01-.5-.5V12h12v6.5a.5.5 0 01-.5.5zm3.5-4.5a.5.5 0 01-.5.5H17v-3h.5a.5.5 0 000-1h-15a.5.5 0 000 1H3v3H1.5a.5.5 0 01-.5-.5v-9a.5.5 0 01.5-.5h17a.5.5 0 01.5.5v9z" fill="#223654"/><path d="M14.5 14h-9a.5.5 0 010-1h9a.5.5 0 010 1zM14.5 16h-9a.5.5 0 010-1h9a.5.5 0 010 1zM14.5 18h-9a.5.5 0 010-1h9a.5.5 0 010 1zM16.5 9c-.827 0-1.5-.673-1.5-1.5S15.673 6 16.5 6s1.5.673 1.5 1.5S17.327 9 16.5 9zm0-2a.5.5 0 100 1 .5.5 0 000-1z" fill="#223654"/></svg><view id="ico-information" viewBox="0 1022 21.25 21.25"/><svg viewBox="-1 -1 21.25 21.25" width="21.25" height="21.25" id="ico-information-" y="1022" xmlns="http://www.w3.org/2000/svg"><defs><style>.bjcls-1{fill:#095797;stroke:#095797;stroke-miterlimit:10;stroke-width:.25px}</style></defs><g id="bjCalque_2" data-name="Calque 2"><g id="bjLayer_1" data-name="Layer 1"><path class="bjcls-1" d="M2.91 16.34a9.5 9.5 0 0013.43 0 9.48 9.48 0 000-13.43 9.5 9.5 0 00-13.43 0 9.5 9.5 0 000 13.43zM9.63 1.12a8.5 8.5 0 11-8.5 8.5 8.52 8.52 0 018.5-8.5z"/><path class="bjcls-1" d="M9.63 4.12a.51.51 0 01.5.5v1a.5.5 0 01-.5.5.5.5 0 01-.5-.5v-1a.5.5 0 01.5-.5zM9.63 7.12a.51.51 0 01.5.5v7a.5.5 0 01-.5.5.5.5 0 01-.5-.5v-7a.5.5 0 01.5-.5z"/></g></g></svg><view id="ico-instructions" viewBox="0 1044 26 26"/><svg width="26" height="26" fill="none" viewBox="-1 -1 26 26" id="ico-instructions-" y="1044" xmlns="http://www.w3.org/2000/svg"><path d="M18.667 21.474H5.333c-.373 0-.666-.278-.666-.632s.293-.631.666-.631h13.334c.373 0 .666.277.666.631s-.293.632-.666.632z" fill="#223654"/><path d="M21.333 2.526c-.373 0-.666.278-.666.632v18.947c0 .354-.294.632-.667.632H5.333c-1.106 0-2-.846-2-1.895 0-1.048.894-1.895 2-1.895h12c1.107 0 2-.846 2-1.894V1.895c0-1.049-.893-1.895-2-1.895H4C2.893 0 2 .846 2 1.895v18.947C2 22.585 3.493 24 5.333 24H20c1.107 0 2-.846 2-1.895V3.158c0-.354-.293-.632-.667-.632zM4 1.263h13.333c.374 0 .667.278.667.632v15.158c0 .353-.293.631-.667.631h-12c-.746 0-1.44.24-2 .632V1.895c0-.354.294-.632.667-.632z" fill="#223654"/><path d="M10.107 15.07V6.801h1.341v8.268h-1.34zm.682-9.646a.982.982 0 01-.676-.253.793.793 0 01-.278-.609c0-.237.092-.44.278-.608a.982.982 0 01.676-.253c.261 0 .485.084.67.253.19.169.285.371.285.608s-.095.44-.284.609a.962.962 0 01-.67.253z" fill="#223654"/></svg><view id="ico-lecture" viewBox="0 1070 26 26"/><svg width="26" height="26" fill="none" viewBox="-1 -1 26 26" id="ico-lecture-" y="1070" xmlns="http://www.w3.org/2000/svg"><g clip-path="url(#blclip0_369_2049)" fill="#223654"><path d="M22.8 6c-.059 0-1.462.007-3.546.625-1.818.539-4.517 1.663-7.254 3.982C9.263 8.29 6.563 7.164 4.746 6.625 2.662 6.007 1.259 6 1.2 6a.6.6 0 00-.6.6v12a.597.597 0 00.6.6c.052 0 5.232.053 10.402 4.649a.599.599 0 00.796 0c2.69-2.39 5.372-3.527 7.149-4.059 1.93-.578 3.241-.59 3.253-.59a.6.6 0 00.6-.6v-12a.6.6 0 00-.6-.6zm-21 4.8h.6a.6.6 0 01.6.6v2.4a.6.6 0 01-.6.6h-.6v-3.6zm0 7.235V15.6h.6c.992 0 1.8-.808 1.8-1.8v-2.4c0-.992-.808-1.8-1.8-1.8h-.6V7.242c1.49.157 5.527.901 9.6 4.43v10.445c-2.527-1.99-4.97-2.993-6.654-3.492a15.613 15.613 0 00-2.946-.59zm17.454.59c-1.685.5-4.127 1.503-6.654 3.492V11.672c2.62-2.269 5.214-3.363 6.947-3.882a14.705 14.705 0 012.653-.548V9.6h-.6c-.992 0-1.8.808-1.8 1.8v2.4c0 .992.808 1.8 1.8 1.8h.6v2.435c-.608.056-1.644.205-2.946.59zM22.2 10.8v3.6h-.6a.6.6 0 01-.6-.6v-2.4a.6.6 0 01.6-.6h.6z"/><path d="M12 8.4c2.316 0 4.2-1.884 4.2-4.2C16.2 1.884 14.316 0 12 0a4.205 4.205 0 00-4.2 4.2c0 2.316 1.884 4.2 4.2 4.2zm0-7.2c1.654 0 3 1.346 3 3s-1.346 3-3 3-3-1.346-3-3 1.346-3 3-3z"/></g><defs><clipPath id="blclip0_369_2049"><path fill="#fff" d="M0 0h24v24H0z"/></clipPath></defs></svg><view id="ico-lien-externe" viewBox="0 1096 31.21 31.61"/><svg width="31.21" height="31.61" viewBox="-1 -1 31.21 31.61" id="ico-lien-externe-" y="1096" xmlns="http://www.w3.org/2000/svg"><g data-name="Groupe 394"><g data-name="Groupe 390"><g data-name="Groupe 389" fill="#095797"><path data-name="Tracé 671" d="M23.079 12.714a1.145 1.145 0 00-1.145 1.145v13.458H2.292v-20.1h13.057a1.146 1.146 0 100-2.291H.001v24.683h24.225v-15.75a1.146 1.146 0 00-1.147-1.145z"/><path data-name="Tracé 672" d="M18.784 0a1.146 1.146 0 000 2.291h6.533l-14.019 14.17a1.146 1.146 0 001.629 1.611l13.989-14.14v6.377a1.146 1.146 0 002.291 0V0z"/></g></g></g></svg><view id="ico-liste" viewBox="0 1128 42 42"/><svg viewBox="-1 -1 42 42" width="42" height="42" id="ico-liste-" y="1128" xmlns="http://www.w3.org/2000/svg"><path fill="none" d="M0 0h40v40H0z"/><g fill="#223654"><path d="M36.66 14.22H13.12c-1.63 0-2.94-1.31-2.94-2.94s1.31-2.94 2.94-2.94h23.54c1.63 0 2.94 1.31 2.94 2.94s-1.31 2.94-2.94 2.94zM13.12 10.3c-.55 0-.98.43-.98.98s.43.98.98.98h23.54c.55 0 .98-.43.98-.98s-.43-.98-.98-.98H13.12zM36.66 24.03H13.12c-1.63 0-2.94-1.31-2.94-2.94s1.31-2.94 2.94-2.94h23.54c1.63 0 2.94 1.31 2.94 2.94s-1.31 2.94-2.94 2.94zm-23.54-3.92c-.55 0-.98.43-.98.98s.43.98.98.98h23.54c.55 0 .98-.43.98-.98s-.43-.98-.98-.98H13.12zM36.66 33.84H13.12c-1.63 0-2.94-1.31-2.94-2.94s1.31-2.94 2.94-2.94h23.54c1.63 0 2.94 1.31 2.94 2.94s-1.31 2.94-2.94 2.94zm-23.54-3.92c-.55 0-.98.43-.98.98s.43.98.98.98h23.54c.55 0 .98-.43.98-.98s-.43-.98-.98-.98H13.12zM3.31 14.22c-1.63 0-2.94-1.31-2.94-2.94s1.31-2.94 2.94-2.94 2.94 1.31 2.94 2.94-1.31 2.94-2.94 2.94zm0-3.92c-.55 0-.98.43-.98.98s.43.98.98.98.98-.43.98-.98-.43-.98-.98-.98zM3.31 24.03c-1.63 0-2.94-1.31-2.94-2.94s1.31-2.94 2.94-2.94 2.94 1.31 2.94 2.94-1.31 2.94-2.94 2.94zm0-3.92c-.55 0-.98.43-.98.98s.43.98.98.98.98-.43.98-.98-.43-.98-.98-.98zM3.31 33.84c-1.63 0-2.94-1.31-2.94-2.94s1.31-2.94 2.94-2.94 2.94 1.31 2.94 2.94-1.31 2.94-2.94 2.94zm0-3.92c-.55 0-.98.43-.98.98s.43.98.98.98.98-.43.98-.98-.43-.98-.98-.98z"/></g></svg><view id="ico-loupe-gris" viewBox="0 1170 54.67 54.21"/><svg viewBox="-1 -1 54.67 54.21" width="54.67" height="54.21" id="ico-loupe-gris-" y="1170" xmlns="http://www.w3.org/2000/svg"><defs><style>.bocls-1{fill:#8893a2}</style></defs><g id="boCalque_2" data-name="Calque 2"><path class="bocls-1" d="M52.67 47.81l-15-15a20.77 20.77 0 10-4.32 4.46l14.93 14.94zM20.78 35.36A14.41 14.41 0 1135.19 21a14.43 14.43 0 01-14.41 14.36z" id="boCalque_1-2" data-name="Calque 1"/></g></svg><view id="ico-loupe-mince" viewBox="0 1225 41.92 42"/><svg id="ico-loupe-mince-" data-name="Calque 2" viewBox="-1 -1 41.92 42" width="41.92" height="42" y="1225" xmlns="http://www.w3.org/2000/svg"><defs><style>.bpcls-1,.bpcls-2{fill:#223654;stroke-width:0}.bpcls-2{fill:none}</style></defs><path class="bpcls-2" d="M0 .04h39.92v39.92H0z" id="bpCalque_2-2" data-name="Calque 2"/><path class="bpcls-1" d="M38.7 38.32L26.81 25.35c2.68-2.8 4.15-6.47 4.15-10.36S29.4 7.22 26.57 4.38C23.73 1.56 19.97 0 15.96 0S8.19 1.56 5.35 4.39C2.52 7.23.96 10.99.96 15s1.56 7.77 4.39 10.61C8.18 28.44 11.95 30 15.96 30c3.45 0 6.72-1.16 9.38-3.29l11.88 12.96c.2.21.47.32.74.32.24 0 .48-.09.68-.26.41-.38.44-1.01.06-1.41zM2.96 15c0-7.17 5.83-13 13-13s13 5.83 13 13-5.83 13-13 13-13-5.83-13-13z" id="bpCalque_3" data-name="Calque 3"/></svg><view id="ico-loupe-piv-droite" viewBox="0 1267 54.67 54.21"/><svg viewBox="-1 -1 54.67 54.21" width="54.67" height="54.21" id="ico-loupe-piv-droite-" y="1267" xmlns="http://www.w3.org/2000/svg"><defs><style>.bqcls-1{fill:#fff}</style></defs><g id="bqCalque_2" data-name="Calque 2"><path class="bqcls-1" d="M52.67 47.81l-15-15a20.77 20.77 0 10-4.32 4.46l14.93 14.94zM20.78 35.36A14.41 14.41 0 1135.19 21a14.43 14.43 0 01-14.41 14.36z" id="bqCalque_1-2" data-name="Calque 1"/></g></svg><view id="ico-main" viewBox="0 1322 42 42"/><svg viewBox="-1 -1 42 42" width="42" height="42" id="ico-main-" y="1322" xmlns="http://www.w3.org/2000/svg"><path fill="none" d="M0 0h40v40H0z"/><g fill="#213653"><path d="M5.48 28.9c-.61 0-1.09-.48-1.09-1.09s.48-1.09 1.09-1.09 1.09.48 1.09 1.09-.48 1.09-1.09 1.09z"/><path d="M27.31 33.27c1.81 0 3.27-1.46 3.27-3.27 0-.39-.07-.74-.2-1.09h3.47c1.81 0 3.27-1.46 3.27-3.27 0-.41-.09-.83-.24-1.2 1.4-.37 2.42-1.66 2.42-3.16s-1.03-2.77-2.42-3.16c.15-.37.24-.79.24-1.2 0-1.81-1.46-3.27-3.27-3.27H20.82l2.42-3.08c.52-.65.79-1.53.74-2.4s-.41-1.7-1-2.29c-1.27-1.27-3.34-1.27-4.63 0l-7.68 7.6a3.277 3.277 0 00-3.01-2.01H3.3C1.49 11.44.03 12.91.03 14.72V30c0 1.81 1.46 3.27 3.27 3.27h4.37c1.18 0 2.23-.63 2.79-1.57 1.4.72 3.93 1.57 8.12 1.57h8.73zM21.46 7.41c.46.46.5 1.29.09 1.79l-3.82 4.85c-.26.33-.31.79-.13 1.16.17.37.57.61.98.61h15.28c.61 0 1.09.48 1.09 1.09S34.47 18 33.86 18H22.95c-.61 0-1.09.48-1.09 1.09s.48 1.09 1.09 1.09h13.1c.61 0 1.09.48 1.09 1.09s-.48 1.09-1.09 1.09h-13.1c-.61 0-1.09.48-1.09 1.09s.48 1.09 1.09 1.09h10.91c.61 0 1.09.48 1.09 1.09s-.48 1.09-1.09 1.09h-13.1c-.61 0-1.09.48-1.09 1.09s.48 1.09 1.09 1.09h6.55c.61 0 1.09.48 1.09 1.09s-.48 1.09-1.09 1.09h-8.73c-4.58 0-6.85-1.13-7.64-1.64V16.26l8.97-8.86c.44-.41 1.13-.44 1.55 0zM3.3 31.09c-.61 0-1.09-.48-1.09-1.09V14.72c0-.61.48-1.09 1.09-1.09h4.37c.61 0 1.09.48 1.09 1.09V30c0 .61-.48 1.09-1.09 1.09H3.3z"/></g></svg><view id="ico-main-cible" viewBox="0 1364 42 42"/><svg viewBox="-1 -1 42 42" width="42" height="42" id="ico-main-cible-" y="1364" xmlns="http://www.w3.org/2000/svg"><path fill="none" d="M0 0h40v40H0z"/><path d="M15.15 13.06c2.3-3.34 6.14-5.53 10.5-5.53 7.04 0 12.75 5.71 12.75 12.75s-5.71 12.75-12.75 12.75c-4.12 0-7.77-1.96-10.1-4.99" fill="none" stroke="#223654" stroke-miterlimit="10" stroke-width="2"/><path d="M17.64 17.86c1.04-3.44 4.23-5.94 8-5.94 4.62 0 8.37 3.75 8.37 8.37s-3.75 8.37-8.37 8.37c-3.26 0-6.08-1.87-7.46-4.58" fill="none" stroke="#223654" stroke-miterlimit="10" stroke-width="2"/><path d="M22.31 22.27c.41.7 1.04 1.27 1.84 1.61a3.91 3.91 0 005.1-2.11 3.91 3.91 0 00-2.11-5.1 3.885 3.885 0 00-4.56 1.22" fill="none" stroke="#223654" stroke-miterlimit="10" stroke-width="2"/><path d="M3.75 26.75c-.4 0-.74.34-.74.74s.34.74.74.74.74-.34.74-.74-.34-.74-.74-.74z" fill="#223654"/><path d="M14.04 12c-.57 0-1.13.21-1.56.64l-5.2 5.14c-.34-.8-1.12-1.36-2.04-1.36H2.29c-1.22 0-2.21 1-2.21 2.21v10.33c0 1.22 1 2.21 2.21 2.21h2.95c.8 0 1.5-.42 1.89-1.06.94.49 2.65 1.06 5.49 1.06h1.48a2.217 2.217 0 002.06-3.02c.94-.26 1.63-1.11 1.63-2.14 0-.29-.06-.57-.15-.81.94-.26 1.63-1.11 1.63-2.14 0-.26-.05-.51-.12-.74h3.81c1.22 0 2.21-1 2.21-2.21s-1-2.21-2.21-2.21h-8.81l1.64-2.08c.35-.45.54-1.03.5-1.62-.03-.59-.28-1.15-.68-1.55-.43-.43-1-.64-1.56-.64zm-1.43 17.7c-3.11 0-4.63-.77-5.17-1.1v-8.92l6.07-5.99c.14-.14.34-.21.53-.21s.38.07.52.21c.31.31.34.87.07 1.22l-2.59 3.27a.76.76 0 00-.09.78c.12.26.38.41.66.41h10.33c.4 0 .74.34.74.74s-.34.74-.74.74h-7.38c-.4 0-.74.34-.74.74s.34.74.74.74h1.48c.4 0 .74.33.74.74s-.34.74-.74.74h-1.48c-.4 0-.74.33-.74.74s.34.74.74.74.74.33.74.74-.34.74-.74.74h-1.48c-.4 0-.74.33-.74.74s.34.74.74.74.74.33.74.74-.34.74-.74.74H12.6zm-10.33 0c-.4 0-.74-.34-.74-.74V18.63c0-.4.34-.74.74-.74h2.95c.4 0 .74.34.74.74v10.33c0 .4-.34.74-.74.74H2.28z" fill="#223654"/></svg><view id="ico-maison" viewBox="0 1406 22 22"/><svg width="22" height="22" viewBox="-1 -1 22 22" id="ico-maison-" y="1406" xmlns="http://www.w3.org/2000/svg"><path d="M19.871 12.165l-8.829-9.758A1.392 1.392 0 0010 1.937c-.397 0-.767.167-1.042.47L.129 12.165a.5.5 0 00.741.67l2.129-2.353V18.5c0 .827.673 1.5 1.5 1.5h11c.827 0 1.5-.673 1.5-1.5v-8.018l2.129 2.353a.499.499 0 10.741-.671zM12 19H8v-4.5a.5.5 0 01.5-.5h3a.5.5 0 01.5.5V19zm4-.5a.5.5 0 01-.5.5H13v-4.5c0-.827-.673-1.5-1.5-1.5h-3c-.827 0-1.5.673-1.5 1.5V19H4.5a.5.5 0 01-.5-.5V9.377l5.7-6.3c.082-.091.189-.141.3-.141s.218.05.3.141l5.7 6.3V18.5z" fill="#fff"/></svg><view id="ico-modifier" viewBox="0 1428 22 22"/><svg width="22" height="22" viewBox="-1 -1 22 22" id="ico-modifier-" y="1428" xmlns="http://www.w3.org/2000/svg"><path d="M14.5 20h-13C.673 20 0 19.327 0 18.5v-16C0 1.673.673 1 1.5 1h13c.827 0 1.5.673 1.5 1.5v2a.5.5 0 01-1 0v-2a.5.5 0 00-.5-.5h-13a.5.5 0 00-.5.5v16a.5.5 0 00.5.5h13a.5.5 0 00.5-.5v-4a.5.5 0 011 0v4c0 .827-.673 1.5-1.5 1.5z" fill="#223654"/><path d="M10.5 5h-7a.5.5 0 010-1h7a.5.5 0 010 1zM12.5 7h-9a.5.5 0 010-1h9a.5.5 0 010 1zM11.5 9h-8a.5.5 0 010-1h8a.5.5 0 010 1zM8.5 11h-5a.5.5 0 010-1h5a.5.5 0 010 1zM8.5 17a.5.5 0 01-.481-.637l1-3.5a.494.494 0 01.127-.216l7.5-7.5a.5.5 0 01.707 0l2.5 2.5a.5.5 0 01.003.704l-7.5 7.641a.498.498 0 01-.238.135l-3.5.859a.478.478 0 01-.119.014zm1.445-3.738l-.728 2.547 2.525-.62 7.053-7.186-1.796-1.796-7.055 7.055zM6.5 17h-3a.5.5 0 010-1h3a.5.5 0 010 1z" fill="#223654"/></svg><view id="ico-moins" viewBox="0 1450 18 18"/><svg width="18" height="18" viewBox="-1 -1 18 18" id="ico-moins-" y="1450" xmlns="http://www.w3.org/2000/svg"><path data-name="Support à icône" fill="none" d="M0 0h16v16H0z"/><path d="M15 9H1a1 1 0 01-1-1 1 1 0 011-1h14a1 1 0 011 1 1 1 0 01-1 1z" fill="#223654"/></svg><view id="ico-mon-espace" viewBox="0 1468 42 42"/><svg viewBox="-1 -1 42 42" width="42" height="42" id="ico-mon-espace-" y="1468" xmlns="http://www.w3.org/2000/svg"><path fill="none" d="M0 0h40v40H0z"/><g fill="#223653"><path d="M29.61 3.5H9.92m-1.97 0H3.03C1.39 3.5.07 4.82.07 6.45v27.57c0 1.63 1.32 2.95 2.95 2.95H36.5c1.63 0 2.95-1.32 2.95-2.95V6.45c0-1.63-1.32-2.95-2.95-2.95h-4.92m0 1.97h4.92c.55 0 .98.43.98.98v27.57c0 .55-.43.98-.98.98H3.03c-.55 0-.98-.43-.98-.98V6.45c0-.55.43-.98.98-.98h4.92m1.97 0h19.7"/><path d="M19.77 21.23c-3.25 0-5.91-2.66-5.91-5.91s2.66-5.91 5.91-5.91 5.91 2.66 5.91 5.91-2.66 5.91-5.91 5.91zm0-9.85c-2.17 0-3.94 1.77-3.94 3.94s1.77 3.94 3.94 3.94 3.94-1.77 3.94-3.94-1.77-3.94-3.94-3.94zM26.66 31.07H12.87c-.85 0-1.58-.35-2.01-.97s-.53-1.42-.28-2.21c.06-.2 1.65-4.71 9.18-4.71s9.12 4.53 9.18 4.71c.26.79.16 1.6-.28 2.21s-1.16.97-2.01.97zm-14.2-2.54c-.06.18-.06.33 0 .43s.22.14.41.14h13.79c.2 0 .35-.06.41-.14s.06-.24 0-.43c-.02-.06-.35-.87-1.34-1.67-1.38-1.12-3.45-1.71-5.97-1.71s-4.59.59-5.97 1.71c-.98.81-1.32 1.62-1.34 1.67z"/></g></svg><view id="ico-oeil" viewBox="0 1510 22 22"/><svg width="22" height="22" viewBox="-1 -1 22 22" id="ico-oeil-" y="1510" xmlns="http://www.w3.org/2000/svg"><path d="M19.872 10.166c-.047-.053-1.182-1.305-2.956-2.572-1.047-.748-2.1-1.344-3.13-1.773-1.305-.544-2.579-.82-3.786-.82s-2.481.276-3.786.82c-1.03.429-2.083 1.026-3.13 1.773C1.31 8.861.175 10.114.128 10.166a.5.5 0 000 .669c.047.053 1.182 1.305 2.956 2.572 1.047.748 2.1 1.344 3.13 1.773 1.305.544 2.579.82 3.786.82s2.481-.276 3.786-.82c1.03-.429 2.083-1.026 3.13-1.773 1.774-1.267 2.909-2.52 2.956-2.572a.5.5 0 000-.669zm-7.298-3.728A3.983 3.983 0 0114 9.5c0 2.206-1.794 4-4 4s-4-1.794-4-4c0-1.188.519-2.299 1.426-3.062C8.248 6.17 9.117 6 10 6s1.752.17 2.574.438zm3.743 6.168C14.784 13.698 12.444 15 10 15s-4.784-1.302-6.317-2.394A20.014 20.014 0 011.194 10.5a20.102 20.102 0 012.489-2.106 16.19 16.19 0 011.85-1.145A5.006 5.006 0 0010 14.5a5.006 5.006 0 004.467-7.251c.694.365 1.32.768 1.85 1.145a20.014 20.014 0 012.489 2.106 20.102 20.102 0 01-2.489 2.106z" fill="#223654"/></svg><view id="ico-papier-crayon" viewBox="0 1532 22 22"/><svg width="22" height="22" viewBox="-1 -1 22 22" id="ico-papier-crayon-" y="1532" xmlns="http://www.w3.org/2000/svg"><path d="M19.103.896C18.541.334 17.794.025 17 .025s-1.542.309-2.103.871l-9.75 9.75a.496.496 0 00-.116.183l-2 5.5a.5.5 0 00.641.641l5.5-2a.51.51 0 00.183-.116l9.75-9.75c.562-.562.871-1.309.871-2.104s-.309-1.542-.871-2.104zM8.725 14.068l-4.389 1.596 1.596-4.389L14 3.207 16.793 6l-8.068 8.068zm9.672-9.672l-.897.896-2.793-2.793.897-.896c.373-.373.869-.578 1.396-.578s1.023.205 1.397.578c.373.373.578.869.578 1.396s-.205 1.023-.578 1.396z" fill="#223654"/><path d="M17.5 20h-16C.673 20 0 19.327 0 18.5v-16C0 1.673.673 1 1.5 1h10a.5.5 0 010 1h-10a.5.5 0 00-.5.5v16a.5.5 0 00.5.5h16a.5.5 0 00.5-.5v-10a.5.5 0 011 0v10c0 .827-.673 1.5-1.5 1.5z" fill="#223654"/></svg><view id="ico-parametres" viewBox="0 1554 42 42"/><svg viewBox="-1 -1 42 42" width="42" height="42" id="ico-parametres-" y="1554" xmlns="http://www.w3.org/2000/svg"><path fill="none" d="M0 0h40v40H0z"/><g fill="#223654"><path d="M15.1 39.49s-.16 0-.24-.04c-1.81-.46-3.55-1.19-5.16-2.14-.46-.28-.62-.87-.38-1.35.32-.58.48-1.25.48-1.93C9.8 31.81 7.99 30 5.77 30c-.66 0-1.35.16-1.93.48a1 1 0 01-1.35-.38C1.54 28.49.82 26.74.35 24.94c-.12-.5.16-1.05.66-1.21 1.63-.54 2.74-2.09 2.74-3.83s-1.11-3.26-2.74-3.81c-.5-.16-.79-.68-.66-1.21.46-1.81 1.19-3.55 2.14-5.16.28-.46.87-.62 1.35-.38.58.32 1.25.48 1.93.48 2.22 0 4.03-1.81 4.03-4.03 0-.66-.16-1.33-.48-1.93a1 1 0 01.38-1.35c1.61-.93 3.34-1.63 5.16-2.09.5-.12 1.05.16 1.21.66.54 1.63 2.09 2.74 3.81 2.74s3.26-1.11 3.83-2.74c.16-.5.68-.79 1.21-.66 1.81.46 3.55 1.19 5.16 2.14.46.28.62.87.38 1.35-.32.58-.48 1.25-.48 1.93 0 2.22 1.81 4.03 4.03 4.03.66 0 1.35-.16 1.93-.48a1 1 0 011.35.38c.95 1.61 1.67 3.36 2.14 5.16.14.5-.16 1.05-.64 1.21-1.63.54-2.74 2.09-2.74 3.81s1.11 3.26 2.74 3.83c.5.16.79.68.64 1.21-.46 1.81-1.19 3.55-2.14 5.16-.28.46-.87.62-1.35.38-.58-.32-1.25-.48-1.93-.48-2.22 0-4.03 1.81-4.03 4.03 0 .66.16 1.35.48 1.93a1 1 0 01-.38 1.35c-1.61.95-3.36 1.67-5.16 2.14-.5.14-1.05-.16-1.21-.64-.54-1.63-2.09-2.74-3.83-2.74s-3.26 1.11-3.81 2.74c-.14.42-.52.68-.95.68l-.02-.04zm4.77-5.44c2.28 0 4.31 1.27 5.34 3.22 1.05-.32 2.07-.75 3.04-1.25a5.98 5.98 0 01-.32-1.97c0-3.32 2.72-6.04 6.04-6.04.66 0 1.35.12 1.97.32.5-.97.93-1.99 1.25-3.04-1.95-1.03-3.22-3.08-3.22-5.36s1.27-4.31 3.22-5.36c-.32-1.05-.75-2.07-1.25-3.04-.62.22-1.31.32-1.97.32-3.32 0-6.04-2.72-6.04-6.04 0-.66.12-1.35.32-1.97-.97-.5-1.99-.93-3.04-1.25-1.03 1.95-3.08 3.22-5.34 3.22s-4.31-1.27-5.34-3.22c-1.05.32-2.07.75-3.04 1.25.22.62.32 1.31.32 1.97 0 3.32-2.72 6.04-6.04 6.04-.66 0-1.35-.12-1.97-.32-.5.97-.93 1.99-1.25 3.04 1.95 1.03 3.22 3.08 3.22 5.36s-1.27 4.31-3.22 5.36c.32 1.05.75 2.07 1.25 3.04a5.98 5.98 0 011.97-.32c3.32 0 6.04 2.72 6.04 6.04 0 .66-.12 1.35-.32 1.97.97.5 1.99.93 3.04 1.25a6.055 6.055 0 015.34-3.22z"/><path d="M19.87 25.97c-3.32 0-6.04-2.72-6.04-6.04s2.72-6.04 6.04-6.04 6.04 2.72 6.04 6.04-2.72 6.04-6.04 6.04zm0-10.07c-2.22 0-4.03 1.81-4.03 4.03s1.81 4.03 4.03 4.03 4.03-1.81 4.03-4.03-1.81-4.03-4.03-4.03z"/></g></svg><view id="ico-partage" viewBox="0 1596 22 22"/><svg width="22" height="22" viewBox="-1 -1 22 22" id="ico-partage-" y="1596" xmlns="http://www.w3.org/2000/svg"><path d="M16 12a4 4 0 00-3.325 1.779l-4.902-2.451C7.92 10.912 8 10.466 8 10s-.08-.912-.227-1.328l4.902-2.451A4 4 0 1016 0a4.004 4.004 0 00-3.773 5.327L7.325 7.778A3.998 3.998 0 000 10c0 2.206 1.794 4 4 4a4 4 0 003.325-1.779l4.902 2.451A4.004 4.004 0 0016 20c2.206 0 4-1.794 4-4s-1.794-4-4-4zm0-11c1.654 0 3 1.346 3 3s-1.346 3-3 3-3-1.346-3-3 1.346-3 3-3zM4 13c-1.654 0-3-1.346-3-3s1.346-3 3-3 3 1.346 3 3-1.346 3-3 3zm12 6c-1.654 0-3-1.346-3-3s1.346-3 3-3 3 1.346 3 3-1.346 3-3 3z" fill="#223654"/></svg><view id="ico-partenaires" viewBox="0 1618 42 42"/><svg viewBox="-1 -1 42 42" width="42" height="42" id="ico-partenaires-" y="1618" xmlns="http://www.w3.org/2000/svg"><path fill="none" d="M0 0h40v40H0z"/><g fill="#223654"><path d="M25.63 12.87c0-.33-.08-1.75-.67-3.2-.4-.98-.98-1.79-1.72-2.37-.19-.15-.39-.29-.58-.4.66-.69 1.06-1.62 1.06-2.64 0-2.12-1.73-3.85-3.85-3.85s-3.85 1.73-3.85 3.85c0 1.02.4 1.95 1.06 2.64-.19.12-.4.25-.58.4-.73.58-1.31 1.39-1.72 2.37-.67 1.6-.67 3.2-.67 3.26 0 .54.42.96.96.96h9.64c.54 0 .96-.42.96-.96v-.06h-.04zm-7.71-8.61c0-1.06.87-1.93 1.93-1.93s1.93.87 1.93 1.93-.87 1.93-1.93 1.93-1.93-.87-1.93-1.93zm-1.83 7.71c.08-.44.21-1 .42-1.56.64-1.54 1.73-2.29 3.33-2.29 2.76 0 3.55 2.45 3.76 3.85h-7.52zM12.14 34.07c0-.33-.08-1.75-.67-3.2-.4-.98-.98-1.79-1.72-2.37-.19-.15-.39-.29-.58-.4.66-.69 1.06-1.62 1.06-2.64 0-2.12-1.73-3.85-3.85-3.85s-3.85 1.73-3.85 3.85c0 1.02.4 1.95 1.06 2.64-.21.12-.4.25-.58.4-.73.58-1.31 1.39-1.72 2.37-.67 1.6-.67 3.2-.67 3.26 0 .54.42.96.96.96h9.64c.54 0 .96-.42.96-.96v-.06h-.04zm-7.71-8.61c0-1.06.87-1.93 1.93-1.93s1.93.87 1.93 1.93-.87 1.93-1.93 1.93-1.93-.87-1.93-1.93zM2.6 33.17c.08-.44.21-1 .42-1.56.64-1.54 1.73-2.29 3.33-2.29 2.76 0 3.55 2.45 3.76 3.85H2.6zM39.13 34.07c0-.33-.08-1.75-.67-3.2-.4-.98-.98-1.79-1.72-2.37-.19-.15-.39-.29-.58-.4.66-.69 1.06-1.62 1.06-2.64 0-2.12-1.73-3.85-3.85-3.85s-3.85 1.73-3.85 3.85c0 1.02.4 1.95 1.06 2.64-.19.12-.4.25-.58.4-.73.58-1.31 1.39-1.72 2.37-.67 1.6-.67 3.2-.67 3.26 0 .54.42.96.96.96h9.64c.54 0 .96-.42.96-.96v-.06h-.04zm-7.71-8.61c0-1.06.87-1.93 1.93-1.93s1.93.87 1.93 1.93-.87 1.93-1.93 1.93-1.93-.87-1.93-1.93zm-1.83 7.71c.08-.44.21-1 .42-1.56.64-1.54 1.73-2.29 3.33-2.29 2.76 0 3.55 2.45 3.76 3.85h-7.52zM19.85 38.95c-2.51 0-4.99-.62-7.19-1.77-.46-.25-.66-.83-.4-1.31s.83-.66 1.31-.4c1.93 1.02 4.11 1.56 6.3 1.56s4.37-.54 6.3-1.56c.46-.25 1.06-.08 1.31.4s.08 1.06-.4 1.31a15.45 15.45 0 01-7.19 1.77h-.04zM33.79 20.64c-.42 0-.81-.29-.93-.71-.89-3.24-2.95-6.01-5.82-7.82-.44-.29-.58-.89-.31-1.33s.89-.58 1.33-.31c3.26 2.06 5.63 5.24 6.63 8.94.13.52-.15 1.04-.67 1.18-.08.02-.17.04-.25.04l.02.02zM5.92 20.64s-.17 0-.25-.04c-.52-.13-.81-.67-.67-1.18 1.02-3.7 3.37-6.88 6.63-8.94.44-.29 1.04-.15 1.33.31s.15 1.04-.31 1.33c-2.85 1.79-4.91 4.59-5.82 7.82-.12.42-.5.71-.93.71l.02-.02z"/></g></svg><view id="ico-pdf" viewBox="0 1660 34 34"/><svg viewBox="-1 -1 34 34" width="34" height="34" id="ico-pdf-" y="1660" xmlns="http://www.w3.org/2000/svg"><path fill="none" d="M0 0h32v32H0z"/><path d="M29.23 7.82L21.65.25a.84.84 0 00-.6-.25h-16C3.66 0 2.53 1.13 2.53 2.53v26.95c0 1.39 1.13 2.53 2.53 2.53h21.89c1.39 0 2.53-1.13 2.53-2.53V8.42c0-.22-.09-.44-.25-.6zm-1.79.6h-5.55c-.46 0-.84-.38-.84-.84V2.03l6.39 6.39zm.35 21.05c0 .46-.38.84-.84.84H5.05c-.46 0-.84-.38-.84-.84V2.53c0-.46.38-.84.84-.84h14.32v5.89c0 1.39 1.13 2.53 2.53 2.53h5.89v19.37z" fill="#223654"/><path d="M9.32 19.9c-.12 0-.23-.02-.34-.05-.4-.12-.69-.44-.76-.87-.09-.5.04-1.55 1.93-2.96.5-.37 1.14-.72 1.86-1.03a24.58 24.58 0 001.59-4.09c-.78-1.91-.66-3.63-.18-4.63.45-.94 1.08-.86 1.26-.81.98.25.89 1.87.86 2.41-.02.14-.21 1.33-.67 2.97.41.86 1.07 1.81 2.12 2.77 2.11-.32 4.02-.28 4.79.3.41.31.55.78.37 1.25-.11.28-.37.66-1 .84-1.21.35-3.31-.17-3.99-.69-.18-.14-.35-.27-.52-.41-1.25.21-2.58.54-3.76 1-.64 1.21-1.42 2.39-2.37 3.4-.36.39-.79.6-1.21.6zm1.51-2.89c-1.09.82-1.38 1.42-1.43 1.66a.81.81 0 00.25-.19c.43-.46.82-.95 1.17-1.47zm7.83-2.35c.68.2 1.62.35 2.17.18.05-.02.1-.03.13-.05-.35-.16-1.21-.21-2.3-.13zM14.4 12.4c-.22.64-.48 1.31-.77 2 .63-.2 1.29-.37 1.94-.52-.46-.49-.85-.98-1.17-1.48zm-.03-5.19c-.07.27-.12.63-.11 1.07v.04c.07-.36.1-.56.11-.57.01-.21.01-.39 0-.54zM12.24 23.89c0 .34-.05.64-.16.9s-.26.48-.46.66-.45.32-.75.41-.64.14-1.04.14h-.51v1.94s-.01.06-.03.08-.05.05-.1.06-.11.03-.19.04-.18.01-.3.01-.22 0-.3-.01-.14-.02-.19-.04-.08-.04-.1-.06-.03-.05-.03-.08v-5.46c0-.15.04-.26.11-.33s.18-.11.3-.11h1.43c.14 0 .28 0 .41.02s.29.03.47.07.36.1.55.2.34.22.48.37.23.32.3.52.1.42.1.67zm-1.29.09c0-.21-.04-.39-.11-.52s-.17-.24-.28-.3-.22-.11-.34-.12-.24-.03-.37-.03h-.53v2.06h.55c.2 0 .36-.03.49-.08s.24-.13.33-.22.15-.21.19-.34.07-.28.07-.43zM18.24 24.99c0 .56-.07 1.03-.22 1.43s-.35.72-.63.97c-.27.25-.6.43-.99.55s-.85.18-1.39.18h-1.45c-.1 0-.19-.03-.26-.09s-.11-.16-.11-.3v-5.29c0-.14.04-.24.11-.3s.16-.09.26-.09h1.56c.54 0 1 .06 1.38.19s.69.31.95.56c.26.25.45.56.59.92s.2.79.2 1.27zm-1.28.04c0-.29-.03-.55-.1-.8s-.17-.46-.32-.64-.34-.32-.57-.42-.54-.15-.92-.15h-.62v4.12h.64c.34 0 .62-.04.85-.13s.42-.22.58-.4.27-.4.35-.66.11-.57.11-.92zM22.66 22.56c0 .09 0 .17-.01.24s-.02.11-.04.15-.04.07-.06.08-.05.03-.08.03h-1.98v1.63h1.86s.05 0 .08.02.04.04.06.08.03.09.04.15.01.14.01.23 0 .17-.01.23-.02.11-.04.15-.04.07-.06.09-.05.03-.08.03h-1.86v2.26s0 .06-.03.09-.05.05-.1.06-.11.03-.19.04-.18.01-.3.01-.22 0-.3-.01-.14-.02-.19-.04-.08-.04-.1-.06-.03-.05-.03-.09v-5.5c0-.14.04-.24.11-.3s.16-.09.26-.09h2.85s.05 0 .08.03.04.05.06.08.03.09.04.16.01.15.01.24z" fill="#223654"/></svg><view id="ico-plus" viewBox="0 1694 18 18"/><svg width="18" height="18" viewBox="-1 -1 18 18" id="ico-plus-" y="1694" xmlns="http://www.w3.org/2000/svg"><path data-name="Support à icône" fill="none" d="M0 0h16v16H0z"/><path d="M7 15V9H1a1 1 0 010-2h6V1a1 1 0 112 0v6h6a1 1 0 010 2H9v6a1 1 0 01-2 0z" fill="#223654"/></svg><view id="ico-portefeuille" viewBox="0 1712 42 42"/><svg viewBox="-1 -1 42 42" width="42" height="42" id="ico-portefeuille-" y="1712" xmlns="http://www.w3.org/2000/svg"><path fill="none" d="M0 0h40v40H0z"/><g fill="#223654"><path d="M25.98 5.15H5.31m-1.03.17a5.16 5.16 0 00-4.13 5.06v22.74c0 1.71 1.39 3.1 3.1 3.1h33.07c1.71 0 3.1-1.39 3.1-3.1V16.58c0-1.71-1.39-3.1-3.1-3.1h-1.03V8.31c0-1.71-1.39-3.1-3.1-3.1h-5.17M4.28 7.28v3.1c0 .57.46 1.03 1.03 1.03h24.8c.57 0 1.03-.46 1.03-1.03s-.46-1.03-1.03-1.03H4.28V7.28h27.9c.57 0 1.03.46 1.03 1.03v5.17H5.31a3.103 3.103 0 01-3.08-3.12c.01-1.3.82-2.63 2.04-3.08zm33.07 25.84c0 .57-.46 1.03-1.03 1.03H3.25c-.57 0-1.03-.46-1.03-1.03v-18.6c.89.67 1.98 1.03 3.1 1.03h31c.57 0 1.03.46 1.03 1.03v16.54z"/><path d="M33.99 32.26h-8.27c-.57 0-1.03-.46-1.03-1.03s.46-1.03 1.03-1.03h8.27c.57 0 1.03.46 1.03 1.03s-.46 1.03-1.03 1.03z"/></g><path d="M33.99 32.26h-8.27c-.57 0-1.03-.46-1.03-1.03s.46-1.03 1.03-1.03h8.27c.57 0 1.03.46 1.03 1.03s-.46 1.03-1.03 1.03z" fill="#223654"/></svg><view id="ico-poubelle" viewBox="0 1754 22 22"/><svg width="22" height="22" viewBox="-1 -1 22 22" id="ico-poubelle-" y="1754" xmlns="http://www.w3.org/2000/svg"><path d="M15.5 2H12v-.5c0-.827-.673-1.5-1.5-1.5h-2C7.673 0 7 .673 7 1.5V2H3.5C2.673 2 2 2.673 2 3.5v1c0 .652.418 1.208 1 1.414V18.5c0 .827.673 1.5 1.5 1.5h10c.827 0 1.5-.673 1.5-1.5V5.914c.582-.206 1-.762 1-1.414v-1c0-.827-.673-1.5-1.5-1.5zM8 1.5a.5.5 0 01.5-.5h2a.5.5 0 01.5.5V2H8v-.5zM14.5 19h-10a.5.5 0 01-.5-.5V6h11v12.5a.5.5 0 01-.5.5zM16 4.5a.5.5 0 01-.5.5h-12a.5.5 0 01-.5-.5v-1a.5.5 0 01.5-.5h12a.5.5 0 01.5.5v1z" fill="#223654"/><path d="M12.5 7a.5.5 0 00-.5.5v10a.5.5 0 001 0v-10a.5.5 0 00-.5-.5zM9.5 7a.5.5 0 00-.5.5v10a.5.5 0 001 0v-10a.5.5 0 00-.5-.5zM6.5 7a.5.5 0 00-.5.5v10a.5.5 0 001 0v-10a.5.5 0 00-.5-.5z" fill="#223654"/></svg><view id="ico-profil-utilisateur" viewBox="0 1776 42 42"/><svg viewBox="-1 -1 42 42" width="42" height="42" id="ico-profil-utilisateur-" y="1776" xmlns="http://www.w3.org/2000/svg"><path fill="none" d="M0 0h40v40H0z"/><g fill="#223654"><path d="M36.61 33.85H3.1c-1.64 0-2.96-1.32-2.96-2.96V9.21c0-1.64 1.32-2.96 2.96-2.96h33.51c1.64 0 2.96 1.32 2.96 2.96v21.68c0 1.64-1.32 2.96-2.96 2.96zM3.1 8.23a.98.98 0 00-.99.99V30.9c0 .55.43.99.99.99h33.51c.55 0 .99-.43.99-.99V9.21a.98.98 0 00-.99-.99H3.1z"/><path d="M16.9 27.94H7.04a.98.98 0 01-.99-.99c0-.14.02-1.3.77-2.5.69-1.1 2.15-2.42 5.14-2.42s4.46 1.32 5.14 2.42c.67 1.06.75 2.11.77 2.42v.08c0 .55-.43.99-.99.99zm-8.63-1.97h7.43c-.06-.18-.16-.35-.28-.53-.63-.97-1.79-1.44-3.43-1.44s-2.8.49-3.43 1.44c-.12.18-.22.35-.28.53h-.02zM32.67 16.11h-9.86c-.55 0-.99-.43-.99-.99s.43-.99.99-.99h9.86c.55 0 .99.43.99.99s-.43.99-.99.99zM30.7 20.06h-7.88c-.55 0-.99-.43-.99-.99s.43-.99.99-.99h7.88c.55 0 .99.43.99.99s-.43.99-.99.99zM30.7 24h-7.88c-.55 0-.99-.43-.99-.99s.43-.99.99-.99h7.88c.55 0 .99.43.99.99s-.43.99-.99.99zM11.97 20.06c-2.17 0-3.94-1.77-3.94-3.94s1.77-3.94 3.94-3.94 3.94 1.77 3.94 3.94-1.77 3.94-3.94 3.94zm0-5.91c-1.08 0-1.97.89-1.97 1.97s.89 1.97 1.97 1.97 1.97-.89 1.97-1.97-.89-1.97-1.97-1.97zM32.67 27.94h-9.86c-.55 0-.99-.43-.99-.99s.43-.99.99-.99h9.86c.55 0 .99.43.99.99s-.43.99-.99.99z"/></g></svg><view id="ico-question" viewBox="0 1818 975.1 975.1"/><svg width="975.1" height="975.1" viewBox="-1 -1 975.1 975.1" id="ico-question-" y="1818" xmlns="http://www.w3.org/2000/svg"><g fill="#fff"><path d="M502.29 788.199h-47c-33.1 0-60 26.9-60 60v64.9c0 33.1 26.9 60 60 60h47c33.101 0 60-26.9 60-60v-64.9c0-33.199-26.899-60-60-60zM170.89 285.8l86.7 10.8c27.5 3.4 53.6-12.4 63.5-38.3 12.5-32.7 29.9-58.5 52.2-77.3 31.601-26.6 70.9-40 117.9-40 48.7 0 87.5 12.8 116.3 38.3 28.8 25.6 43.1 56.2 43.1 92.1 0 25.8-8.1 49.4-24.3 70.8-10.5 13.6-42.8 42.2-96.7 85.9-54 43.7-89.899 83.099-107.899 118.099-18.4 35.801-24.8 75.5-26.4 115.301-1.399 34.1 25.8 62.5 60 62.5h49c31.2 0 57-23.9 59.8-54.9 2-22.299 5.7-39.199 11.301-50.699 9.399-19.701 33.699-45.701 72.699-78.1C723.59 477.8 772.79 428.4 795.891 392c23-36.3 34.6-74.8 34.6-115.5 0-73.5-31.3-138-94-193.4-62.6-55.4-147-83.1-253-83.1-100.8 0-182.1 27.3-244.1 82-52.8 46.6-84.9 101.8-96.2 165.5-3.501 18.6 9.199 36 27.699 38.3z"/></g></svg><view id="ico-rafraichir" viewBox="0 2794 22 22"/><svg width="22" height="22" viewBox="-1 -1 22 22" id="ico-rafraichir-" y="2794" xmlns="http://www.w3.org/2000/svg"><path d="M19.854 8.646a.5.5 0 00-.707 0l-1.149 1.149a7.94 7.94 0 00-2.341-5.452A7.948 7.948 0 0010 2a7.988 7.988 0 00-7.077 4.266.5.5 0 00.884.468A6.99 6.99 0 0110 3c3.789 0 6.885 3.027 6.997 6.789l-1.143-1.143a.5.5 0 00-.707.707l2 2a.498.498 0 00.708 0l2-2a.5.5 0 000-.707zM16.869 13.058a.5.5 0 00-.676.208A6.99 6.99 0 0110 17c-3.789 0-6.885-3.027-6.997-6.789l1.143 1.143a.498.498 0 00.708 0 .5.5 0 000-.707l-2-2a.5.5 0 00-.707 0l-2 2a.5.5 0 00.707.707l1.149-1.149a7.94 7.94 0 002.341 5.452A7.948 7.948 0 0010.001 18a7.988 7.988 0 007.077-4.266.5.5 0 00-.208-.676z" fill="#223654"/></svg><view id="ico-rappel" viewBox="0 2816 22 22"/><svg width="22" height="22" viewBox="-1 -1 22 22" id="ico-rappel-" y="2816" xmlns="http://www.w3.org/2000/svg"><path d="M9.415 2a.499.499 0 01-.471-.333 1.002 1.002 0 00-1.886 0 .5.5 0 01-.943-.333C6.397.537 7.155.001 8.001.001s1.604.536 1.886 1.333a.5.5 0 01-.472.667zM17 9a1.99 1.99 0 00-1.113.339A2.003 2.003 0 0014 8a1.99 1.99 0 00-1.113.339A2.003 2.003 0 0011 7c-.364 0-.706.098-1 .269V5.5a.5.5 0 00-1 0v5a.5.5 0 001 0V9c0-.551.449-1 1-1s1 .449 1 1v1.5a.5.5 0 001 0V10c0-.551.449-1 1-1s1 .449 1 1v1.5a.5.5 0 001 0V11c0-.551.449-1 1-1s1 .449 1 1c0 2.783-.436 4.879-1.297 6.232C15.956 18.405 14.879 19 13.5 19H8.51c-.039-.003-.46-.05-1.095-.525-.633-.474-1.605-1.472-2.638-3.54-2.027-4.054-2.65-5.331-2.656-5.343l-.002-.004c-.251-.503-.073-1.162.389-1.439a.876.876 0 01.685-.095.956.956 0 01.587.472l.006.01 1.561 2.705c.319.583.678.828 1.067.729.39-.099.587-.489.587-1.157V5.5a.5.5 0 00-1 0v4.873L4.655 8.04a1.947 1.947 0 00-1.199-.953 1.866 1.866 0 00-1.462.202c-.907.544-1.253 1.774-.77 2.742.03.061.668 1.368 2.66 5.35.938 1.875 1.967 3.216 3.059 3.984.857.603 1.449.634 1.559.634h5c.845 0 1.613-.183 2.284-.544.696-.375 1.289-.942 1.763-1.687.964-1.515 1.453-3.792 1.453-6.768 0-1.103-.897-2-2-2z" fill="#223654"/><path d="M12.5 1c-.2 0-.81 0-2.89 1.054-.677.343-1.283.682-1.61.869a37.583 37.583 0 00-1.61-.869C4.31 1 3.7 1 3.5 1 2.122 1 1 2.122 1 3.5S2.122 6 3.5 6c.2 0 .81 0 2.89-1.054A37.583 37.583 0 008 4.077c.327.187.933.526 1.61.869C11.69 6 12.3 6 12.5 6 13.878 6 15 4.878 15 3.5S13.878 1 12.5 1zM5.934 4.056C4.252 4.908 3.672 5 3.5 5 2.673 5 2 4.327 2 3.5S2.673 2 3.5 2c.171 0 .752.092 2.434.944.385.195.75.391 1.051.556-.301.165-.666.361-1.051.556zM12.5 5c-.171 0-.752-.092-2.434-.944-.385-.195-.75-.391-1.051-.556.301-.165.666-.361 1.051-.556C11.748 2.092 12.328 2 12.5 2c.827 0 1.5.673 1.5 1.5S13.327 5 12.5 5z" fill="#223654"/></svg><view id="ico-recu" viewBox="0 2838 26 26"/><svg width="26" height="26" fill="none" viewBox="-1 -1 26 26" id="ico-recu-" y="2838" xmlns="http://www.w3.org/2000/svg"><path d="M21.593 24a.594.594 0 01-.269-.064l-2.131-1.065-2.132 1.065a.602.602 0 01-.536 0l-2.131-1.065-2.131 1.065a.602.602 0 01-.537 0l-2.131-1.065-2.131 1.065a.602.602 0 01-.537 0l-2.131-1.065-2.131 1.065a.6.6 0 01-.868-.536V1.8a.6.6 0 01.331-.537l2.4-1.2a.602.602 0 01.537 0l2.131 1.066L9.327.063a.602.602 0 01.537 0l2.131 1.066L14.126.063a.602.602 0 01.537 0l2.13 1.066L18.926.063a.603.603 0 01.537 0l2.4 1.2c.202.102.33.31.33.536V23.4a.6.6 0 01-.6.6zm-7.2-2.4c.092 0 .183.021.268.063l2.132 1.066 2.13-1.066a.603.603 0 01.537 0l1.532.766V2.17l-1.8-.9-2.132 1.066a.602.602 0 01-.536 0L14.393 1.27 12.26 2.336a.602.602 0 01-.536 0L9.594 1.27 7.462 2.336a.602.602 0 01-.536 0L4.795 1.27l-1.8.9v20.26l1.531-.767a.602.602 0 01.536 0l2.132 1.066 2.13-1.066a.602.602 0 01.537 0l2.132 1.066 2.13-1.066a.602.602 0 01.27-.063z" fill="#223654"/><path d="M14.393 15.6h-4.2v-1.2h4.2a.6.6 0 000-1.2h-1.8v-.6a.6.6 0 00-1.2 0v.6h-1.8a.6.6 0 00-.6.6v2.4a.6.6 0 00.6.6h4.2V18h-4.2a.6.6 0 000 1.2h1.8v.6a.6.6 0 001.2 0v-.6h1.8a.6.6 0 00.6-.6v-2.4a.6.6 0 00-.6-.6zM15.593 6h-7.2a.6.6 0 010-1.2h7.2a.6.6 0 010 1.2zM17.993 8.4h-12a.6.6 0 010-1.2h12a.6.6 0 010 1.2zM17.993 10.8h-12a.6.6 0 010-1.2h12a.6.6 0 010 1.2z" fill="#223654"/></svg><view id="ico-rouages" viewBox="0 2864 42 42"/><svg viewBox="-1 -1 42 42" width="42" height="42" id="ico-rouages-" y="2864" xmlns="http://www.w3.org/2000/svg"><path fill="none" d="M0 0h40v40H0z"/><g fill="#223654"><path d="M21.42 39.52c-.06 0-.12 0-.19-.02-1.32-.33-2.58-.86-3.75-1.55a.744.744 0 01-.28-.98c.24-.42.35-.91.35-1.4a2.94 2.94 0 00-2.93-2.93c-.49 0-.97.13-1.4.35-.34.19-.79.07-.98-.28a14.78 14.78 0 01-1.55-3.75c-.1-.37.11-.76.47-.87 1.19-.4 2-1.51 2-2.77s-.8-2.37-2-2.77a.726.726 0 01-.47-.87c.33-1.32.86-2.58 1.55-3.75.2-.34.64-.46.98-.28.42.24.91.35 1.4.35a2.94 2.94 0 002.93-2.93c0-.49-.13-.97-.35-1.4a.723.723 0 01.28-.98 14.78 14.78 0 013.75-1.55c.37-.1.76.11.87.47.4 1.19 1.51 2 2.77 2s2.37-.8 2.77-2c.13-.36.5-.57.87-.47 1.32.33 2.58.86 3.75 1.55.34.2.46.64.28.98-.24.42-.35.91-.35 1.4A2.94 2.94 0 0035.12 18c.49 0 .97-.13 1.41-.35.34-.19.79-.07.98.28a14.78 14.78 0 011.55 3.75c.1.37-.11.76-.47.87-1.19.4-2 1.51-2 2.77s.8 2.37 2 2.77c.36.13.57.5.47.87-.33 1.32-.86 2.58-1.55 3.75-.2.34-.64.46-.98.28-.42-.24-.91-.35-1.41-.35a2.94 2.94 0 00-2.93 2.93c0 .49.13.97.35 1.4.19.34.07.79-.28.98a14.78 14.78 0 01-3.75 1.55c-.37.1-.76-.11-.87-.47-.4-1.19-1.51-2-2.77-2s-2.37.8-2.77 2c-.1.3-.38.5-.7.5zm3.47-3.95c1.65 0 3.14.91 3.88 2.34.76-.24 1.5-.54 2.21-.9a4.402 4.402 0 015.59-5.59c.37-.71.68-1.44.91-2.21-1.43-.75-2.35-2.23-2.35-3.88s.91-3.14 2.35-3.88a13.7 13.7 0 00-.91-2.21 4.396 4.396 0 01-5.59-5.59c-.71-.37-1.44-.68-2.21-.91-.75 1.43-2.23 2.35-3.88 2.35s-3.14-.91-3.88-2.35c-.76.24-1.5.54-2.21.91a4.396 4.396 0 01-5.59 5.59c-.37.71-.68 1.44-.91 2.21 1.43.75 2.35 2.23 2.35 3.88s-.91 3.14-2.35 3.88c.24.76.54 1.5.91 2.21a4.396 4.396 0 015.59 5.59c.71.37 1.44.68 2.21.9a4.368 4.368 0 013.88-2.34z"/><path d="M24.89 29.71c-2.42 0-4.39-1.97-4.39-4.39s1.97-4.39 4.39-4.39 4.39 1.97 4.39 4.39-1.97 4.39-4.39 4.39zm0-7.31c-1.61 0-2.93 1.32-2.93 2.93s1.32 2.93 2.93 2.93 2.93-1.31 2.93-2.93-1.31-2.93-2.93-2.93zM14.32 16.91h-.2a.488.488 0 01-.29-.22c-.58-1.02-1.74-1.55-2.89-1.33s-2.02 1.16-2.17 2.32c-.02.12-.08.24-.18.3-.1.07-.23.11-.34.09-.99-.17-1.95-.49-2.83-.97a.442.442 0 01-.22-.28.428.428 0 01.05-.35c.6-1.01.48-2.28-.29-3.16a2.72 2.72 0 00-2.58-.87c-.18.04-.35.09-.53.16-.11.05-.25.05-.35 0a.457.457 0 01-.25-.26c-.18-.47-.31-.95-.41-1.44s-.16-1-.17-1.5c0-.13.04-.25.13-.33.09-.09.21-.14.32-.14.19 0 .36-.02.55-.05.95-.19 1.74-.87 2.04-1.79.38-1.11 0-2.33-.92-3.05a.474.474 0 01-.18-.3c0-.12.02-.25.1-.34.64-.78 1.4-1.44 2.25-1.97.11-.07.24-.08.35-.05s.22.11.29.22c.58 1.02 1.74 1.55 2.89 1.33S10.51 1.77 10.66.6c.02-.12.08-.24.18-.3.1-.08.23-.11.34-.09.99.17 1.95.49 2.83.97.11.06.19.16.22.28.03.12.02.25-.05.35-.6 1.01-.48 2.28.29 3.16a2.72 2.72 0 002.58.87c.18-.04.35-.09.53-.16.12-.05.25-.05.35 0s.2.14.25.26a9.082 9.082 0 01.58 2.93c0 .12-.04.25-.13.33-.09.09-.21.14-.32.14-.19 0-.36.02-.55.05-.95.19-1.74.87-2.04 1.79-.38 1.11 0 2.33.92 3.05.1.07.16.19.18.3 0 .12-.02.25-.1.34-.64.78-1.4 1.44-2.25 1.97-.05.03-.1.05-.15.06zm-8.08-.4c.55.27 1.13.46 1.73.59.35-1.33 1.43-2.36 2.8-2.62s2.76.28 3.59 1.38c.5-.34.96-.75 1.38-1.2a3.61 3.61 0 01-.87-3.74 3.632 3.632 0 012.73-2.38c.08-.02.17-.03.26-.04-.03-.3-.07-.61-.13-.9s-.14-.6-.23-.88l-.25.06c-1.27.25-2.59-.2-3.43-1.17a3.631 3.631 0 01-.61-3.79 7.52 7.52 0 00-1.73-.59c-.35 1.33-1.43 2.36-2.8 2.62s-2.76-.28-3.59-1.38c-.5.34-.96.75-1.38 1.2.97.96 1.33 2.42.87 3.74a3.616 3.616 0 01-2.73 2.38c-.08.02-.17.03-.25.04.03.3.07.61.13.9s.14.6.23.88l.25-.06c1.27-.25 2.59.2 3.43 1.17.92 1.05 1.14 2.53.61 3.79z"/><path d="M10.25 11.8c-1.46.29-2.9-.67-3.18-2.14s.67-2.9 2.14-3.18c1.47-.29 2.9.67 3.18 2.14.29 1.47-.67 2.9-2.14 3.18zm-.87-4.44c-.98.2-1.62 1.15-1.43 2.12s1.15 1.62 2.12 1.43 1.62-1.14 1.43-2.12-1.14-1.62-2.12-1.43z"/></g></svg><view id="ico-services-ligne" viewBox="0 2906 42 42"/><svg viewBox="-1 -1 42 42" width="42" height="42" id="ico-services-ligne-" y="2906" xmlns="http://www.w3.org/2000/svg"><path fill="none" d="M0 0h40v40H0z"/><g fill="#223654"><path d="M36.71 2.17H3.23A2.96 2.96 0 00.27 5.13v25.6a2.96 2.96 0 002.96 2.96h10.22l-1.36 2.72c-.32.62-.63 1.06-.81 1.25-.42.11-.73.49-.73.95 0 .54.44.99.99.99H28.4a.987.987 0 00.26-1.94c-.17-.19-.49-.63-.81-1.25l-1.36-2.72h10.22a2.96 2.96 0 002.96-2.96V5.13a2.96 2.96 0 00-2.96-2.96zM3.23 4.14h33.48c.54 0 .99.44.99.99v18.71H2.25V5.13c0-.54.44-.99.99-.99zm22.85 33.15c.06.12.12.23.18.34H13.68c.06-.11.12-.23.18-.34l1.8-3.6h8.63l1.8 3.6zm10.63-5.57H3.23c-.54 0-.99-.44-.99-.99v-4.92h35.44v4.92c0 .54-.44.99-.99.99z"/><path d="M20.95 29.74h-1.97c-.54 0-.99-.44-.99-.99s.44-.99.99-.99h1.97c.54 0 .99.44.99.99s-.44.99-.99.99zM18.39 9.88l3.77 9.21.57-.24-1.41-3.45.25-.04 2.29-.32-5.47-5.16-.29 7.51 1.86-1.37.21-.14 1.41 3.45.58-.24-3.77-9.21z"/></g></svg><view id="ico-succes" viewBox="0 2948 21.25 21.25"/><svg viewBox="-1 -1 21.25 21.25" width="21.25" height="21.25" id="ico-succes-" y="2948" xmlns="http://www.w3.org/2000/svg"><defs><style>.cncls-1{fill:#4f813d;stroke:#4f813d;stroke-miterlimit:10;stroke-width:.25px}</style></defs><g id="cnCalque_2" data-name="Calque 2"><g id="cnLayer_1_-_copie" data-name="Layer 1 - copie"><path class="cncls-1" d="M9.63 19.12a9.49 9.49 0 01-9.5-9.49 9.49 9.49 0 019.5-9.5 9.51 9.51 0 019.5 9.5 9.51 9.51 0 01-9.5 9.49zm0-18a8.5 8.5 0 108.5 8.49 8.5 8.5 0 00-8.5-8.48z"/><path class="cncls-1" d="M7.63 13.62a.5.5 0 01-.36-.14l-3-3A.5.5 0 015 9.77l2.64 2.65 6.65-6.65a.5.5 0 01.71.71l-7 7a.5.5 0 01-.36.14z"/></g></g></svg><view id="ico-telecharger" viewBox="0 2970 22 22"/><svg id="ico-telecharger-" data-name="Calque 2" viewBox="-1 -1 22 22" width="22" height="22" y="2970" xmlns="http://www.w3.org/2000/svg"><defs><style>.cocls-1,.cocls-2{fill:#223654;stroke-width:0}.cocls-2{fill:none}</style></defs><path class="cocls-2" d="M0 0h20v20H0z" id="coCalque_3" data-name="Calque 3"/><g id="coCalque_1_-_copie" data-name="Calque 1 - copie"><path class="cocls-1" d="M15.35 9.65a.513.513 0 00-.71 0l-4.15 4.15V2.5c0-.28-.22-.5-.5-.5s-.5.22-.5.5v11.29L5.34 9.64c-.2-.19-.51-.19-.71 0s-.19.51 0 .71l5 5a.485.485 0 00.7 0l5-5c.19-.19.19-.51 0-.71z"/><path class="cocls-1" d="M10 15.75a.75.75 0 01-.53-.22l-5-5a.75.75 0 111.06-1.06l3.72 3.72V2.5c0-.41.34-.75.75-.75s.75.34.75.75v10.69l3.72-3.72a.77.77 0 01.93-.1h.02l.11.1c.29.29.29.77 0 1.06l-5 5a.75.75 0 01-.53.22zm-5-6c-.07 0-.13.03-.18.07s-.07.11-.07.18.03.13.07.18l5 5c.09.09.26.09.35 0l5-5c.09-.09.1-.23.02-.33l-.02-.02a.26.26 0 00-.35 0l-4.57 4.57V2.5c0-.14-.11-.25-.25-.25s-.25.11-.25.25v11.9L5.18 9.83s-.11-.07-.18-.07z"/><g><path class="cocls-1" d="M18 19H2c-.83 0-1.5-.67-1.5-1.5v-2c0-.28.22-.5.5-.5s.5.22.5.5v2c0 .28.22.5.5.5h16c.28 0 .5-.22.5-.5v-2c0-.28.22-.5.5-.5s.5.22.5.5v2c0 .83-.67 1.5-1.5 1.5z"/><path class="cocls-1" d="M18 19.25H2c-.96 0-1.75-.79-1.75-1.75v-2c0-.41.34-.75.75-.75s.75.34.75.75v2c0 .14.11.25.25.25h16c.14 0 .25-.11.25-.25v-2c0-.41.34-.75.75-.75s.75.34.75.75v2c0 .96-.79 1.75-1.75 1.75zm-17-4c-.14 0-.25.11-.25.25v2c0 .69.56 1.25 1.25 1.25h16c.69 0 1.25-.56 1.25-1.25v-2c0-.14-.11-.25-.25-.25s-.25.11-.25.25v2c0 .41-.34.75-.75.75H2c-.41 0-.75-.34-.75-.75v-2c0-.14-.11-.25-.25-.25z"/></g></g></svg><view id="ico-televerser" viewBox="0 2992 22 22"/><svg id="ico-televerser-" data-name="Calque 2" viewBox="-1 -1 22 22" width="22" height="22" y="2992" xmlns="http://www.w3.org/2000/svg"><defs><style>.cpcls-1,.cpcls-2{fill:#223654;stroke-width:0}.cpcls-2{fill:none}</style></defs><g id="cpCalque_2_-_copie" data-name="Calque 2 - copie"><path class="cpcls-2" d="M0 0h20v20H0z" id="cpCalque_3" data-name="Calque 3"/><g id="cpCalque_1_-_copie" data-name="Calque 1 - copie"><path class="cpcls-1" d="M15.33 7.86c.19-.2.19-.52 0-.71l-5-5a.485.485 0 00-.7 0l-5 5c-.19.2-.2.52 0 .71s.51.19.71 0l4.15-4.15V15c0 .28.22.5.5.5s.5-.22.5-.5V3.7l4.15 4.15c.2.19.52.19.71 0h-.02z"/><path class="cpcls-1" d="M10.53 1.97l5 5c.29.29.29.77 0 1.06l-.11.1h-.02a.77.77 0 01-.93-.1l-3.72-3.72V15c0 .41-.34.75-.75.75s-.75-.34-.75-.75V4.31L5.53 8.03a.75.75 0 11-1.06-1.06l5-5a.75.75 0 011.06 0zM5 7.74c.07 0 .18-.07.18-.07L9.75 3.1V15c0 .14.11.25.25.25s.25-.11.25-.25V3.1l4.57 4.57c.09.09.26.09.35 0l.02-.02c.08-.1.07-.24-.02-.33l-5-5a.26.26 0 00-.35 0l-5 5c-.04.05-.07.11-.07.18s.02.14.07.18.11.07.18.07z"/><g><path class="cpcls-1" d="M18 19H2c-.83 0-1.5-.67-1.5-1.5v-2c0-.28.22-.5.5-.5s.5.22.5.5v2c0 .28.22.5.5.5h16c.28 0 .5-.22.5-.5v-2c0-.28.22-.5.5-.5s.5.22.5.5v2c0 .83-.67 1.5-1.5 1.5z"/><path class="cpcls-1" d="M18 19.25H2c-.96 0-1.75-.79-1.75-1.75v-2c0-.41.34-.75.75-.75s.75.34.75.75v2c0 .14.11.25.25.25h16c.14 0 .25-.11.25-.25v-2c0-.41.34-.75.75-.75s.75.34.75.75v2c0 .96-.79 1.75-1.75 1.75zm-17-4c-.14 0-.25.11-.25.25v2c0 .69.56 1.25 1.25 1.25h16c.69 0 1.25-.56 1.25-1.25v-2c0-.14-.11-.25-.25-.25s-.25.11-.25.25v2c0 .41-.34.75-.75.75H2c-.41 0-.75-.34-.75-.75v-2c0-.14-.11-.25-.25-.25z"/></g></g></g></svg><view id="ico-transmission" viewBox="0 3014 42 41.92"/><svg id="ico-transmission-" data-name="Calque 2" viewBox="-1 -1 42 41.92" width="42" height="41.92" y="3014" xmlns="http://www.w3.org/2000/svg"><defs><style>.cqcls-1,.cqcls-2{fill:#223654;stroke-width:0}.cqcls-2{fill:none}</style></defs><path class="cqcls-2" d="M.08 0H40v39.92H.08z" id="cqCalque_2-2" data-name="Calque 2"/><path class="cqcls-1" d="M39.59 2.62a.99.99 0 00-1.05-.18L.61 18.41c-.38.16-.63.54-.61.96.02.42.29.78.68.91l11.29 3.76V35.3a1.006 1.006 0 00.99 1c.3 0 .58-.13.77-.37l5.51-6.79 8.98 8.87c.19.19.44.29.7.29.08 0 .17 0 .25-.03.34-.09.61-.35.71-.68l10-33.95c.11-.37 0-.77-.29-1.03zM32.2 7.28L12.79 22.21l-8.96-2.99L32.2 7.28zM13.97 23.82L32.76 9.36 18.4 27.03l-4.43 5.45v-8.67zm14.49 11.59l-7.93-7.83L36.56 7.85l-8.11 27.56z" id="cqCalque_1-2" data-name="Calque 1"/></svg><view id="ico-triangle" viewBox="0 3056 18.02 18"/><svg viewBox="-1 -1 18.02 18" width="18.02" height="18" id="ico-triangle-" y="3056" xmlns="http://www.w3.org/2000/svg"><g fill="#095797"><path d="M15.37 5.07c.17-.2.09-.35-.17-.35H.75c-.25 0-.32.15-.15.35l6.98 8.47c.11.16.33.2.49.09.04-.02.07-.06.09-.09l7.21-8.47z"/><path d="M7.86 14.19c-.27 0-.54-.13-.71-.37L.21 5.38c-.3-.35-.2-.66-.15-.78.11-.24.37-.39.69-.39H15.2c.47 0 .65.27.7.39.05.12.15.43-.15.78s-7.21 8.47-7.21 8.47c-.03.05-.11.12-.19.18-.15.1-.32.15-.48.15zm.09-.98zm-6.59-8l6.51 7.9 6.72-7.9H1.36zm14.01-.15l-.38-.33.38.32-.38-.32.38.32z"/><path d="M15.37 5.07c.17-.2.09-.35-.17-.35H.75c-.25 0-.32.15-.15.35l6.98 8.47c.11.16.33.2.49.09.04-.02.07-.06.09-.09l7.21-8.47z"/><path d="M7.86 14.19c-.27 0-.54-.13-.71-.37L.21 5.38c-.3-.35-.2-.66-.15-.78.11-.24.37-.39.69-.39H15.2c.47 0 .65.27.7.39.05.12.15.43-.15.78s-7.21 8.47-7.21 8.47c-.03.05-.11.12-.19.18-.15.1-.32.15-.48.15zm.09-.98zm-6.59-8l6.51 7.9 6.72-7.9H1.36zm14.01-.15l-.38-.33.38.32-.38-.32.38.32z"/></g><path fill="none" d="M.02 0h16v16h-16z"/></svg><view id="ico-utilisateur" viewBox="0 3074 22 22"/><svg width="22" height="22" viewBox="-1 -1 22 22" id="ico-utilisateur-" y="3074" xmlns="http://www.w3.org/2000/svg"><path d="M9.5 11C6.467 11 4 8.533 4 5.5S6.467 0 9.5 0 15 2.467 15 5.5 12.533 11 9.5 11zm0-10C7.019 1 5 3.019 5 5.5S7.019 10 9.5 10 14 7.981 14 5.5 11.981 1 9.5 1zM17.5 20h-16C.673 20 0 19.327 0 18.5c0-.068.014-1.685 1.225-3.3.705-.94 1.67-1.687 2.869-2.219C5.558 12.33 7.377 12 9.5 12s3.942.33 5.406.981c1.199.533 2.164 1.279 2.869 2.219C18.986 16.815 19 18.432 19 18.5c0 .827-.673 1.5-1.5 1.5zm-8-7c-3.487 0-6.06.953-7.441 2.756C1.024 17.107 1.001 18.488 1 18.502a.5.5 0 00.5.498h16a.5.5 0 00.5-.5c0-.012-.023-1.393-1.059-2.744C15.559 13.953 12.986 13 9.5 13z" fill="#223654"/></svg><view id="ico-utilisateur-moins" viewBox="0 3096 22 22"/><svg width="22" height="22" viewBox="-1 -1 22 22" id="ico-utilisateur-moins-" y="3096" xmlns="http://www.w3.org/2000/svg"><path d="M9.5 11C6.467 11 4 8.533 4 5.5S6.467 0 9.5 0 15 2.467 15 5.5 12.533 11 9.5 11zm0-10C7.019 1 5 3.019 5 5.5S7.019 10 9.5 10 14 7.981 14 5.5 11.981 1 9.5 1zM11.5 20h-10C.673 20 0 19.327 0 18.5c0-.068.014-1.685 1.225-3.3.705-.94 1.67-1.687 2.869-2.219C5.558 12.33 7.377 12 9.5 12c.351 0 .698.011 1.031.031a.5.5 0 01-.062.998A16.066 16.066 0 009.5 13c-3.487 0-6.06.953-7.441 2.756C1.024 17.107 1.001 18.488 1 18.502a.5.5 0 00.5.498h10a.5.5 0 010 1z" fill="#223654"/><path d="M15.5 20c-2.481 0-4.5-2.019-4.5-4.5s2.019-4.5 4.5-4.5 4.5 2.019 4.5 4.5-2.019 4.5-4.5 4.5zm0-8c-1.93 0-3.5 1.57-3.5 3.5s1.57 3.5 3.5 3.5 3.5-1.57 3.5-3.5-1.57-3.5-3.5-3.5z" fill="#223654"/><path d="M17.5 16h-4a.5.5 0 010-1h4a.5.5 0 010 1z" fill="#223654"/></svg><view id="ico-utilisateur-plus" viewBox="0 3118 22 22"/><svg width="22" height="22" viewBox="-1 -1 22 22" id="ico-utilisateur-plus-" y="3118" xmlns="http://www.w3.org/2000/svg"><path d="M9.5 11C6.467 11 4 8.533 4 5.5S6.467 0 9.5 0 15 2.467 15 5.5 12.533 11 9.5 11zm0-10C7.019 1 5 3.019 5 5.5S7.019 10 9.5 10 14 7.981 14 5.5 11.981 1 9.5 1zM11.5 20h-10C.673 20 0 19.327 0 18.5c0-.068.014-1.685 1.225-3.3.705-.94 1.67-1.687 2.869-2.219C5.558 12.33 7.377 12 9.5 12c.351 0 .698.011 1.031.031a.5.5 0 01-.062.998A16.066 16.066 0 009.5 13c-3.487 0-6.06.953-7.441 2.756C1.024 17.107 1.001 18.488 1 18.502a.5.5 0 00.5.498h10a.5.5 0 010 1z" fill="#223654"/><path d="M15.5 20c-2.481 0-4.5-2.019-4.5-4.5s2.019-4.5 4.5-4.5 4.5 2.019 4.5 4.5-2.019 4.5-4.5 4.5zm0-8c-1.93 0-3.5 1.57-3.5 3.5s1.57 3.5 3.5 3.5 3.5-1.57 3.5-3.5-1.57-3.5-3.5-3.5z" fill="#223654"/><path d="M17.5 15H16v-1.5a.5.5 0 00-1 0V15h-1.5a.5.5 0 000 1H15v1.5a.5.5 0 001 0V16h1.5a.5.5 0 000-1z" fill="#223654"/></svg><view id="ico-utilisateurs2" viewBox="0 3140 42 42"/><svg viewBox="-1 -1 42 42" width="42" height="42" id="ico-utilisateurs2-" y="3140" xmlns="http://www.w3.org/2000/svg"><path fill="none" d="M0 0h40v40H0z"/><g fill="#223654"><path d="M36.29 34.42H14.86c-1.62 0-2.92-1.31-2.92-2.92 0-.1.02-2.32 1.79-4.52 1.03-1.27 2.42-2.26 4.15-2.96 2.08-.86 4.67-1.29 7.69-1.29s5.61.43 7.69 1.29c1.73.7 3.12 1.71 4.15 2.96 1.77 2.18 1.79 4.42 1.79 4.52 0 1.62-1.31 2.92-2.92 2.92zm-22.4-2.92c0 .53.43.97.97.97h21.43c.53 0 .97-.43.97-.97 0-.06-.06-1.75-1.44-3.37-1.89-2.26-5.43-3.45-10.25-3.45s-8.36 1.19-10.25 3.45c-1.38 1.64-1.44 3.31-1.44 3.37zM25.58 20.78c-4.3 0-7.79-3.49-7.79-7.79s3.49-7.79 7.79-7.79 7.79 3.49 7.79 7.79-3.49 7.79-7.79 7.79zm0-13.64c-3.21 0-5.84 2.63-5.84 5.84s2.63 5.84 5.84 5.84 5.84-2.63 5.84-5.84-2.63-5.84-5.84-5.84zM9.02 34.42H3.18c-1.62 0-2.92-1.31-2.92-2.92 0-.08 0-1.81 1.29-3.51.74-.99 1.73-1.75 2.98-2.32 1.48-.66 3.33-.99 5.47-.99.35 0 .7 0 1.03.02.55.04.95.49.92 1.03s-.49.95-1.03.92c-.29 0-.6-.02-.92-.02-7.58 0-7.79 4.64-7.79 4.87 0 .53.45.97.97.97h5.84c.55 0 .97.43.97.97s-.43.97-.97.97zM9.99 22.73c-3.21 0-5.84-2.63-5.84-5.84s2.63-5.84 5.84-5.84 5.84 2.63 5.84 5.84-2.63 5.84-5.84 5.84zm0-9.74c-2.14 0-3.9 1.75-3.9 3.9s1.75 3.9 3.9 3.9 3.9-1.75 3.9-3.9-1.75-3.9-3.9-3.9z"/></g></svg><view id="ico-utilisateurs3" viewBox="0 3182 42 42"/><svg viewBox="-1 -1 42 42" width="42" height="42" id="ico-utilisateurs3-" y="3182" xmlns="http://www.w3.org/2000/svg"><path fill="none" d="M0 0h40v40H0z"/><path d="M37.42 30.98c-.71-.75-1.55-1.4-2.56-1.97-.59-1.18-1.77-2.75-4.05-3.99-.92-.51-1.99-.94-3.17-1.28 2.38-1.36 3.99-3.91 3.99-6.84 0-3.19-1.91-5.94-4.62-7.18-.59-1.3-1.49-2.4-2.67-3.22-.39-.28-.83-.51-1.26-.71-.59-1.3-1.49-2.4-2.67-3.22A7.865 7.865 0 009.46 13.52a7.94 7.94 0 003.22 2.67c.2.43.43.87.71 1.26.37.53.81 1 1.28 1.42-2.95.1-5.51.51-7.61 1.26-1.99.71-3.58 1.71-4.76 2.95C.22 25.33.2 27.61.2 27.71c0 1.63 1.32 2.95 2.95 2.95h1.12c-.14.57-.14.94-.14.98 0 1.63 1.32 2.95 2.95 2.95H8.2c-.14.57-.14.94-.14.98 0 1.63 1.32 2.95 2.95 2.95h25.56c1.63 0 2.95-1.32 2.95-2.95 0-.1-.02-2.38-2.1-4.6zM29.69 16.9c0 3.24-2.65 5.9-5.9 5.9s-5.9-2.65-5.9-5.9 2.65-5.9 5.9-5.9 5.9 2.65 5.9 5.9zM10.03 9.03c0-3.24 2.65-5.9 5.9-5.9 1.71 0 3.3.75 4.4 1.99h-.47c-4.35 0-7.87 3.52-7.87 7.87v.47A5.887 5.887 0 0110 9.06l.02-.02zm3.93 3.93c0-3.24 2.65-5.9 5.9-5.9 1.71 0 3.3.75 4.4 1.99h-.47c-4.35 0-7.87 3.52-7.87 7.87v.47a5.887 5.887 0 01-1.99-4.4l.02-.02zM3.15 28.7c-.53 0-.98-.43-.98-.98 0-.1.08-1.73 1.67-3.38 1.57-1.59 4.94-3.52 12.09-3.52h1.06c.43.75.98 1.42 1.63 1.97-2.95.1-5.51.51-7.61 1.26-1.99.71-3.58 1.71-4.76 2.95-.53.57-.92 1.12-1.22 1.65H3.14v.06zm3.93 3.93c-.53 0-.98-.43-.98-.98 0-.12.08-1.73 1.67-3.38 1.57-1.59 4.94-3.52 12.09-3.52 5.98 0 9.34 1.32 11.25 2.79-2.1-.55-4.54-.83-7.31-.83-3.48 0-6.45.43-8.85 1.28-1.99.71-3.58 1.71-4.76 2.95-.53.57-.92 1.12-1.22 1.65H7.08v.04zm29.49 3.93H11.02c-.53 0-.98-.43-.98-.98 0-.1.08-1.73 1.67-3.38 1.57-1.59 4.94-3.52 12.09-3.52s10.52 1.91 12.07 3.52c1.61 1.65 1.67 3.26 1.69 3.38 0 .53-.43.98-.98.98z" fill="#223654"/></svg><view id="ico-xfermer" viewBox="0 3224 19.06 19.06"/><svg id="ico-xfermer-" viewBox="-1 -1 19.06 19.06" width="19.06" height="19.06" y="3224" xmlns="http://www.w3.org/2000/svg"><defs><style>.cxcls-1{fill:#19406c;stroke:#19406c;stroke-miterlimit:10}</style></defs><path class="cxcls-1" d="M9.13 8.53l7.31-7.31c.16-.16.16-.43 0-.6a.435.435 0 00-.6 0L8.53 7.93 1.22.62a.435.435 0 00-.6 0c-.16.16-.16.43 0 .6l7.31 7.31-7.31 7.31c-.16.16-.16.43 0 .6.08.08.19.12.3.12s.22-.04.3-.12l7.31-7.31 7.31 7.31c.08.08.19.12.3.12s.22-.04.3-.12c.16-.17.16-.43 0-.6L9.13 8.53z" id="cxCalque_2-2"/></svg><view id="ico-xfermer-bleu" viewBox="0 3244 22 22"/><svg width="22" height="22" viewBox="-1 -1 22 22" id="ico-xfermer-bleu-" y="3244" xmlns="http://www.w3.org/2000/svg"><path d="M10.707 10.5l8.646-8.646a.5.5 0 00-.707-.707L10 9.793 1.354 1.147a.5.5 0 00-.707.707L9.293 10.5.647 19.146a.5.5 0 00.708.707l8.646-8.646 8.646 8.646a.498.498 0 00.708 0 .5.5 0 000-.707L10.709 10.5z" fill="#095797"/></svg><view id="main-cible" viewBox="0 3266 42 42"/><svg viewBox="-1 -1 42 42" width="42" height="42" id="main-cible-" y="3266" xmlns="http://www.w3.org/2000/svg"><path fill="none" d="M0 0h40v40H0z"/><path d="M15.15 13.06c2.3-3.34 6.14-5.53 10.5-5.53 7.04 0 12.75 5.71 12.75 12.75s-5.71 12.75-12.75 12.75c-4.12 0-7.77-1.96-10.1-4.99" fill="none" stroke="#223654" stroke-miterlimit="10" stroke-width="2"/><path d="M17.64 17.86c1.04-3.44 4.23-5.94 8-5.94 4.62 0 8.37 3.75 8.37 8.37s-3.75 8.37-8.37 8.37c-3.26 0-6.08-1.87-7.46-4.58" fill="none" stroke="#223654" stroke-miterlimit="10" stroke-width="2"/><path d="M22.31 22.27c.41.7 1.04 1.27 1.84 1.61a3.91 3.91 0 005.1-2.11 3.91 3.91 0 00-2.11-5.1 3.885 3.885 0 00-4.56 1.22" fill="none" stroke="#223654" stroke-miterlimit="10" stroke-width="2"/><path d="M3.75 26.75c-.4 0-.74.34-.74.74s.34.74.74.74.74-.34.74-.74-.34-.74-.74-.74z" fill="#223654"/><path d="M14.04 12c-.57 0-1.13.21-1.56.64l-5.2 5.14c-.34-.8-1.12-1.36-2.04-1.36H2.29c-1.22 0-2.21 1-2.21 2.21v10.33c0 1.22 1 2.21 2.21 2.21h2.95c.8 0 1.5-.42 1.89-1.06.94.49 2.65 1.06 5.49 1.06h1.48a2.217 2.217 0 002.06-3.02c.94-.26 1.63-1.11 1.63-2.14 0-.29-.06-.57-.15-.81.94-.26 1.63-1.11 1.63-2.14 0-.26-.05-.51-.12-.74h3.81c1.22 0 2.21-1 2.21-2.21s-1-2.21-2.21-2.21h-8.81l1.64-2.08c.35-.45.54-1.03.5-1.62-.03-.59-.28-1.15-.68-1.55-.43-.43-1-.64-1.56-.64zm-1.43 17.7c-3.11 0-4.63-.77-5.17-1.1v-8.92l6.07-5.99c.14-.14.34-.21.53-.21s.38.07.52.21c.31.31.34.87.07 1.22l-2.59 3.27a.76.76 0 00-.09.78c.12.26.38.41.66.41h10.33c.4 0 .74.34.74.74s-.34.74-.74.74h-7.38c-.4 0-.74.34-.74.74s.34.74.74.74h1.48c.4 0 .74.33.74.74s-.34.74-.74.74h-1.48c-.4 0-.74.33-.74.74s.34.74.74.74.74.33.74.74-.34.74-.74.74h-1.48c-.4 0-.74.33-.74.74s.34.74.74.74.74.33.74.74-.34.74-.74.74H12.6zm-10.33 0c-.4 0-.74-.34-.74-.74V18.63c0-.4.34-.74.74-.74h2.95c.4 0 .74.34.74.74v10.33c0 .4-.34.74-.74.74H2.28z" fill="#223654"/></svg></svg>