<?xml version="1.0" encoding="utf-8"?><!DOCTYPE svg PUBLIC "-//W3C//DTD SVG 1.1//EN" "http://www.w3.org/Graphics/SVG/1.1/DTD/svg11.dtd"><svg viewBox="0 0 975.1 1841" xmlns="http://www.w3.org/2000/svg" xmlns:xlink="http://www.w3.org/1999/xlink"><view id="QUEBEC_blanc" viewBox="0 0 465.55 93"/><svg viewBox="-1 -1 465.55 93" width="465.55" height="93" id="QUEBEC_blanc-" xmlns="http://www.w3.org/2000/svg"><defs><style>.aacls-1,.aacls-2{fill:#fff}.aacls-2{fill-rule:evenodd}</style></defs><g id="aaCalque_2" data-name="Calque 2"><g id="aaSignature"><path class="aacls-1" d="M125.22 62.89V24.11h-.29c-1.38 1.27-6.48 1.37-8.64 1.37h-3.75v.31c4.33 2.66 3.74 6.59 3.74 11.48v16.41c0 8.21-8.06 14-14.56 14-8.56 0-12.11-6.08-12.11-15.89V24.11h-.3c-1.38 1.27-6.51 1.37-8.67 1.37h-3.7v.32c4.33 2.66 3.74 6.58 3.74 11.47v16.36c0 15 6.49 22.08 18.1 22.08 6.89 0 14-2.44 17.51-8.28v7.08H129v-.32c-4.37-2.45-3.78-6.4-3.78-11.3zM144.88 42.15c1.18-6.66 6.1-10.89 12.7-10.89 7.09 0 11.61 3.49 12.7 10.89zm35.74 6.18c.39-13.68-8.77-24-22.16-24-14.66 0-24.6 10.64-24.6 25.4s11.51 26.21 28.25 26.21a33.26 33.26 0 0013.58-2.64l4.93-10h-.3a24.65 24.65 0 01-16.15 5.7c-11.12 0-19.49-7.59-19.68-20.65zM188.42 1.58c2.36 0 7.17-.15 8.63-1.58h.29v67.17a30.3 30.3 0 008.12 1.27c10.75 0 16.92-7.53 16.92-18 0-10.28-4.8-18.23-14.67-18.23a15.91 15.91 0 00-8.22 2.33l5.28-9a19.53 19.53 0 016.95-1.17c11.15 0 20.63 9.68 20.63 24.2 0 16.63-11.25 27.39-29 27.39-6.65 0-13-1.18-17.85-1.92v-.33c3.25-1.49 3-5 3-8.51V16.33c0-4.91.59-11.77-3.64-14.43v-.32zM249.83 42.15c1.18-6.66 6.1-10.89 12.7-10.89 7.09 0 11.61 3.49 12.7 10.89zm35.73 6.18c.4-13.68-8.76-24-22.15-24-14.66 0-24.6 10.64-24.6 25.4s11.51 26.21 28.24 26.21a33.27 33.27 0 0013.59-2.64l4.92-10h-.29a24.65 24.65 0 01-16.15 5.7c-11.12 0-19.49-7.59-19.69-20.65zM329.59 36.49h-.3c-2.85-3.52-7.58-5.23-12-5.23-9.55 0-16.43 7.25-16.43 17.37 0 12.25 9.54 20.35 20.47 20.35a24.18 24.18 0 0014.37-5.22h.3l-5.12 10.06a34.32 34.32 0 01-13 2.11c-15.15 0-27-10.68-27-24.53 0-18.32 13.22-27.08 28.09-27.08a45.37 45.37 0 0110.63 1.26z"/><path class="aacls-2" d="M168.33 15.53V4.87c-6.45 2.89-12.44 8.3-16.44 13.56v4.15c9.58-6.45 16.44-6.75 16.44-7.05z"/><path class="aacls-1" d="M36.43 68.6c-14.87 0-25.21-16.77-25.21-31V36c.18-13.8 9.12-26.75 24.71-26.75 16.4 0 24.86 15.52 25 30.23V41c.01 15.66-9.73 27.6-24.5 27.6zm50.95 16.3c-11 1.79-21.53-1.66-32.74-14.49 10.83-5.44 17.53-19 17.53-31.55v-1.57C72 15.77 55.8 1.56 36.53 1.56S.15 16.35 0 38v1.5c0 21.1 15.66 36.77 34.85 36.77a34.32 34.32 0 008.08-1.07C55.5 87 66.71 92 76.39 90.83c4.59-.55 9.45-2.38 12.36-6.16zM375.65 27.17c-3 .95-3-1.75-3-1.75 2.68.47 2.94-1.78 2.94-1.78h-5.35v-2.52h2.54s-.43-3.36-2.92-3.36c-2.29 0-2.61 2.54-2.19 3.59-1.15.2-2.83-1.79-2.83-4.13a4.45 4.45 0 014.45-4.57c3.37 0 5.89 3.89 5.89 8.47h1a15.1 15.1 0 00-.24-4.22c-.72-3.17-2.3-5-2.33-7.19-.06-3.73 2.19-4.33 4-7.59 1.8 3.26 4.05 3.86 4 7.59 0 2.15-1.61 4-2.34 7.19a14.89 14.89 0 00-.23 4.22h1c0-4.58 2.53-8.47 5.9-8.47a4.45 4.45 0 014.45 4.57c0 2.34-1.68 4.33-2.83 4.13.42-1.05.1-3.59-2.2-3.59-2.48 0-2.91 3.36-2.91 3.36H385v2.52h-5.34s.26 2.25 2.94 1.78c0 0 0 2.7-3.05 1.75 0 0-.12 2.41-1.93 3.28-1.85-.87-1.97-3.28-1.97-3.28zm25.92-25.58h-48V31h48zM437.63 27.17c-3 .95-3.05-1.75-3.05-1.75 2.67.47 2.94-1.78 2.94-1.78h-5.34v-2.52h2.53s-.43-3.36-2.92-3.36c-2.29 0-2.61 2.54-2.19 3.59-1.15.2-2.83-1.79-2.83-4.13a4.45 4.45 0 014.45-4.57c3.37 0 5.9 3.89 5.9 8.47h1a14.89 14.89 0 00-.23-4.22c-.73-3.17-2.3-5-2.34-7.19-.06-3.73 2.19-4.33 4-7.59 1.79 3.26 4.05 3.86 4 7.59 0 2.15-1.6 4-2.32 7.19a15.31 15.31 0 00-.25 4.22h1c0-4.58 2.52-8.47 5.89-8.47a4.45 4.45 0 014.45 4.57c0 2.34-1.68 4.33-2.83 4.13.42-1.05.1-3.59-2.19-3.59-2.49 0-2.92 3.36-2.92 3.36h2.53v2.52h-5.31s.26 2.25 2.94 1.78c0 0 0 2.7-3.05 1.75 0 0-.12 2.41-1.93 3.28-1.81-.87-1.93-3.28-1.93-3.28zm25.92-25.58h-48V31h48zM375.65 70.63c-3 1-3-1.75-3-1.75 2.68.48 2.94-1.78 2.94-1.78h-5.35v-2.52h2.54s-.43-3.36-2.92-3.36c-2.29 0-2.61 2.54-2.19 3.6-1.15.19-2.83-1.8-2.83-4.14a4.45 4.45 0 014.45-4.57c3.37 0 5.89 3.89 5.89 8.47h1a15.1 15.1 0 00-.24-4.22c-.72-3.16-2.3-5-2.33-7.18-.06-3.74 2.19-4.34 4-7.6 1.8 3.26 4.05 3.86 4 7.6 0 2.14-1.61 4-2.34 7.18a14.89 14.89 0 00-.23 4.22h1c0-4.58 2.53-8.47 5.9-8.47a4.45 4.45 0 014.45 4.57c0 2.34-1.68 4.33-2.83 4.14.42-1.06.1-3.6-2.2-3.6-2.48 0-2.91 3.36-2.91 3.36H385v2.52h-5.34s.26 2.26 2.94 1.78c0 0 0 2.7-3.05 1.75 0 0-.12 2.41-1.93 3.28-1.85-.91-1.97-3.28-1.97-3.28zm25.92-25.57h-48v29.4h48zM437.63 70.63c-3 1-3.05-1.75-3.05-1.75 2.67.48 2.94-1.78 2.94-1.78h-5.34v-2.52h2.53s-.43-3.36-2.92-3.36c-2.29 0-2.61 2.54-2.19 3.6-1.15.19-2.83-1.8-2.83-4.14a4.45 4.45 0 014.45-4.57c3.37 0 5.9 3.89 5.9 8.47h1a14.89 14.89 0 00-.23-4.22c-.73-3.16-2.3-5-2.34-7.18-.06-3.74 2.19-4.34 4-7.6 1.79 3.26 4.05 3.86 4 7.6 0 2.14-1.6 4-2.32 7.18a15.31 15.31 0 00-.25 4.22h1c0-4.58 2.52-8.47 5.89-8.47a4.45 4.45 0 014.45 4.57c0 2.34-1.68 4.33-2.83 4.14.42-1.06.1-3.6-2.19-3.6-2.49 0-2.92 3.36-2.92 3.36h2.53v2.52h-5.31s.26 2.26 2.94 1.78c0 0 0 2.7-3.05 1.75 0 0-.12 2.41-1.93 3.28-1.81-.91-1.93-3.28-1.93-3.28zm25.92-25.57h-48v29.4h48z"/></g></g></svg><view id="ico-ampoule" viewBox="0 93 22 22"/><svg width="22" height="22" viewBox="-1 -1 22 22" id="ico-ampoule-" y="93" xmlns="http://www.w3.org/2000/svg"><path d="M10.5 20h-1a.5.5 0 010-1h1a.5.5 0 010 1zM10 0C6.692 0 4 2.692 4 6c0 2.114 1.014 3.828 1.057 3.9.266.444.645 1.228.826 1.712l.798 2.127c.121.322.353.613.641.834a1.493 1.493 0 00.061 1.927A1.502 1.502 0 008.5 19h3a1.502 1.502 0 001.117-2.5 1.494 1.494 0 00.061-1.927c.288-.221.52-.511.641-.834l.797-2.127c.182-.484.56-1.268.826-1.712C14.985 9.828 16 8.114 16 6c0-3.308-2.692-6-6-6zm1.5 18h-3a.5.5 0 010-1h3a.5.5 0 010 1zm.5-2.5a.5.5 0 01-.5.5h-3a.5.5 0 010-1h3a.5.5 0 01.5.5zm2.085-6.115a13.72 13.72 0 00-.905 1.876l-.797 2.127c-.12.32-.541.612-.883.612h-3c-.342 0-.763-.292-.883-.612l-.798-2.127a13.777 13.777 0 00-.905-1.876C5.905 9.37 5 7.84 5 6c0-2.757 2.243-5 5-5s5 2.243 5 5c0 1.829-.906 3.371-.915 3.385z" fill="#223654"/></svg><view id="ico-avertissement" viewBox="0 115 26 23"/><svg width="26" height="23" viewBox="-1 -1 26 23" id="ico-avertissement-" y="115" xmlns="http://www.w3.org/2000/svg"><defs><style>.aca{fill:#ad781c}</style></defs><path class="aca" d="M23.368 21H.633a.633.633 0 01-.546-.306.6.6 0 01-.005-.615L11.45.315a.638.638 0 011.1 0l11.368 19.764a.606.606 0 010 .615.632.632 0 01-.55.306zM1.712 19.765h20.574L11.999 1.878z"/><path class="aca" d="M12.001 14.934a.638.638 0 01-.638-.638V7.919a.638.638 0 011.275 0v6.377a.638.638 0 01-.637.638zM12.001 18.449a.638.638 0 01-.638-.637v-1.276a.638.638 0 011.275 0v1.276a.638.638 0 01-.637.637z"/></svg><view id="ico-burger" viewBox="0 138 22 22"/><svg width="22" height="22" viewBox="-1 -1 22 22" id="ico-burger-" y="138" xmlns="http://www.w3.org/2000/svg"><path d="M17.5 6h-15a.5.5 0 010-1h15a.5.5 0 010 1zM17.5 11h-15a.5.5 0 010-1h15a.5.5 0 010 1zM17.5 16h-15a.5.5 0 010-1h15a.5.5 0 010 1z" fill="#19406C"/></svg><view id="ico-chevron" viewBox="0 160 15 10"/><svg width="15" height="10" viewBox="-1 -1 15 10" id="ico-chevron-" y="160" xmlns="http://www.w3.org/2000/svg"><path data-name="Tracé 700" d="M7.203.667l5.8 5.722-1.4 1.61-5.1-5.03-5.1 5.03-1.4-1.61 5.8-5.722.7-.667z" fill="#223654"/></svg><view id="ico-chevron-cercle" viewBox="0 170 22 22"/><svg width="22" height="22" viewBox="-1 -1 22 22" id="ico-chevron-cercle-" y="170" xmlns="http://www.w3.org/2000/svg"><path d="M16.218 3.782C14.424 1.988 12.038 1 9.5 1s-4.923.988-6.718 2.782S0 7.962 0 10.499s.988 4.923 2.782 6.718 4.18 2.782 6.718 2.782 4.923-.988 6.718-2.782S19 13.037 19 10.499s-.988-4.923-2.782-6.717zM9.5 19C4.813 19 1 15.187 1 10.5S4.813 2 9.5 2c4.687 0 8.5 3.813 8.5 8.5S14.187 19 9.5 19z" fill="#223654"/><path d="M8 16a.5.5 0 01-.354-.853l4.646-4.646-4.646-4.646a.5.5 0 01.707-.707l5 5a.5.5 0 010 .707l-5 5a.498.498 0 01-.354.146z" fill="#223654"/></svg><view id="ico-clipboard" viewBox="0 192 22 22"/><svg width="22" height="22" viewBox="-1 -1 22 22" id="ico-clipboard-" y="192" xmlns="http://www.w3.org/2000/svg"><path d="M16.5 20h-14c-.827 0-1.5-.673-1.5-1.5v-14C1 3.673 1.673 3 2.5 3h1a.5.5 0 010 1h-1a.5.5 0 00-.5.5v14a.5.5 0 00.5.5h14a.5.5 0 00.5-.5v-14a.5.5 0 00-.5-.5h-1a.5.5 0 010-1h1c.827 0 1.5.673 1.5 1.5v14c0 .827-.673 1.5-1.5 1.5z" fill="#095797"/><path d="M13.501 5H5.5a.5.5 0 01-.5-.5c0-1.005.453-1.786 1.276-2.197.275-.138.547-.213.764-.254C7.253.885 8.275 0 9.499 0s2.246.885 2.459 2.049c.218.041.489.116.764.254.816.408 1.268 1.178 1.276 2.17l.001.027a.5.5 0 01-.5.5zM6.06 4h6.88a1.21 1.21 0 00-.638-.79c-.389-.203-.8-.21-.805-.21A.498.498 0 0111 2.5c0-.827-.673-1.5-1.5-1.5S8 1.673 8 2.5a.5.5 0 01-.5.5c-.001 0-.413.007-.802.21A1.208 1.208 0 006.06 4z" fill="#095797"/><path d="M9.5 3c-.132 0-.261-.053-.353-.147S9 2.631 9 2.5a.498.498 0 01.5-.5.498.498 0 01.5.5.5.5 0 01-.5.5z" fill="#095797"/></svg><view id="ico-crayon" viewBox="0 214 22 22"/><svg width="22" height="22" viewBox="-1 -1 22 22" id="ico-crayon-" y="214" xmlns="http://www.w3.org/2000/svg"><path d="M19.104.896C18.542.334 17.795.025 17 .025s-1.542.309-2.104.871l-12.75 12.75a.496.496 0 00-.116.183l-2 5.5a.5.5 0 00.641.64l5.5-2a.51.51 0 00.183-.116l12.75-12.75c.562-.562.871-1.309.871-2.104s-.309-1.542-.871-2.104zM5.725 17.068l-4.389 1.596 1.596-4.389L14 3.207 16.793 6 5.725 17.068zM18.396 4.396l-.896.896-2.793-2.793.896-.896c.373-.373.869-.578 1.396-.578s1.023.205 1.396.578.578.869.578 1.396-.205 1.023-.578 1.396z" fill="#223654"/></svg><view id="ico-doc-supprime" viewBox="0 236 21.35 21.35"/><svg viewBox="-1 -1 21.35 21.35" width="21.35" height="21.35" id="ico-doc-supprime-" y="236" xmlns="http://www.w3.org/2000/svg"><path d="M16.22 16.32l-1.71-1.71 1.71-1.71c.19-.19.19-.49 0-.68s-.49-.19-.68 0l-1.71 1.71-1.71-1.71c-.19-.19-.5-.19-.68 0s-.19.49 0 .68l1.71 1.71-1.71 1.71c-.19.19-.19.49 0 .68s.5.19.68 0l1.71-1.71L15.54 17c.19.19.5.19.68 0s.19-.5 0-.68zM15.01 18.57h.39c.68 0 1.25-.48 1.41-1.11-.49.51-1.11.89-1.8 1.11z" fill="#223654"/><path d="M2.83 17.6a.48.48 0 01-.48-.48V1.65c0-.27.22-.48.48-.48h8.22v3.38c0 .8.65 1.45 1.45 1.45h3.38v4.9c.36.21.69.47.97.78V5.04c0-.13-.05-.25-.14-.34L12.36.34a.476.476 0 00-.34-.14H2.83c-.8 0-1.45.65-1.45 1.45v15.47c0 .8.65 1.45 1.45 1.45h9.63a4.21 4.21 0 01-1.66-.97H2.83zm9.19-16.23l3.67 3.67h-3.18a.48.48 0 01-.48-.48V1.37z" fill="#223654"/><path d="M13.74 19.28c-.45 0-.91-.08-1.42-.24-.71-.23-1.34-.59-1.85-1.08A4.691 4.691 0 019 14.54c0-2.62 2.13-4.74 4.74-4.74.84 0 1.65.23 2.4.67a4.746 4.746 0 012.34 4.07c0 1.18-.47 2.37-1.31 3.26-.54.57-1.24 1-2.01 1.24-.51.16-.97.24-1.42.24zm0-8.49c-2.06 0-3.74 1.68-3.74 3.74 0 1.02.41 1.98 1.16 2.7.4.39.9.67 1.46.85.83.26 1.41.26 2.24 0 .61-.19 1.16-.53 1.59-.98.67-.7 1.04-1.62 1.04-2.57s-.35-1.83-1-2.53c-.24-.26-.53-.5-.85-.69-.6-.35-1.23-.53-1.89-.53z" fill="#223654"/><path fill="none" d="M0 0h19.35v19.35H0z"/></svg><view id="ico-docs-selectionnes" viewBox="0 258 22 22.05"/><svg viewBox="-1 -1 22 22.05" width="22" height="22.05" id="ico-docs-selectionnes-" y="258" xmlns="http://www.w3.org/2000/svg"><path d="M16.59 4.05h-.5v-.5c0-.83-.67-1.5-1.5-1.5h-.5v-.5c0-.83-.67-1.5-1.5-1.5h-7.5a.47.47 0 00-.35.15L1.23 3.7a.51.51 0 00-.15.35v10.5c0 .83.67 1.5 1.5 1.5h.5v.5c0 .83.67 1.5 1.5 1.5h.5v.5c0 .83.67 1.5 1.5 1.5h10c.83 0 1.5-.67 1.5-1.5v-13c0-.83-.67-1.5-1.5-1.5zM5.09 1.26v2.29c0 .28-.22.5-.5.5H2.3l2.79-2.79zm-3 13.29v-9.5h2.5c.83 0 1.5-.67 1.5-1.5v-2.5h6.5c.28 0 .5.22.5.5v13c0 .28-.22.5-.5.5h-10c-.28 0-.5-.22-.5-.5zm2 2v-.5h8.5c.83 0 1.5-.67 1.5-1.5V3.05h.5c.28 0 .5.22.5.5v13c0 .28-.22.5-.5.5h-10c-.28 0-.5-.22-.5-.5zm13 2c0 .28-.22.5-.5.5h-10c-.28 0-.5-.22-.5-.5v-.5h8.5c.83 0 1.5-.67 1.5-1.5V5.05h.5c.28 0 .5.22.5.5v13z" fill="#223654"/><path d="M6.12 12.26a.47.47 0 01-.35-.15l-2-2a.513.513 0 010-.71c.19-.19.51-.19.71 0l1.65 1.65 4.65-4.65c.2-.19.51-.19.71 0s.2.51 0 .71l-5 5c-.1.1-.23.15-.35.15z" fill="#223654"/><path fill="none" d="M0 0h20v20H0z"/></svg><view id="ico-enveloppe" viewBox="0 281 22 22"/><svg width="22" height="22" viewBox="-1 -1 22 22" id="ico-enveloppe-" y="281" xmlns="http://www.w3.org/2000/svg"><path d="M17.5 6h-16C.673 6 0 6.673 0 7.5v9c0 .827.673 1.5 1.5 1.5h16c.827 0 1.5-.673 1.5-1.5v-9c0-.827-.673-1.5-1.5-1.5zm0 1c.03 0 .058.003.087.008l-7.532 5.021c-.29.193-.819.193-1.109 0L1.414 7.008A.494.494 0 011.501 7h16zm0 10h-16a.5.5 0 01-.5-.5V7.934l7.391 4.927c.311.207.71.311 1.109.311s.798-.104 1.109-.311L18 7.934V16.5a.5.5 0 01-.5.5z" fill="#223654"/></svg><view id="ico-erreur" viewBox="0 303 26 26"/><svg width="26" height="26" viewBox="-1 -1 26 26" id="ico-erreur-" y="303" xmlns="http://www.w3.org/2000/svg"><defs><style>.ala{fill:#cb381f}</style></defs><path class="ala" d="M17.885 16.763l-4.969-4.762 4.969-4.763a.7.7 0 00.051-.928.579.579 0 00-.86-.055L12 11.122 6.924 6.255a.579.579 0 00-.86.055.693.693 0 00.051.928l4.969 4.763-4.969 4.762a.7.7 0 00-.051.928.578.578 0 00.86.055L12 12.879l5.076 4.867a.579.579 0 00.4.166.59.59 0 00.455-.221.694.694 0 00-.046-.928z"/><path class="ala" d="M11.998 23.999a12 12 0 118.486-3.514 11.926 11.926 0 01-8.486 3.514zm0-22.737a10.737 10.737 0 1010.739 10.737A10.749 10.749 0 0011.998 1.263z"/></svg><view id="ico-fleche" viewBox="0 329 18 22"/><svg width="18" height="22" viewBox="-1 -1 18 22" id="ico-fleche-" y="329" xmlns="http://www.w3.org/2000/svg"><path d="M8.978.414c.015.012.035.017.049.031l6.582 6.171a1.194 1.194 0 010 1.767 1.4 1.4 0 01-1.885 0l-4.39-4.116V18.75a1.336 1.336 0 01-2.667 0V4.267l-4.39 4.116a1.4 1.4 0 01-1.885 0 1.194 1.194 0 010-1.767L6.974.445c.015-.014.035-.019.049-.031a1.361 1.361 0 011.955 0z" fill="#223654"/></svg><view id="ico-fleche-cercle" viewBox="0 351 22 22"/><svg width="22" height="22" viewBox="-1 -1 22 22" id="ico-fleche-cercle-" y="351" xmlns="http://www.w3.org/2000/svg"><path d="M16.218 3.782C14.424 1.988 12.038 1 9.5 1s-4.923.988-6.718 2.782S0 7.962 0 10.499s.988 4.923 2.782 6.718 4.18 2.782 6.718 2.782 4.923-.988 6.718-2.782S19 13.037 19 10.499s-.988-4.923-2.782-6.717zM9.5 19C4.813 19 1 15.187 1 10.5S4.813 2 9.5 2c4.687 0 8.5 3.813 8.5 8.5S14.187 19 9.5 19z" fill="#223654"/><path d="M15.353 10.147l-4-4a.5.5 0 00-.707.707L13.793 10H3.5a.5.5 0 000 1h10.293l-3.146 3.147a.5.5 0 00.706.706l4-4a.5.5 0 000-.707z" fill="#223654"/></svg><view id="ico-imprimante" viewBox="0 373 22 22"/><svg width="22" height="22" viewBox="-1 -1 22 22" id="ico-imprimante-" y="373" xmlns="http://www.w3.org/2000/svg"><path d="M18.5 4H17V1.5c0-.827-.673-1.5-1.5-1.5h-11C3.673 0 3 .673 3 1.5V4H1.5C.673 4 0 4.673 0 5.5v9c0 .827.673 1.5 1.5 1.5H3v2.5c0 .827.673 1.5 1.5 1.5h11c.827 0 1.5-.673 1.5-1.5V16h1.5c.827 0 1.5-.673 1.5-1.5v-9c0-.827-.673-1.5-1.5-1.5zM4 1.5a.5.5 0 01.5-.5h11a.5.5 0 01.5.5V4H4V1.5zM15.5 19h-11a.5.5 0 01-.5-.5V12h12v6.5a.5.5 0 01-.5.5zm3.5-4.5a.5.5 0 01-.5.5H17v-3h.5a.5.5 0 000-1h-15a.5.5 0 000 1H3v3H1.5a.5.5 0 01-.5-.5v-9a.5.5 0 01.5-.5h17a.5.5 0 01.5.5v9z" fill="#223654"/><path d="M14.5 14h-9a.5.5 0 010-1h9a.5.5 0 010 1zM14.5 16h-9a.5.5 0 010-1h9a.5.5 0 010 1zM14.5 18h-9a.5.5 0 010-1h9a.5.5 0 010 1zM16.5 9c-.827 0-1.5-.673-1.5-1.5S15.673 6 16.5 6s1.5.673 1.5 1.5S17.327 9 16.5 9zm0-2a.5.5 0 100 1 .5.5 0 000-1z" fill="#223654"/></svg><view id="ico-information" viewBox="0 395 21.25 21.25"/><svg viewBox="-1 -1 21.25 21.25" width="21.25" height="21.25" id="ico-information-" y="395" xmlns="http://www.w3.org/2000/svg"><defs><style>.apcls-1{fill:#095797;stroke:#095797;stroke-miterlimit:10;stroke-width:.25px}</style></defs><g id="apCalque_2" data-name="Calque 2"><g id="apLayer_1" data-name="Layer 1"><path class="apcls-1" d="M2.91 16.34a9.5 9.5 0 0013.43 0 9.48 9.48 0 000-13.43 9.5 9.5 0 00-13.43 0 9.5 9.5 0 000 13.43zM9.63 1.12a8.5 8.5 0 11-8.5 8.5 8.52 8.52 0 018.5-8.5z"/><path class="apcls-1" d="M9.63 4.12a.51.51 0 01.5.5v1a.5.5 0 01-.5.5.5.5 0 01-.5-.5v-1a.5.5 0 01.5-.5zM9.63 7.12a.51.51 0 01.5.5v7a.5.5 0 01-.5.5.5.5 0 01-.5-.5v-7a.5.5 0 01.5-.5z"/></g></g></svg><view id="ico-lien-externe" viewBox="0 417 31.21 31.61"/><svg width="31.21" height="31.61" viewBox="-1 -1 31.21 31.61" id="ico-lien-externe-" y="417" xmlns="http://www.w3.org/2000/svg"><g data-name="Groupe 394"><g data-name="Groupe 390"><g data-name="Groupe 389" fill="#095797"><path data-name="Tracé 671" d="M23.079 12.714a1.145 1.145 0 00-1.145 1.145v13.458H2.292v-20.1h13.057a1.146 1.146 0 100-2.291H.001v24.683h24.225v-15.75a1.146 1.146 0 00-1.147-1.145z"/><path data-name="Tracé 672" d="M18.784 0a1.146 1.146 0 000 2.291h6.533l-14.019 14.17a1.146 1.146 0 001.629 1.611l13.989-14.14v6.377a1.146 1.146 0 002.291 0V0z"/></g></g></g></svg><view id="ico-loupe-gris" viewBox="0 449 54.67 54.21"/><svg viewBox="-1 -1 54.67 54.21" width="54.67" height="54.21" id="ico-loupe-gris-" y="449" xmlns="http://www.w3.org/2000/svg"><defs><style>.arcls-1{fill:#8893a2}</style></defs><g id="arCalque_2" data-name="Calque 2"><path class="arcls-1" d="M52.67 47.81l-15-15a20.77 20.77 0 10-4.32 4.46l14.93 14.94zM20.78 35.36A14.41 14.41 0 1135.19 21a14.43 14.43 0 01-14.41 14.36z" id="arCalque_1-2" data-name="Calque 1"/></g></svg><view id="ico-loupe-piv-droite" viewBox="0 504 54.67 54.21"/><svg viewBox="-1 -1 54.67 54.21" width="54.67" height="54.21" id="ico-loupe-piv-droite-" y="504" xmlns="http://www.w3.org/2000/svg"><defs><style>.ascls-1{fill:#fff}</style></defs><g id="asCalque_2" data-name="Calque 2"><path class="ascls-1" d="M52.67 47.81l-15-15a20.77 20.77 0 10-4.32 4.46l14.93 14.94zM20.78 35.36A14.41 14.41 0 1135.19 21a14.43 14.43 0 01-14.41 14.36z" id="asCalque_1-2" data-name="Calque 1"/></g></svg><view id="ico-maison" viewBox="0 559 22 22"/><svg width="22" height="22" viewBox="-1 -1 22 22" id="ico-maison-" y="559" xmlns="http://www.w3.org/2000/svg"><path d="M19.871 12.165l-8.829-9.758A1.392 1.392 0 0010 1.937c-.397 0-.767.167-1.042.47L.129 12.165a.5.5 0 00.741.67l2.129-2.353V18.5c0 .827.673 1.5 1.5 1.5h11c.827 0 1.5-.673 1.5-1.5v-8.018l2.129 2.353a.499.499 0 10.741-.671zM12 19H8v-4.5a.5.5 0 01.5-.5h3a.5.5 0 01.5.5V19zm4-.5a.5.5 0 01-.5.5H13v-4.5c0-.827-.673-1.5-1.5-1.5h-3c-.827 0-1.5.673-1.5 1.5V19H4.5a.5.5 0 01-.5-.5V9.377l5.7-6.3c.082-.091.189-.141.3-.141s.218.05.3.141l5.7 6.3V18.5z" fill="#fff"/></svg><view id="ico-moins" viewBox="0 581 18 18"/><svg width="18" height="18" viewBox="-1 -1 18 18" id="ico-moins-" y="581" xmlns="http://www.w3.org/2000/svg"><path data-name="Support à icône" fill="none" d="M0 0h16v16H0z"/><path d="M15 9H1a1 1 0 01-1-1 1 1 0 011-1h14a1 1 0 011 1 1 1 0 01-1 1z" fill="#223654"/></svg><view id="ico-papier-crayon" viewBox="0 599 22 22"/><svg width="22" height="22" viewBox="-1 -1 22 22" id="ico-papier-crayon-" y="599" xmlns="http://www.w3.org/2000/svg"><path d="M19.103.896C18.541.334 17.794.025 17 .025s-1.542.309-2.103.871l-9.75 9.75a.496.496 0 00-.116.183l-2 5.5a.5.5 0 00.641.641l5.5-2a.51.51 0 00.183-.116l9.75-9.75c.562-.562.871-1.309.871-2.104s-.309-1.542-.871-2.104zM8.725 14.068l-4.389 1.596 1.596-4.389L14 3.207 16.793 6l-8.068 8.068zm9.672-9.672l-.897.896-2.793-2.793.897-.896c.373-.373.869-.578 1.396-.578s1.023.205 1.397.578c.373.373.578.869.578 1.396s-.205 1.023-.578 1.396z" fill="#223654"/><path d="M17.5 20h-16C.673 20 0 19.327 0 18.5v-16C0 1.673.673 1 1.5 1h10a.5.5 0 010 1h-10a.5.5 0 00-.5.5v16a.5.5 0 00.5.5h16a.5.5 0 00.5-.5v-10a.5.5 0 011 0v10c0 .827-.673 1.5-1.5 1.5z" fill="#223654"/></svg><view id="ico-partage" viewBox="0 621 22 22"/><svg width="22" height="22" viewBox="-1 -1 22 22" id="ico-partage-" y="621" xmlns="http://www.w3.org/2000/svg"><path d="M16 12a4 4 0 00-3.325 1.779l-4.902-2.451C7.92 10.912 8 10.466 8 10s-.08-.912-.227-1.328l4.902-2.451A4 4 0 1016 0a4.004 4.004 0 00-3.773 5.327L7.325 7.778A3.998 3.998 0 000 10c0 2.206 1.794 4 4 4a4 4 0 003.325-1.779l4.902 2.451A4.004 4.004 0 0016 20c2.206 0 4-1.794 4-4s-1.794-4-4-4zm0-11c1.654 0 3 1.346 3 3s-1.346 3-3 3-3-1.346-3-3 1.346-3 3-3zM4 13c-1.654 0-3-1.346-3-3s1.346-3 3-3 3 1.346 3 3-1.346 3-3 3zm12 6c-1.654 0-3-1.346-3-3s1.346-3 3-3 3 1.346 3 3-1.346 3-3 3z" fill="#223654"/></svg><view id="ico-pdf" viewBox="0 643 34 34"/><svg viewBox="-1 -1 34 34" width="34" height="34" id="ico-pdf-" y="643" xmlns="http://www.w3.org/2000/svg"><path fill="none" d="M0 0h32v32H0z"/><path d="M29.23 7.82L21.65.25a.84.84 0 00-.6-.25h-16C3.66 0 2.53 1.13 2.53 2.53v26.95c0 1.39 1.13 2.53 2.53 2.53h21.89c1.39 0 2.53-1.13 2.53-2.53V8.42c0-.22-.09-.44-.25-.6zm-1.79.6h-5.55c-.46 0-.84-.38-.84-.84V2.03l6.39 6.39zm.35 21.05c0 .46-.38.84-.84.84H5.05c-.46 0-.84-.38-.84-.84V2.53c0-.46.38-.84.84-.84h14.32v5.89c0 1.39 1.13 2.53 2.53 2.53h5.89v19.37z" fill="#223654"/><path d="M9.32 19.9c-.12 0-.23-.02-.34-.05-.4-.12-.69-.44-.76-.87-.09-.5.04-1.55 1.93-2.96.5-.37 1.14-.72 1.86-1.03a24.58 24.58 0 001.59-4.09c-.78-1.91-.66-3.63-.18-4.63.45-.94 1.08-.86 1.26-.81.98.25.89 1.87.86 2.41-.02.14-.21 1.33-.67 2.97.41.86 1.07 1.81 2.12 2.77 2.11-.32 4.02-.28 4.79.3.41.31.55.78.37 1.25-.11.28-.37.66-1 .84-1.21.35-3.31-.17-3.99-.69-.18-.14-.35-.27-.52-.41-1.25.21-2.58.54-3.76 1-.64 1.21-1.42 2.39-2.37 3.4-.36.39-.79.6-1.21.6zm1.51-2.89c-1.09.82-1.38 1.42-1.43 1.66a.81.81 0 00.25-.19c.43-.46.82-.95 1.17-1.47zm7.83-2.35c.68.2 1.62.35 2.17.18.05-.02.1-.03.13-.05-.35-.16-1.21-.21-2.3-.13zM14.4 12.4c-.22.64-.48 1.31-.77 2 .63-.2 1.29-.37 1.94-.52-.46-.49-.85-.98-1.17-1.48zm-.03-5.19c-.07.27-.12.63-.11 1.07v.04c.07-.36.1-.56.11-.57.01-.21.01-.39 0-.54zM12.24 23.89c0 .34-.05.64-.16.9s-.26.48-.46.66-.45.32-.75.41-.64.14-1.04.14h-.51v1.94s-.01.06-.03.08-.05.05-.1.06-.11.03-.19.04-.18.01-.3.01-.22 0-.3-.01-.14-.02-.19-.04-.08-.04-.1-.06-.03-.05-.03-.08v-5.46c0-.15.04-.26.11-.33s.18-.11.3-.11h1.43c.14 0 .28 0 .41.02s.29.03.47.07.36.1.55.2.34.22.48.37.23.32.3.52.1.42.1.67zm-1.29.09c0-.21-.04-.39-.11-.52s-.17-.24-.28-.3-.22-.11-.34-.12-.24-.03-.37-.03h-.53v2.06h.55c.2 0 .36-.03.49-.08s.24-.13.33-.22.15-.21.19-.34.07-.28.07-.43zM18.24 24.99c0 .56-.07 1.03-.22 1.43s-.35.72-.63.97c-.27.25-.6.43-.99.55s-.85.18-1.39.18h-1.45c-.1 0-.19-.03-.26-.09s-.11-.16-.11-.3v-5.29c0-.14.04-.24.11-.3s.16-.09.26-.09h1.56c.54 0 1 .06 1.38.19s.69.31.95.56c.26.25.45.56.59.92s.2.79.2 1.27zm-1.28.04c0-.29-.03-.55-.1-.8s-.17-.46-.32-.64-.34-.32-.57-.42-.54-.15-.92-.15h-.62v4.12h.64c.34 0 .62-.04.85-.13s.42-.22.58-.4.27-.4.35-.66.11-.57.11-.92zM22.66 22.56c0 .09 0 .17-.01.24s-.02.11-.04.15-.04.07-.06.08-.05.03-.08.03h-1.98v1.63h1.86s.05 0 .08.02.04.04.06.08.03.09.04.15.01.14.01.23 0 .17-.01.23-.02.11-.04.15-.04.07-.06.09-.05.03-.08.03h-1.86v2.26s0 .06-.03.09-.05.05-.1.06-.11.03-.19.04-.18.01-.3.01-.22 0-.3-.01-.14-.02-.19-.04-.08-.04-.1-.06-.03-.05-.03-.09v-5.5c0-.14.04-.24.11-.3s.16-.09.26-.09h2.85s.05 0 .08.03.04.05.06.08.03.09.04.16.01.15.01.24z" fill="#223654"/></svg><view id="ico-plus" viewBox="0 677 18 18"/><svg width="18" height="18" viewBox="-1 -1 18 18" id="ico-plus-" y="677" xmlns="http://www.w3.org/2000/svg"><path data-name="Support à icône" fill="none" d="M0 0h16v16H0z"/><path d="M7 15V9H1a1 1 0 010-2h6V1a1 1 0 112 0v6h6a1 1 0 010 2H9v6a1 1 0 01-2 0z" fill="#223654"/></svg><view id="ico-poubelle" viewBox="0 695 22 22"/><svg width="22" height="22" viewBox="-1 -1 22 22" id="ico-poubelle-" y="695" xmlns="http://www.w3.org/2000/svg"><path d="M15.5 2H12v-.5c0-.827-.673-1.5-1.5-1.5h-2C7.673 0 7 .673 7 1.5V2H3.5C2.673 2 2 2.673 2 3.5v1c0 .652.418 1.208 1 1.414V18.5c0 .827.673 1.5 1.5 1.5h10c.827 0 1.5-.673 1.5-1.5V5.914c.582-.206 1-.762 1-1.414v-1c0-.827-.673-1.5-1.5-1.5zM8 1.5a.5.5 0 01.5-.5h2a.5.5 0 01.5.5V2H8v-.5zM14.5 19h-10a.5.5 0 01-.5-.5V6h11v12.5a.5.5 0 01-.5.5zM16 4.5a.5.5 0 01-.5.5h-12a.5.5 0 01-.5-.5v-1a.5.5 0 01.5-.5h12a.5.5 0 01.5.5v1z" fill="#223654"/><path d="M12.5 7a.5.5 0 00-.5.5v10a.5.5 0 001 0v-10a.5.5 0 00-.5-.5zM9.5 7a.5.5 0 00-.5.5v10a.5.5 0 001 0v-10a.5.5 0 00-.5-.5zM6.5 7a.5.5 0 00-.5.5v10a.5.5 0 001 0v-10a.5.5 0 00-.5-.5z" fill="#223654"/></svg><view id="ico-question" viewBox="0 717 975.1 975.1"/><svg width="975.1" height="975.1" viewBox="-1 -1 975.1 975.1" id="ico-question-" y="717" xmlns="http://www.w3.org/2000/svg"><g fill="#fff"><path d="M502.29 788.199h-47c-33.1 0-60 26.9-60 60v64.9c0 33.1 26.9 60 60 60h47c33.101 0 60-26.9 60-60v-64.9c0-33.199-26.899-60-60-60zM170.89 285.8l86.7 10.8c27.5 3.4 53.6-12.4 63.5-38.3 12.5-32.7 29.9-58.5 52.2-77.3 31.601-26.6 70.9-40 117.9-40 48.7 0 87.5 12.8 116.3 38.3 28.8 25.6 43.1 56.2 43.1 92.1 0 25.8-8.1 49.4-24.3 70.8-10.5 13.6-42.8 42.2-96.7 85.9-54 43.7-89.899 83.099-107.899 118.099-18.4 35.801-24.8 75.5-26.4 115.301-1.399 34.1 25.8 62.5 60 62.5h49c31.2 0 57-23.9 59.8-54.9 2-22.299 5.7-39.199 11.301-50.699 9.399-19.701 33.699-45.701 72.699-78.1C723.59 477.8 772.79 428.4 795.891 392c23-36.3 34.6-74.8 34.6-115.5 0-73.5-31.3-138-94-193.4-62.6-55.4-147-83.1-253-83.1-100.8 0-182.1 27.3-244.1 82-52.8 46.6-84.9 101.8-96.2 165.5-3.501 18.6 9.199 36 27.699 38.3z"/></g></svg><view id="ico-rappel" viewBox="0 1693 22 22"/><svg width="22" height="22" viewBox="-1 -1 22 22" id="ico-rappel-" y="1693" xmlns="http://www.w3.org/2000/svg"><path d="M9.415 2a.499.499 0 01-.471-.333 1.002 1.002 0 00-1.886 0 .5.5 0 01-.943-.333C6.397.537 7.155.001 8.001.001s1.604.536 1.886 1.333a.5.5 0 01-.472.667zM17 9a1.99 1.99 0 00-1.113.339A2.003 2.003 0 0014 8a1.99 1.99 0 00-1.113.339A2.003 2.003 0 0011 7c-.364 0-.706.098-1 .269V5.5a.5.5 0 00-1 0v5a.5.5 0 001 0V9c0-.551.449-1 1-1s1 .449 1 1v1.5a.5.5 0 001 0V10c0-.551.449-1 1-1s1 .449 1 1v1.5a.5.5 0 001 0V11c0-.551.449-1 1-1s1 .449 1 1c0 2.783-.436 4.879-1.297 6.232C15.956 18.405 14.879 19 13.5 19H8.51c-.039-.003-.46-.05-1.095-.525-.633-.474-1.605-1.472-2.638-3.54-2.027-4.054-2.65-5.331-2.656-5.343l-.002-.004c-.251-.503-.073-1.162.389-1.439a.876.876 0 01.685-.095.956.956 0 01.587.472l.006.01 1.561 2.705c.319.583.678.828 1.067.729.39-.099.587-.489.587-1.157V5.5a.5.5 0 00-1 0v4.873L4.655 8.04a1.947 1.947 0 00-1.199-.953 1.866 1.866 0 00-1.462.202c-.907.544-1.253 1.774-.77 2.742.03.061.668 1.368 2.66 5.35.938 1.875 1.967 3.216 3.059 3.984.857.603 1.449.634 1.559.634h5c.845 0 1.613-.183 2.284-.544.696-.375 1.289-.942 1.763-1.687.964-1.515 1.453-3.792 1.453-6.768 0-1.103-.897-2-2-2z" fill="#223654"/><path d="M12.5 1c-.2 0-.81 0-2.89 1.054-.677.343-1.283.682-1.61.869a37.583 37.583 0 00-1.61-.869C4.31 1 3.7 1 3.5 1 2.122 1 1 2.122 1 3.5S2.122 6 3.5 6c.2 0 .81 0 2.89-1.054A37.583 37.583 0 008 4.077c.327.187.933.526 1.61.869C11.69 6 12.3 6 12.5 6 13.878 6 15 4.878 15 3.5S13.878 1 12.5 1zM5.934 4.056C4.252 4.908 3.672 5 3.5 5 2.673 5 2 4.327 2 3.5S2.673 2 3.5 2c.171 0 .752.092 2.434.944.385.195.75.391 1.051.556-.301.165-.666.361-1.051.556zM12.5 5c-.171 0-.752-.092-2.434-.944-.385-.195-.75-.391-1.051-.556.301-.165.666-.361 1.051-.556C11.748 2.092 12.328 2 12.5 2c.827 0 1.5.673 1.5 1.5S13.327 5 12.5 5z" fill="#223654"/></svg><view id="ico-succes" viewBox="0 1715 21.25 21.25"/><svg viewBox="-1 -1 21.25 21.25" width="21.25" height="21.25" id="ico-succes-" y="1715" xmlns="http://www.w3.org/2000/svg"><defs><style>.bccls-1{fill:#4f813d;stroke:#4f813d;stroke-miterlimit:10;stroke-width:.25px}</style></defs><g id="bcCalque_2" data-name="Calque 2"><g id="bcLayer_1_-_copie" data-name="Layer 1 - copie"><path class="bccls-1" d="M9.63 19.12a9.49 9.49 0 01-9.5-9.49 9.49 9.49 0 019.5-9.5 9.51 9.51 0 019.5 9.5 9.51 9.51 0 01-9.5 9.49zm0-18a8.5 8.5 0 108.5 8.49 8.5 8.5 0 00-8.5-8.48z"/><path class="bccls-1" d="M7.63 13.62a.5.5 0 01-.36-.14l-3-3A.5.5 0 015 9.77l2.64 2.65 6.65-6.65a.5.5 0 01.71.71l-7 7a.5.5 0 01-.36.14z"/></g></g></svg><view id="ico-telecharger" viewBox="0 1737 22 22"/><svg width="22" height="22" viewBox="-1 -1 22 22" id="ico-telecharger-" y="1737" xmlns="http://www.w3.org/2000/svg"><path d="M14.853 9.647a.5.5 0 00-.707 0L10 13.793V2.5a.5.5 0 00-1 0v11.293L4.854 9.647a.5.5 0 00-.707.707l5 5a.498.498 0 00.708-.001l5-5a.5.5 0 000-.707z" fill="#223654"/><path d="M17.5 19h-16C.673 19 0 18.327 0 17.5v-2a.5.5 0 011 0v2a.5.5 0 00.5.5h16a.5.5 0 00.5-.5v-2a.5.5 0 011 0v2c0 .827-.673 1.5-1.5 1.5z" fill="#223654"/></svg><view id="ico-triangle" viewBox="0 1759 18.02 18"/><svg viewBox="-1 -1 18.02 18" width="18.02" height="18" id="ico-triangle-" y="1759" xmlns="http://www.w3.org/2000/svg"><g fill="#095797"><path d="M15.37 5.07c.17-.2.09-.35-.17-.35H.75c-.25 0-.32.15-.15.35l6.98 8.47c.11.16.33.2.49.09.04-.02.07-.06.09-.09l7.21-8.47z"/><path d="M7.86 14.19c-.27 0-.54-.13-.71-.37L.21 5.38c-.3-.35-.2-.66-.15-.78.11-.24.37-.39.69-.39H15.2c.47 0 .65.27.7.39.05.12.15.43-.15.78s-7.21 8.47-7.21 8.47c-.03.05-.11.12-.19.18-.15.1-.32.15-.48.15zm.09-.98zm-6.59-8l6.51 7.9 6.72-7.9H1.36zm14.01-.15l-.38-.33.38.32-.38-.32.38.32z"/><path d="M15.37 5.07c.17-.2.09-.35-.17-.35H.75c-.25 0-.32.15-.15.35l6.98 8.47c.11.16.33.2.49.09.04-.02.07-.06.09-.09l7.21-8.47z"/><path d="M7.86 14.19c-.27 0-.54-.13-.71-.37L.21 5.38c-.3-.35-.2-.66-.15-.78.11-.24.37-.39.69-.39H15.2c.47 0 .65.27.7.39.05.12.15.43-.15.78s-7.21 8.47-7.21 8.47c-.03.05-.11.12-.19.18-.15.1-.32.15-.48.15zm.09-.98zm-6.59-8l6.51 7.9 6.72-7.9H1.36zm14.01-.15l-.38-.33.38.32-.38-.32.38.32z"/></g><path fill="none" d="M.02 0h16v16h-16z"/></svg><view id="ico-utilisateur" viewBox="0 1777 22 22"/><svg width="22" height="22" viewBox="-1 -1 22 22" id="ico-utilisateur-" y="1777" xmlns="http://www.w3.org/2000/svg"><path d="M9.5 11C6.467 11 4 8.533 4 5.5S6.467 0 9.5 0 15 2.467 15 5.5 12.533 11 9.5 11zm0-10C7.019 1 5 3.019 5 5.5S7.019 10 9.5 10 14 7.981 14 5.5 11.981 1 9.5 1zM17.5 20h-16C.673 20 0 19.327 0 18.5c0-.068.014-1.685 1.225-3.3.705-.94 1.67-1.687 2.869-2.219C5.558 12.33 7.377 12 9.5 12s3.942.33 5.406.981c1.199.533 2.164 1.279 2.869 2.219C18.986 16.815 19 18.432 19 18.5c0 .827-.673 1.5-1.5 1.5zm-8-7c-3.487 0-6.06.953-7.441 2.756C1.024 17.107 1.001 18.488 1 18.502a.5.5 0 00.5.498h16a.5.5 0 00.5-.5c0-.012-.023-1.393-1.059-2.744C15.559 13.953 12.986 13 9.5 13z" fill="#223654"/></svg><view id="ico-xfermer" viewBox="0 1799 19.06 19.06"/><svg id="ico-xfermer-" viewBox="-1 -1 19.06 19.06" width="19.06" height="19.06" y="1799" xmlns="http://www.w3.org/2000/svg"><defs><style>.bgcls-1{fill:#19406c;stroke:#19406c;stroke-miterlimit:10}</style></defs><path class="bgcls-1" d="M9.13 8.53l7.31-7.31c.16-.16.16-.43 0-.6a.435.435 0 00-.6 0L8.53 7.93 1.22.62a.435.435 0 00-.6 0c-.16.16-.16.43 0 .6l7.31 7.31-7.31 7.31c-.16.16-.16.43 0 .6.08.08.19.12.3.12s.22-.04.3-.12l7.31-7.31 7.31 7.31c.08.08.19.12.3.12s.22-.04.3-.12c.16-.17.16-.43 0-.6L9.13 8.53z" id="bgCalque_2-2"/></svg><view id="ico-xfermer-bleu" viewBox="0 1819 22 22"/><svg width="22" height="22" viewBox="-1 -1 22 22" id="ico-xfermer-bleu-" y="1819" xmlns="http://www.w3.org/2000/svg"><path d="M10.707 10.5l8.646-8.646a.5.5 0 00-.707-.707L10 9.793 1.354 1.147a.5.5 0 00-.707.707L9.293 10.5.647 19.146a.5.5 0 00.708.707l8.646-8.646 8.646 8.646a.498.498 0 00.708 0 .5.5 0 000-.707L10.709 10.5z" fill="#095797"/></svg></svg>