<?xml version="1.0" encoding="utf-8"?><!DOCTYPE svg PUBLIC "-//W3C//DTD SVG 1.1//EN" "http://www.w3.org/Graphics/SVG/1.1/DTD/svg11.dtd"><svg viewBox="0 0 975.1 1447" xmlns="http://www.w3.org/2000/svg" xmlns:xlink="http://www.w3.org/1999/xlink"><view id="ico-avertissement" viewBox="0 0 26 23"/><svg width="26" height="23" viewBox="-1 -1 26 23" id="ico-avertissement-" xmlns="http://www.w3.org/2000/svg"><defs><style>.aa{fill:#e0ad03}</style></defs><path class="aa" d="M23.368 21H.633a.633.633 0 01-.546-.306.6.6 0 01-.005-.615L11.45.315a.638.638 0 011.1 0l11.368 19.764a.606.606 0 010 .615.632.632 0 01-.55.306zM1.712 19.765h20.574L11.999 1.878z"/><path class="aa" d="M12.001 14.934a.638.638 0 01-.638-.638V7.919a.638.638 0 011.275 0v6.377a.638.638 0 01-.637.638zM12.001 18.449a.638.638 0 01-.638-.637v-1.276a.638.638 0 011.275 0v1.276a.638.638 0 01-.637.637z"/></svg><view id="ico-erreur" viewBox="0 23 26 26"/><svg width="26" height="26" viewBox="-1 -1 26 26" id="ico-erreur-" y="23" xmlns="http://www.w3.org/2000/svg"><defs><style>.ba{fill:#cb381f}</style></defs><path class="ba" d="M17.885 16.763l-4.969-4.762 4.969-4.763a.7.7 0 00.051-.928.579.579 0 00-.86-.055L12 11.122 6.924 6.255a.579.579 0 00-.86.055.693.693 0 00.051.928l4.969 4.763-4.969 4.762a.7.7 0 00-.051.928.578.578 0 00.86.055L12 12.879l5.076 4.867a.579.579 0 00.4.166.59.59 0 00.455-.221.694.694 0 00-.046-.928z"/><path class="ba" d="M11.998 23.999a12 12 0 118.486-3.514 11.926 11.926 0 01-8.486 3.514zm0-22.737a10.737 10.737 0 1010.739 10.737A10.749 10.749 0 0011.998 1.263z"/></svg><view id="ico-exclamation-blanc" viewBox="0 49 303.69 303.69"/><svg viewBox="-1 -1 303.69 303.69" width="303.69" height="303.69" id="ico-exclamation-blanc-" y="49" xmlns="http://www.w3.org/2000/svg"><g fill="#fff"><path d="M119.151 0L129.6 218.406h42.46L182.54 0zM130.563 261.168h40.525v40.523h-40.525z"/></g></svg><view id="ico-information" viewBox="0 353 26 26"/><svg width="26" height="26" viewBox="-1 -1 26 26" id="ico-information-" y="353" xmlns="http://www.w3.org/2000/svg"><defs><style>.da{fill:#095797}</style></defs><path class="da" d="M20.486 20.484a12 12 0 113.512-8.485 11.922 11.922 0 01-3.512 8.485zM11.998 1.261a10.737 10.737 0 1010.739 10.738A10.748 10.748 0 0011.998 1.261z"/><path class="da" d="M12 4.026a.64.64 0 00-.639.639v1.278a.64.64 0 00.639.639.64.64 0 00.639-.639V4.665A.64.64 0 0012 4.026zM12 7.712a.641.641 0 00-.639.639V19.62a.639.639 0 101.278 0V8.352a.641.641 0 00-.639-.64z"/></svg><view id="ico-moins" viewBox="0 379 22 22"/><svg width="22" height="22" viewBox="-1 -1 22 22" id="ico-moins-" y="379" xmlns="http://www.w3.org/2000/svg"><path d="M18.5 11H.5a.5.5 0 010-1h18a.5.5 0 010 1z"/></svg><view id="ico-plus" viewBox="0 401 22 22"/><svg width="22" height="22" viewBox="-1 -1 22 22" id="ico-plus-" y="401" xmlns="http://www.w3.org/2000/svg"><path d="M18.5 10H10V1.5a.5.5 0 00-1 0V10H.5a.5.5 0 000 1H9v8.5a.5.5 0 001 0V11h8.5a.5.5 0 000-1z"/></svg><view id="ico-question" viewBox="0 423 975.1 975.1"/><svg width="975.1" height="975.1" viewBox="-1 -1 975.1 975.1" id="ico-question-" y="423" xmlns="http://www.w3.org/2000/svg"><g fill="#fff"><path d="M502.29 788.199h-47c-33.1 0-60 26.9-60 60v64.9c0 33.1 26.9 60 60 60h47c33.101 0 60-26.9 60-60v-64.9c0-33.199-26.899-60-60-60zM170.89 285.8l86.7 10.8c27.5 3.4 53.6-12.4 63.5-38.3 12.5-32.7 29.9-58.5 52.2-77.3 31.601-26.6 70.9-40 117.9-40 48.7 0 87.5 12.8 116.3 38.3 28.8 25.6 43.1 56.2 43.1 92.1 0 25.8-8.1 49.4-24.3 70.8-10.5 13.6-42.8 42.2-96.7 85.9-54 43.7-89.899 83.099-107.899 118.099-18.4 35.801-24.8 75.5-26.4 115.301-1.399 34.1 25.8 62.5 60 62.5h49c31.2 0 57-23.9 59.8-54.9 2-22.299 5.7-39.199 11.301-50.699 9.399-19.701 33.699-45.701 72.699-78.1C723.59 477.8 772.79 428.4 795.891 392c23-36.3 34.6-74.8 34.6-115.5 0-73.5-31.3-138-94-193.4-62.6-55.4-147-83.1-253-83.1-100.8 0-182.1 27.3-244.1 82-52.8 46.6-84.9 101.8-96.2 165.5-3.501 18.6 9.199 36 27.699 38.3z"/></g></svg><view id="ico-succes" viewBox="0 1399 26 26"/><svg width="26" height="26" viewBox="-1 -1 26 26" id="ico-succes-" y="1399" xmlns="http://www.w3.org/2000/svg"><defs><style>.ha{fill:#4f813d}</style></defs><path class="ha" d="M11.998 23.999a12 12 0 118.486-3.514 11.925 11.925 0 01-8.486 3.514zm0-22.737a10.737 10.737 0 1010.739 10.737A10.749 10.749 0 0011.998 1.263z"/><path class="ha" d="M9.468 17.038a.633.633 0 01-.448-.185l-3.8-3.778a.628.628 0 010-.89.638.638 0 01.9 0l3.35 3.333 8.413-8.371a.638.638 0 01.9 0 .628.628 0 010 .891l-8.862 8.815a.628.628 0 01-.448.185z"/></svg><view id="ico-xfermer-bleu" viewBox="0 1425 22 22"/><svg width="22" height="22" viewBox="-1 -1 22 22" id="ico-xfermer-bleu-" y="1425" xmlns="http://www.w3.org/2000/svg"><path d="M10.707 10.5l8.646-8.646a.5.5 0 00-.707-.707L10 9.793 1.354 1.147a.5.5 0 00-.707.707L9.293 10.5.647 19.146a.5.5 0 00.708.707l8.646-8.646 8.646 8.646a.498.498 0 00.708 0 .5.5 0 000-.707L10.709 10.5z" fill="#095797"/></svg></svg>