<?xml version="1.0" encoding="utf-8"?><!DOCTYPE svg PUBLIC "-//W3C//DTD SVG 1.1//EN" "http://www.w3.org/Graphics/SVG/1.1/DTD/svg11.dtd"><svg viewBox="0 0 975.1 1552" xmlns="http://www.w3.org/2000/svg" xmlns:xlink="http://www.w3.org/1999/xlink"><view id="QUEBEC_blanc" viewBox="0 0 198 73"/><svg width="198" height="73" fill="none" viewBox="-1 -1 198 73" id="QUEBEC_blanc-" xmlns="http://www.w3.org/2000/svg"><path d="M158.567 30.911c-1.266.4-1.279-.733-1.279-.733 1.123.198 1.234-.749 1.234-.749h-2.244V28.37h1.064s-.181-1.412-1.225-1.412c-.965 0-1.097 1.068-.921 1.511-.483.082-1.191-.753-1.191-1.736 0-1.252.994-1.921 1.871-1.921 1.416 0 2.476 1.635 2.476 3.559h.434s.093-.924-.101-1.771c-.304-1.331-.965-2.117-.98-3.02-.025-1.569.92-1.82 1.676-3.189.755 1.369 1.7 1.62 1.674 3.189-.014.902-.676 1.689-.979 3.02-.193.848-.102 1.771-.102 1.771h.434c0-1.924 1.06-3.559 2.477-3.559.877 0 1.869.669 1.869 1.921 0 .983-.707 1.818-1.19 1.736.176-.442.044-1.511-.921-1.511-1.044 0-1.225 1.412-1.225 1.412h1.064v1.059h-2.245s.111.947 1.234.749c0 0-.013 1.134-1.28.733 0 0-.05 1.012-.811 1.378-.762-.366-.813-1.378-.813-1.378zm10.89-10.742h-20.154v12.352h20.154V20.169zM184.604 30.911c-1.268.4-1.279-.733-1.279-.733 1.123.198 1.234-.749 1.234-.749h-2.244V28.37h1.063s-.18-1.412-1.225-1.412c-.965 0-1.097 1.068-.92 1.511-.483.082-1.191-.753-1.191-1.736 0-1.252.994-1.921 1.87-1.921 1.417 0 2.476 1.635 2.476 3.559h.434s.093-.924-.101-1.771c-.304-1.331-.965-2.117-.979-3.02-.025-1.569.92-1.82 1.674-3.189.756 1.369 1.701 1.62 1.676 3.189-.016.902-.676 1.689-.98 3.02-.193.848-.1 1.771-.1 1.771h.433c0-1.924 1.059-3.559 2.477-3.559.876 0 1.87.669 1.87 1.921 0 .983-.708 1.818-1.191 1.736.176-.442.045-1.511-.92-1.511-1.045 0-1.225 1.412-1.225 1.412h1.063v1.059h-2.244s.111.947 1.234.749c0 0-.013 1.134-1.279.733 0 0-.051 1.012-.813 1.378-.762-.366-.813-1.378-.813-1.378zm10.889-10.742h-20.154v12.352h20.154V20.169zM158.567 49.169c-1.266.4-1.279-.734-1.279-.734 1.123.199 1.234-.748 1.234-.748h-2.244v-1.059h1.064s-.181-1.412-1.225-1.412c-.965 0-1.097 1.068-.921 1.511-.483.081-1.191-.754-1.191-1.737 0-1.251.994-1.92 1.871-1.92 1.416 0 2.476 1.635 2.476 3.559h.434s.093-.924-.101-1.771c-.304-1.331-.965-2.117-.98-3.02-.025-1.57.92-1.822 1.676-3.189.755 1.367 1.7 1.619 1.674 3.189-.014.902-.676 1.688-.979 3.02-.193.848-.102 1.771-.102 1.771h.434c0-1.924 1.06-3.559 2.477-3.559.877 0 1.869.669 1.869 1.92 0 .983-.707 1.818-1.19 1.737.176-.442.044-1.511-.921-1.511-1.044 0-1.225 1.412-1.225 1.412h1.064v1.059h-2.245s.111.947 1.234.748c0 0-.013 1.135-1.28.734 0 0-.05 1.011-.811 1.377-.762-.366-.813-1.377-.813-1.377zm10.89-10.742h-20.154v12.352h20.154V38.427zM184.604 49.169c-1.268.4-1.279-.734-1.279-.734 1.123.199 1.234-.748 1.234-.748h-2.244v-1.059h1.063s-.18-1.412-1.225-1.412c-.965 0-1.097 1.068-.92 1.511-.483.081-1.191-.754-1.191-1.737 0-1.251.994-1.92 1.87-1.92 1.417 0 2.476 1.635 2.476 3.559h.434s.093-.924-.101-1.771c-.304-1.331-.965-2.117-.979-3.02-.025-1.57.92-1.822 1.674-3.189.756 1.367 1.701 1.619 1.676 3.189-.016.902-.676 1.688-.98 3.02-.193.848-.1 1.771-.1 1.771h.433c0-1.924 1.059-3.559 2.477-3.559.876 0 1.87.669 1.87 1.92 0 .983-.708 1.818-1.191 1.737.176-.442.045-1.511-.92-1.511-1.045 0-1.225 1.412-1.225 1.412h1.063v1.059h-2.244s.111.947 1.234.748c0 0-.013 1.135-1.279.734 0 0-.051 1.011-.813 1.377-.762-.366-.813-1.377-.813-1.377zm10.889-10.742h-20.154v12.352h20.154V38.427zM52.923 45.929l-.001-16.351h-.124c-.58.535-2.729.578-3.64.578h-1.58v.133c1.825 1.121 1.577 2.777 1.577 4.836l.002 6.921c0 3.458-3.398 5.886-6.137 5.886-3.608 0-5.106-2.562-5.106-6.696V29.579h-.124c-.58.534-2.743.578-3.654.578h-1.567v.133c1.825 1.121 1.577 2.777 1.577 4.837v6.896c0 6.313 2.738 9.312 7.63 9.312 2.905 0 5.887-1.031 7.381-3.492v2.983H54.5v-.135c-1.825-1.033-1.577-2.697-1.577-4.762zM61.209 37.185c.499-2.808 2.573-4.591 5.355-4.591 2.988 0 4.896 1.471 5.352 4.591H61.209zm15.066 2.607c.165-5.771-3.695-10.125-9.338-10.125-6.184 0-10.372 4.487-10.372 10.71 0 6.27 4.852 11.046 11.908 11.046 1.95 0 3.942-.31 5.728-1.109l2.075-4.209h-.126c-1.91 1.623-4.315 2.392-6.806 2.392-4.69 0-8.216-3.202-8.3-8.704h15.23v-.001zM79.567 20.081c.993 0 3.022-.062 3.634-.666h.123v28.316c1.114.313 2.269.535 3.423.535 4.535 0 7.132-3.171 7.132-7.592 0-4.334-2.02-7.683-6.183-7.683-1.32 0-2.35.357-3.464.983l2.227-3.812c.947-.358 1.937-.494 2.927-.494 4.702 0 8.7 4.082 8.7 10.202 0 7.012-4.743 11.546-12.246 11.546-2.803 0-5.496-.494-7.527-.809v-.137c1.369-.629 1.245-2.114 1.245-3.588V26.298c0-2.067.248-4.96-1.535-6.084v-.133h1.544zM105.453 37.185c.5-2.808 2.573-4.591 5.355-4.591 2.987 0 4.896 1.471 5.353 4.591h-10.708zm15.064 2.607c.168-5.771-3.692-10.125-9.336-10.125-6.183 0-10.373 4.487-10.373 10.71 0 6.27 4.854 11.046 11.908 11.046 1.951 0 3.944-.31 5.727-1.109l2.075-4.209h-.123c-1.909 1.623-4.317 2.392-6.807 2.392-4.689 0-8.216-3.202-8.3-8.704h15.229v-.001zM139.078 34.797h-.123c-1.204-1.484-3.197-2.202-5.065-2.202-4.025 0-6.928 3.056-6.928 7.323 0 5.165 4.024 8.579 8.63 8.579 2.116 0 4.441-.899 6.059-2.201h.125l-2.159 4.24c-1.743.711-3.651.888-5.479.888-6.389 0-11.384-4.499-11.384-10.338 0-7.727 5.576-11.418 11.841-11.418 1.495 0 3.03.176 4.482.531v4.598h.001z" fill="#fff"/><path fill-rule="evenodd" clip-rule="evenodd" d="M71.097 25.961v-4.493c-2.72 1.219-5.244 3.499-6.931 5.717v1.75c4.037-2.721 6.931-2.847 6.931-2.974z" fill="#fff"/><path d="M15.489 48.334c-6.266 0-10.625-7.07-10.625-13.076l.001-.676c.078-5.819 3.845-11.276 10.417-11.276 6.916 0 10.483 6.543 10.541 12.743v.646c.001 6.606-4.108 11.639-10.334 11.639zm21.48 6.872c-4.627.757-9.075-.701-13.802-6.109 4.566-2.292 7.389-7.998 7.389-13.301l-.001-.659c-.082-9.074-6.898-15.065-15.025-15.065-8.142 0-15.337 6.236-15.398 15.381l-.001.612c0 8.897 6.6 15.503 14.694 15.503 1.163 0 2.282-.18 3.403-.45 5.301 4.965 10.025 7.079 14.108 6.587 1.937-.233 3.982-1.002 5.211-2.599l-.578.1z" fill="#fff"/></svg><view id="ico-avertissement" viewBox="0 73 26 23"/><svg width="26" height="23" viewBox="-1 -1 26 23" id="ico-avertissement-" y="73" xmlns="http://www.w3.org/2000/svg"><defs><style>.ba{fill:#e0ad03}</style></defs><path class="ba" d="M23.368 21H.633a.633.633 0 01-.546-.306.6.6 0 01-.005-.615L11.45.315a.638.638 0 011.1 0l11.368 19.764a.606.606 0 010 .615.632.632 0 01-.55.306zM1.712 19.765h20.574L11.999 1.878z"/><path class="ba" d="M12.001 14.934a.638.638 0 01-.638-.638V7.919a.638.638 0 011.275 0v6.377a.638.638 0 01-.637.638zM12.001 18.449a.638.638 0 01-.638-.637v-1.276a.638.638 0 011.275 0v1.276a.638.638 0 01-.637.637z"/></svg><view id="ico-chevron-bleu-piv" viewBox="0 96 15 10"/><svg width="15" height="10" viewBox="-1 -1 15 10" id="ico-chevron-bleu-piv-" y="96" xmlns="http://www.w3.org/2000/svg"><path data-name="Tracé 700" d="M7.203.667l5.8 5.722-1.4 1.61-5.1-5.03-5.1 5.03-1.4-1.61 5.8-5.722.7-.667z" fill="#095797"/></svg><view id="ico-clipboard" viewBox="0 106 22 22"/><svg width="22" height="22" viewBox="-1 -1 22 22" id="ico-clipboard-" y="106" xmlns="http://www.w3.org/2000/svg"><path d="M16.5 20h-14c-.827 0-1.5-.673-1.5-1.5v-14C1 3.673 1.673 3 2.5 3h1a.5.5 0 010 1h-1a.5.5 0 00-.5.5v14a.5.5 0 00.5.5h14a.5.5 0 00.5-.5v-14a.5.5 0 00-.5-.5h-1a.5.5 0 010-1h1c.827 0 1.5.673 1.5 1.5v14c0 .827-.673 1.5-1.5 1.5z" fill="#095797"/><path d="M13.501 5H5.5a.5.5 0 01-.5-.5c0-1.005.453-1.786 1.276-2.197.275-.138.547-.213.764-.254C7.253.885 8.275 0 9.499 0s2.246.885 2.459 2.049c.218.041.489.116.764.254.816.408 1.268 1.178 1.276 2.17l.001.027a.5.5 0 01-.5.5zM6.06 4h6.88a1.21 1.21 0 00-.638-.79c-.389-.203-.8-.21-.805-.21A.498.498 0 0111 2.5c0-.827-.673-1.5-1.5-1.5S8 1.673 8 2.5a.5.5 0 01-.5.5c-.001 0-.413.007-.802.21A1.208 1.208 0 006.06 4z" fill="#095797"/><path d="M9.5 3c-.132 0-.261-.053-.353-.147S9 2.631 9 2.5a.498.498 0 01.5-.5.498.498 0 01.5.5.5.5 0 01-.5.5z" fill="#095797"/></svg><view id="ico-erreur" viewBox="0 128 26 26"/><svg width="26" height="26" viewBox="-1 -1 26 26" id="ico-erreur-" y="128" xmlns="http://www.w3.org/2000/svg"><defs><style>.ea{fill:#cb381f}</style></defs><path class="ea" d="M17.885 16.763l-4.969-4.762 4.969-4.763a.7.7 0 00.051-.928.579.579 0 00-.86-.055L12 11.122 6.924 6.255a.579.579 0 00-.86.055.693.693 0 00.051.928l4.969 4.763-4.969 4.762a.7.7 0 00-.051.928.578.578 0 00.86.055L12 12.879l5.076 4.867a.579.579 0 00.4.166.59.59 0 00.455-.221.694.694 0 00-.046-.928z"/><path class="ea" d="M11.998 23.999a12 12 0 118.486-3.514 11.926 11.926 0 01-8.486 3.514zm0-22.737a10.737 10.737 0 1010.739 10.737A10.749 10.749 0 0011.998 1.263z"/></svg><view id="ico-exclamation-blanc" viewBox="0 154 303.69 303.69"/><svg viewBox="-1 -1 303.69 303.69" width="303.69" height="303.69" id="ico-exclamation-blanc-" y="154" xmlns="http://www.w3.org/2000/svg"><g fill="#fff"><path d="M119.151 0L129.6 218.406h42.46L182.54 0zM130.563 261.168h40.525v40.523h-40.525z"/></g></svg><view id="ico-information" viewBox="0 458 26 26"/><svg width="26" height="26" viewBox="-1 -1 26 26" id="ico-information-" y="458" xmlns="http://www.w3.org/2000/svg"><defs><style>.ga{fill:#095797}</style></defs><path class="ga" d="M20.486 20.484a12 12 0 113.512-8.485 11.922 11.922 0 01-3.512 8.485zM11.998 1.261a10.737 10.737 0 1010.739 10.738A10.748 10.748 0 0011.998 1.261z"/><path class="ga" d="M12 4.026a.64.64 0 00-.639.639v1.278a.64.64 0 00.639.639.64.64 0 00.639-.639V4.665A.64.64 0 0012 4.026zM12 7.712a.641.641 0 00-.639.639V19.62a.639.639 0 101.278 0V8.352a.641.641 0 00-.639-.64z"/></svg><view id="ico-moins" viewBox="0 484 22 22"/><svg width="22" height="22" viewBox="-1 -1 22 22" id="ico-moins-" y="484" xmlns="http://www.w3.org/2000/svg"><path d="M18.5 11H.5a.5.5 0 010-1h18a.5.5 0 010 1z"/></svg><view id="ico-plus" viewBox="0 506 22 22"/><svg width="22" height="22" viewBox="-1 -1 22 22" id="ico-plus-" y="506" xmlns="http://www.w3.org/2000/svg"><path d="M18.5 10H10V1.5a.5.5 0 00-1 0V10H.5a.5.5 0 000 1H9v8.5a.5.5 0 001 0V11h8.5a.5.5 0 000-1z"/></svg><view id="ico-question" viewBox="0 528 975.1 975.1"/><svg width="975.1" height="975.1" viewBox="-1 -1 975.1 975.1" id="ico-question-" y="528" xmlns="http://www.w3.org/2000/svg"><g fill="#fff"><path d="M502.29 788.199h-47c-33.1 0-60 26.9-60 60v64.9c0 33.1 26.9 60 60 60h47c33.101 0 60-26.9 60-60v-64.9c0-33.199-26.899-60-60-60zM170.89 285.8l86.7 10.8c27.5 3.4 53.6-12.4 63.5-38.3 12.5-32.7 29.9-58.5 52.2-77.3 31.601-26.6 70.9-40 117.9-40 48.7 0 87.5 12.8 116.3 38.3 28.8 25.6 43.1 56.2 43.1 92.1 0 25.8-8.1 49.4-24.3 70.8-10.5 13.6-42.8 42.2-96.7 85.9-54 43.7-89.899 83.099-107.899 118.099-18.4 35.801-24.8 75.5-26.4 115.301-1.399 34.1 25.8 62.5 60 62.5h49c31.2 0 57-23.9 59.8-54.9 2-22.299 5.7-39.199 11.301-50.699 9.399-19.701 33.699-45.701 72.699-78.1C723.59 477.8 772.79 428.4 795.891 392c23-36.3 34.6-74.8 34.6-115.5 0-73.5-31.3-138-94-193.4-62.6-55.4-147-83.1-253-83.1-100.8 0-182.1 27.3-244.1 82-52.8 46.6-84.9 101.8-96.2 165.5-3.501 18.6 9.199 36 27.699 38.3z"/></g></svg><view id="ico-succes" viewBox="0 1504 26 26"/><svg width="26" height="26" viewBox="-1 -1 26 26" id="ico-succes-" y="1504" xmlns="http://www.w3.org/2000/svg"><defs><style>.ka{fill:#4f813d}</style></defs><path class="ka" d="M11.998 23.999a12 12 0 118.486-3.514 11.925 11.925 0 01-8.486 3.514zm0-22.737a10.737 10.737 0 1010.739 10.737A10.749 10.749 0 0011.998 1.263z"/><path class="ka" d="M9.468 17.038a.633.633 0 01-.448-.185l-3.8-3.778a.628.628 0 010-.89.638.638 0 01.9 0l3.35 3.333 8.413-8.371a.638.638 0 01.9 0 .628.628 0 010 .891l-8.862 8.815a.628.628 0 01-.448.185z"/></svg><view id="ico-xfermer-bleu" viewBox="0 1530 22 22"/><svg width="22" height="22" viewBox="-1 -1 22 22" id="ico-xfermer-bleu-" y="1530" xmlns="http://www.w3.org/2000/svg"><path d="M10.707 10.5l8.646-8.646a.5.5 0 00-.707-.707L10 9.793 1.354 1.147a.5.5 0 00-.707.707L9.293 10.5.647 19.146a.5.5 0 00.708.707l8.646-8.646 8.646 8.646a.498.498 0 00.708 0 .5.5 0 000-.707L10.709 10.5z" fill="#095797"/></svg></svg>