<?xml version="1.0" encoding="UTF-8"?><svg id="Calque_2" xmlns="http://www.w3.org/2000/svg" viewBox="0 0 17.06 17.06"><defs><style>.cls-1{fill:#19406C;stroke:#19406C;stroke-miterlimit:10;}</style></defs><g id="Calque_2-2"><path class="cls-1" d="m9.13,8.53l7.31-7.31c.16-.16.16-.43,0-.6-.17-.16-.43-.16-.6,0l-7.31,7.31L1.22.62c-.16-.16-.43-.16-.6,0-.16.16-.16.43,0,.6l7.31,7.31L.62,15.84c-.16.16-.16.43,0,.6.08.08.19.12.3.12s.22-.04.3-.12l7.31-7.31,7.31,7.31c.08.08.19.12.3.12s.22-.04.3-.12c.16-.17.16-.43,0-.6l-7.31-7.31h0Z"/></g></svg>