<?xml version="1.0" standalone="no"?>
<!DOCTYPE svg PUBLIC "-//W3C//DTD SVG 20010904//EN"
 "http://www.w3.org/TR/2001/REC-SVG-20010904/DTD/svg10.dtd">
<svg version="1.0" xmlns="http://www.w3.org/2000/svg"
 width="700.000000pt" height="700.000000pt" viewBox="0 0 700.000000 700.000000"
 preserveAspectRatio="xMidYMid meet">
<metadata>
Created by potrace 1.11, written by Peter Selinger 2001-2013
</metadata>
<g transform="translate(0.000000,700.000000) scale(0.100000,-0.100000)"
fill="#000000" stroke="none">
<path d="M0 3500 l0 -3500 3500 0 3500 0 0 3500 0 3500 -3500 0 -3500 0 0
-3500z m3547 3278 c55 -85 150 -210 383 -503 273 -343 328 -428 389 -612 52
-156 65 -248 65 -443 0 -280 -32 -415 -179 -744 -154 -347 -254 -614 -339
-901 -91 -310 -110 -449 -110 -825 0 -157 3 -315 8 -353 l8 -67 163 0 163 0 6
128 c46 928 369 1551 947 1821 172 81 362 113 537 91 417 -51 758 -370 853
-799 25 -117 26 -313 0 -438 -44 -214 -151 -431 -285 -580 -55 -61 -158 -133
-191 -133 -21 0 -22 2 -12 52 12 69 2 267 -18 343 -46 178 -168 327 -329 405
-121 59 -241 79 -361 62 -169 -25 -286 -83 -411 -207 -89 -89 -147 -183 -207
-340 -32 -82 -76 -258 -91 -362 l-6 -43 315 0 315 0 0 -230 0 -230 -630 0
-629 0 5 -32 c27 -155 87 -288 171 -379 111 -119 228 -168 421 -176 88 -4 122
-9 122 -18 0 -33 -84 -177 -122 -210 -122 -104 -304 -122 -507 -51 -41 14 -78
26 -81 26 -4 0 -10 -42 -13 -92 -16 -224 -102 -431 -241 -577 -28 -29 -75 -71
-104 -93 l-53 -40 -54 41 c-121 91 -222 225 -276 365 -37 95 -69 253 -69 336
0 33 -4 60 -8 60 -5 0 -42 -12 -83 -26 -211 -74 -398 -51 -516 64 -40 38 -113
167 -113 199 0 10 24 13 91 13 184 0 321 52 434 165 86 85 137 178 171 311 13
53 24 100 24 105 0 5 -279 9 -630 9 l-630 0 2 228 3 227 312 3 312 2 -5 33
c-76 446 -205 687 -442 826 -268 158 -583 121 -799 -94 -78 -78 -128 -165
-159 -280 -20 -75 -29 -272 -16 -343 9 -50 8 -52 -13 -52 -60 0 -204 129 -290
260 -212 325 -264 725 -136 1055 64 167 211 357 356 460 501 357 1177 168
1575 -440 207 -316 332 -765 356 -1283 l7 -142 163 0 162 0 8 68 c13 113 10
597 -4 712 -45 358 -198 835 -440 1370 -143 316 -175 451 -176 730 -1 206 12
294 66 453 62 186 120 278 386 609 204 255 344 441 393 521 19 31 35 57 37 57
1 0 23 -33 49 -72z"/>
</g>
</svg>
